<?xml version="1.0" encoding="UTF-8"?>
<!--Generator: Apple Native CoreSVG 175-->
<!DOCTYPE svg
PUBLIC "-//W3C//DTD SVG 1.1//EN"
       "http://www.w3.org/Graphics/SVG/1.1/DTD/svg11.dtd">
<svg version="1.1" xmlns="http://www.w3.org/2000/svg" xmlns:xlink="http://www.w3.org/1999/xlink" width="3300" height="2200">
 <!--glyph: "uni100762.medium", point size: 100.0, font version: "17.3d3e1", template writer version: "65.1"-->
 <g id="Notes">
  <rect height="2200" id="artboard" style="fill:white;opacity:1" width="3300" x="0" y="0"/>
  <line style="fill:none;stroke:black;opacity:1;stroke-width:0.5;" x1="263" x2="3036" y1="292" y2="292"/>
  <text style="stroke:none;fill:black;font-family:sans-serif;font-size:13;font-weight:bold;" transform="matrix(1 0 0 1 263 322)">Weight/Scale Variations</text>
  <text style="stroke:none;fill:black;font-family:sans-serif;font-size:13;text-anchor:middle;" transform="matrix(1 0 0 1 559.711 322)">Ultralight</text>
  <text style="stroke:none;fill:black;font-family:sans-serif;font-size:13;text-anchor:middle;" transform="matrix(1 0 0 1 856.422 322)">Thin</text>
  <text style="stroke:none;fill:black;font-family:sans-serif;font-size:13;text-anchor:middle;" transform="matrix(1 0 0 1 1153.13 322)">Light</text>
  <text style="stroke:none;fill:black;font-family:sans-serif;font-size:13;text-anchor:middle;" transform="matrix(1 0 0 1 1449.84 322)">Regular</text>
  <text style="stroke:none;fill:black;font-family:sans-serif;font-size:13;text-anchor:middle;" transform="matrix(1 0 0 1 1746.56 322)">Medium</text>
  <text style="stroke:none;fill:black;font-family:sans-serif;font-size:13;text-anchor:middle;" transform="matrix(1 0 0 1 2043.27 322)">Semibold</text>
  <text style="stroke:none;fill:black;font-family:sans-serif;font-size:13;text-anchor:middle;" transform="matrix(1 0 0 1 2339.98 322)">Bold</text>
  <text style="stroke:none;fill:black;font-family:sans-serif;font-size:13;text-anchor:middle;" transform="matrix(1 0 0 1 2636.69 322)">Heavy</text>
  <text style="stroke:none;fill:black;font-family:sans-serif;font-size:13;text-anchor:middle;" transform="matrix(1 0 0 1 2933.4 322)">Black</text>
  <line style="fill:none;stroke:black;opacity:1;stroke-width:0.5;" x1="263" x2="3036" y1="1903" y2="1903"/>
  <g transform="matrix(1 0 0 1 263 1933)">
   <path d="M9.24805 0.830078Q10.8691 0.830078 12.2949 0.214844Q13.7207-0.400391 14.8096-1.49414Q15.8984-2.58789 16.5186-4.01367Q17.1387-5.43945 17.1387-7.05078Q17.1387-8.66211 16.5186-10.0879Q15.8984-11.5137 14.8047-12.6074Q13.7109-13.7012 12.2852-14.3164Q10.8594-14.9316 9.23828-14.9316Q7.62695-14.9316 6.20117-14.3164Q4.77539-13.7012 3.69141-12.6074Q2.60742-11.5137 1.9873-10.0879Q1.36719-8.66211 1.36719-7.05078Q1.36719-5.43945 1.9873-4.01367Q2.60742-2.58789 3.69629-1.49414Q4.78516-0.400391 6.21094 0.214844Q7.63672 0.830078 9.24805 0.830078ZM9.24805-0.654297Q7.91992-0.654297 6.7627-1.14746Q5.60547-1.64062 4.73145-2.51953Q3.85742-3.39844 3.36426-4.56055Q2.87109-5.72266 2.87109-7.05078Q2.87109-8.37891 3.35938-9.54102Q3.84766-10.7031 4.72168-11.582Q5.5957-12.4609 6.75293-12.9541Q7.91016-13.4473 9.23828-13.4473Q10.5762-13.4473 11.7334-12.9541Q12.8906-12.4609 13.7695-11.582Q14.6484-10.7031 15.1465-9.54102Q15.6445-8.37891 15.6445-7.05078Q15.6445-5.72266 15.1514-4.56055Q14.6582-3.39844 13.7842-2.51953Q12.9102-1.64062 11.748-1.14746Q10.5859-0.654297 9.24805-0.654297ZM5.6543-7.05078Q5.6543-6.72852 5.85938-6.52832Q6.06445-6.32812 6.40625-6.32812L8.51562-6.32812L8.51562-4.20898Q8.51562-3.88672 8.71094-3.67676Q8.90625-3.4668 9.23828-3.4668Q9.56055-3.4668 9.77051-3.67676Q9.98047-3.88672 9.98047-4.20898L9.98047-6.32812L12.0898-6.32812Q12.4219-6.32812 12.627-6.52832Q12.832-6.72852 12.832-7.05078Q12.832-7.38281 12.627-7.58789Q12.4219-7.79297 12.0898-7.79297L9.98047-7.79297L9.98047-9.90234Q9.98047-10.2344 9.77051-10.4443Q9.56055-10.6543 9.23828-10.6543Q8.90625-10.6543 8.71094-10.4443Q8.51562-10.2344 8.51562-9.90234L8.51562-7.79297L6.40625-7.79297Q6.06445-7.79297 5.85938-7.58789Q5.6543-7.38281 5.6543-7.05078Z"/>
  </g>
  <g transform="matrix(1 0 0 1 281.867 1933)">
   <path d="M11.709 2.91016Q13.75 2.91016 15.5518 2.12891Q17.3535 1.34766 18.7305-0.0292969Q20.1074-1.40625 20.8887-3.20801Q21.6699-5.00977 21.6699-7.05078Q21.6699-9.0918 20.8887-10.8936Q20.1074-12.6953 18.7305-14.0723Q17.3535-15.4492 15.5469-16.2305Q13.7402-17.0117 11.6992-17.0117Q9.6582-17.0117 7.85645-16.2305Q6.05469-15.4492 4.68262-14.0723Q3.31055-12.6953 2.5293-10.8936Q1.74805-9.0918 1.74805-7.05078Q1.74805-5.00977 2.5293-3.20801Q3.31055-1.40625 4.6875-0.0292969Q6.06445 1.34766 7.86621 2.12891Q9.66797 2.91016 11.709 2.91016ZM11.709 1.25Q9.98047 1.25 8.47656 0.605469Q6.97266-0.0390625 5.83496-1.17676Q4.69727-2.31445 4.05762-3.81836Q3.41797-5.32227 3.41797-7.05078Q3.41797-8.7793 4.05762-10.2832Q4.69727-11.7871 5.83008-12.9297Q6.96289-14.0723 8.4668-14.7119Q9.9707-15.3516 11.6992-15.3516Q13.4277-15.3516 14.9316-14.7119Q16.4355-14.0723 17.5781-12.9297Q18.7207-11.7871 19.3652-10.2832Q20.0098-8.7793 20.0098-7.05078Q20.0098-5.32227 19.3701-3.81836Q18.7305-2.31445 17.5928-1.17676Q16.4551-0.0390625 14.9463 0.605469Q13.4375 1.25 11.709 1.25ZM7.17773-7.05078Q7.17773-6.69922 7.41211-6.47461Q7.64648-6.25 8.01758-6.25L10.8887-6.25L10.8887-3.36914Q10.8887-2.99805 11.1133-2.76855Q11.3379-2.53906 11.6895-2.53906Q12.0605-2.53906 12.29-2.76855Q12.5195-2.99805 12.5195-3.36914L12.5195-6.25L15.4004-6.25Q15.7715-6.25 16.001-6.47461Q16.2305-6.69922 16.2305-7.05078Q16.2305-7.42188 16.001-7.65137Q15.7715-7.88086 15.4004-7.88086L12.5195-7.88086L12.5195-10.752Q12.5195-11.1328 12.29-11.3623Q12.0605-11.5918 11.6895-11.5918Q11.3379-11.5918 11.1133-11.3574Q10.8887-11.123 10.8887-10.752L10.8887-7.88086L8.01758-7.88086Q7.63672-7.88086 7.40723-7.65137Q7.17773-7.42188 7.17773-7.05078Z"/>
  </g>
  <g transform="matrix(1 0 0 1 305.646 1933)">
   <path d="M14.9707 5.66406Q17.0605 5.66406 18.96 5.01465Q20.8594 4.36523 22.4512 3.19336Q24.043 2.02148 25.2197 0.429688Q26.3965-1.16211 27.0459-3.06641Q27.6953-4.9707 27.6953-7.05078Q27.6953-9.14062 27.0459-11.04Q26.3965-12.9395 25.2197-14.5312Q24.043-16.123 22.4512-17.2998Q20.8594-18.4766 18.9551-19.126Q17.0508-19.7754 14.9609-19.7754Q12.8711-19.7754 10.9717-19.126Q9.07227-18.4766 7.48535-17.2998Q5.89844-16.123 4.72168-14.5312Q3.54492-12.9395 2.90039-11.04Q2.25586-9.14062 2.25586-7.05078Q2.25586-4.9707 2.90527-3.06641Q3.55469-1.16211 4.72656 0.429688Q5.89844 2.02148 7.49023 3.19336Q9.08203 4.36523 10.9814 5.01465Q12.8809 5.66406 14.9707 5.66406ZM14.9707 3.84766Q13.1641 3.84766 11.5283 3.2959Q9.89258 2.74414 8.53516 1.74805Q7.17773 0.751953 6.17676-0.610352Q5.17578-1.97266 4.62891-3.6084Q4.08203-5.24414 4.08203-7.05078Q4.08203-8.86719 4.62891-10.5029Q5.17578-12.1387 6.17188-13.501Q7.16797-14.8633 8.52539-15.8594Q9.88281-16.8555 11.5186-17.4023Q13.1543-17.9492 14.9609-17.9492Q16.7773-17.9492 18.4131-17.4023Q20.0488-16.8555 21.4111-15.8594Q22.7734-14.8633 23.7695-13.501Q24.7656-12.1387 25.3174-10.5029Q25.8691-8.86719 25.8691-7.05078Q25.8789-5.24414 25.332-3.6084Q24.7852-1.97266 23.7842-0.610352Q22.7832 0.751953 21.4209 1.74805Q20.0586 2.74414 18.4229 3.2959Q16.7871 3.84766 14.9707 3.84766ZM9.19922-7.05078Q9.19922-6.66992 9.45801-6.4209Q9.7168-6.17188 10.1172-6.17188L14.0625-6.17188L14.0625-2.2168Q14.0625-1.81641 14.3115-1.55762Q14.5605-1.29883 14.9512-1.29883Q15.3516-1.29883 15.6104-1.55273Q15.8691-1.80664 15.8691-2.2168L15.8691-6.17188L19.8242-6.17188Q20.2246-6.17188 20.4785-6.4209Q20.7324-6.66992 20.7324-7.05078Q20.7324-7.46094 20.4785-7.71484Q20.2246-7.96875 19.8242-7.96875L15.8691-7.96875L15.8691-11.9141Q15.8691-12.3242 15.6104-12.583Q15.3516-12.8418 14.9512-12.8418Q14.5605-12.8418 14.3115-12.583Q14.0625-12.3242 14.0625-11.9141L14.0625-7.96875L10.1172-7.96875Q9.70703-7.96875 9.45312-7.71484Q9.19922-7.46094 9.19922-7.05078Z"/>
  </g>
  <text style="stroke:none;fill:black;font-family:sans-serif;font-size:13;font-weight:bold;" transform="matrix(1 0 0 1 263 1953)">Design Variations</text>
  <text style="stroke:none;fill:black;font-family:sans-serif;font-size:13;" transform="matrix(1 0 0 1 263 1971)">Symbols are supported in up to nine weights and three scales.</text>
  <text style="stroke:none;fill:black;font-family:sans-serif;font-size:13;" transform="matrix(1 0 0 1 263 1989)">For optimal layout with text and other symbols, vertically align</text>
  <text style="stroke:none;fill:black;font-family:sans-serif;font-size:13;" transform="matrix(1 0 0 1 263 2007)">symbols with the adjacent text.</text>
  <line style="fill:none;stroke:#00AEEF;stroke-width:0.5;opacity:1.0;" x1="776" x2="776" y1="1919" y2="1933"/>
  <g transform="matrix(1 0 0 1 776 1933)">
   <path d="M3.31055 0.15625Q3.70117 0.15625 3.91602-0.00976562Q4.13086-0.175781 4.26758-0.585938L5.52734-4.0332L11.2891-4.0332L12.5488-0.585938Q12.6855-0.175781 12.9004-0.00976562Q13.1152 0.15625 13.4961 0.15625Q13.8867 0.15625 14.1162-0.0585938Q14.3457-0.273438 14.3457-0.644531Q14.3457-0.869141 14.2383-1.17188L9.6582-13.3691Q9.48242-13.8184 9.17969-14.043Q8.87695-14.2676 8.4082-14.2676Q7.5-14.2676 7.17773-13.3789L2.59766-1.16211Q2.49023-0.859375 2.49023-0.634766Q2.49023-0.263672 2.70996-0.0537109Q2.92969 0.15625 3.31055 0.15625ZM6.00586-5.51758L8.37891-12.0898L8.42773-12.0898L10.8008-5.51758Z"/>
  </g>
  <line style="fill:none;stroke:#00AEEF;stroke-width:0.5;opacity:1.0;" x1="793.197" x2="793.197" y1="1919" y2="1933"/>
  <text style="stroke:none;fill:black;font-family:sans-serif;font-size:13;font-weight:bold;" transform="matrix(1 0 0 1 776 1953)">Margins</text>
  <text style="stroke:none;fill:black;font-family:sans-serif;font-size:13;" transform="matrix(1 0 0 1 776 1971)">Leading and trailing margins on the left and right side of each symbol</text>
  <text style="stroke:none;fill:black;font-family:sans-serif;font-size:13;" transform="matrix(1 0 0 1 776 1989)">can be adjusted by modifying the x-location of the margin guidelines.</text>
  <text style="stroke:none;fill:black;font-family:sans-serif;font-size:13;" transform="matrix(1 0 0 1 776 2007)">Modifications are automatically applied proportionally to all</text>
  <text style="stroke:none;fill:black;font-family:sans-serif;font-size:13;" transform="matrix(1 0 0 1 776 2025)">scales and weights.</text>
  <g transform="matrix(1 0 0 1 1289 1933)">
   <path d="M2.8418 1.86523L4.54102 3.57422Q5.18555 4.22852 5.90332 4.17969Q6.62109 4.13086 7.31445 3.35938L18.0078-8.42773L17.041-9.4043L6.42578 2.27539Q6.16211 2.57812 5.89355 2.61719Q5.625 2.65625 5.27344 2.30469L4.10156 1.14258Q3.75 0.791016 3.79395 0.522461Q3.83789 0.253906 4.14062-0.0195312L15.6152-10.8203L14.6387-11.7871L3.04688-0.898438Q2.30469-0.214844 2.25098 0.498047Q2.19727 1.21094 2.8418 1.86523ZM9.25781-16.3281Q8.94531-16.0254 8.90625-15.6348Q8.86719-15.2441 9.04297-14.9512Q9.21875-14.6777 9.55566-14.541Q9.89258-14.4043 10.3809-14.5215Q11.4746-14.7754 12.5977-14.7314Q13.7207-14.6875 14.7949-13.9844L14.209-12.5293Q13.9551-11.9043 14.0674-11.4404Q14.1797-10.9766 14.5801-10.5664L16.875-8.25195Q17.2363-7.88086 17.5781-7.82227Q17.9199-7.76367 18.3398-7.8418L19.4043-8.03711L20.0684-7.36328L20.0293-6.80664Q20-6.43555 20.1221-6.12305Q20.2441-5.81055 20.6055-5.44922L21.3672-4.70703Q21.7285-4.3457 22.1533-4.33105Q22.5781-4.31641 22.9297-4.66797L25.8398-7.58789Q26.1914-7.93945 26.1816-8.35449Q26.1719-8.76953 25.8105-9.13086L25.0391-9.89258Q24.6875-10.2539 24.3799-10.3857Q24.0723-10.5176 23.7109-10.4883L23.1348-10.4395L22.4902-11.0742L22.7344-12.1973Q22.832-12.6172 22.6953-12.9834Q22.5586-13.3496 22.1191-13.7891L19.9219-15.9766Q18.6719-17.2168 17.2607-17.8369Q15.8496-18.457 14.4189-18.4814Q12.9883-18.5059 11.665-17.959Q10.3418-17.4121 9.25781-16.3281ZM10.752-15.957Q11.6602-16.6211 12.7002-16.9043Q13.7402-17.1875 14.8047-17.085Q15.8691-16.9824 16.8701-16.5137Q17.8711-16.0449 18.7012-15.2051L21.1328-12.793Q21.3086-12.6172 21.3525-12.4512Q21.3965-12.2852 21.3379-12.0312L21.0156-10.5469L22.5195-9.0625L23.5059-9.12109Q23.6914-9.13086 23.7891-9.09668Q23.8867-9.0625 24.0332-8.91602L24.6094-8.33984L22.168-5.89844L21.5918-6.47461Q21.4453-6.62109 21.4062-6.71875Q21.3672-6.81641 21.377-7.01172L21.4453-7.98828L19.9512-9.47266L18.4277-9.21875Q18.1836-9.16992 18.042-9.2041Q17.9004-9.23828 17.7148-9.41406L15.7129-11.416Q15.5176-11.5918 15.4932-11.7529Q15.4688-11.9141 15.5859-12.1875L16.4648-14.2773Q15.293-15.3711 13.8281-15.791Q12.3633-16.2109 10.8398-15.7617Q10.7227-15.7324 10.6885-15.8057Q10.6543-15.8789 10.752-15.957Z"/>
  </g>
  <text style="stroke:none;fill:black;font-family:sans-serif;font-size:13;font-weight:bold;" transform="matrix(1 0 0 1 1289 1953)">Exporting</text>
  <text style="stroke:none;fill:black;font-family:sans-serif;font-size:13;" transform="matrix(1 0 0 1 1289 1971)">Symbols should be outlined when exporting to ensure the</text>
  <text style="stroke:none;fill:black;font-family:sans-serif;font-size:13;" transform="matrix(1 0 0 1 1289 1989)">design is preserved when submitting to Xcode.</text>
  <text id="template-version" style="stroke:none;fill:black;font-family:sans-serif;font-size:13;text-anchor:end;" transform="matrix(1 0 0 1 3036 1933)">Template v.3.0</text>
  <text style="stroke:none;fill:black;font-family:sans-serif;font-size:13;text-anchor:end;" transform="matrix(1 0 0 1 3036 1951)">Requires Xcode 13 or greater</text>
  <text id="descriptive-name" style="stroke:none;fill:black;font-family:sans-serif;font-size:13;text-anchor:end;" transform="matrix(1 0 0 1 3036 1969)">Generated from figure.walk</text>
  <text style="stroke:none;fill:black;font-family:sans-serif;font-size:13;text-anchor:end;" transform="matrix(1 0 0 1 3036 1987)">Typeset at 100 points</text>
  <text style="stroke:none;fill:black;font-family:sans-serif;font-size:13;" transform="matrix(1 0 0 1 263 726)">Small</text>
  <text style="stroke:none;fill:black;font-family:sans-serif;font-size:13;" transform="matrix(1 0 0 1 263 1156)">Medium</text>
  <text style="stroke:none;fill:black;font-family:sans-serif;font-size:13;" transform="matrix(1 0 0 1 263 1586)">Large</text>
 </g>
 <g id="Guides">
  <g id="H-reference" style="fill:#27AAE1;stroke:none;" transform="matrix(1 0 0 1 339 696)">
   <path d="M0.993347 0L3.6377 0L29.3282-67.1326L30.0301-67.1326L30.0301-70.459L28.1227-70.459ZM11.6882-24.4797L46.9818-24.4797L46.2311-26.7288L12.4382-26.7288ZM55.1193 0L57.7637 0L30.6381-70.459L29.4327-70.459L29.4327-67.1326Z"/>
  </g>
  <line id="Baseline-S" style="fill:none;stroke:#27AAE1;opacity:1;stroke-width:0.5;" x1="263" x2="3036" y1="696" y2="696"/>
  <line id="Capline-S" style="fill:none;stroke:#27AAE1;opacity:1;stroke-width:0.5;" x1="263" x2="3036" y1="625.541" y2="625.541"/>
  <g id="H-reference" style="fill:#27AAE1;stroke:none;" transform="matrix(1 0 0 1 339 1126)">
   <path d="M0.993347 0L3.6377 0L29.3282-67.1326L30.0301-67.1326L30.0301-70.459L28.1227-70.459ZM11.6882-24.4797L46.9818-24.4797L46.2311-26.7288L12.4382-26.7288ZM55.1193 0L57.7637 0L30.6381-70.459L29.4327-70.459L29.4327-67.1326Z"/>
  </g>
  <line id="Baseline-M" style="fill:none;stroke:#27AAE1;opacity:1;stroke-width:0.5;" x1="263" x2="3036" y1="1126" y2="1126"/>
  <line id="Capline-M" style="fill:none;stroke:#27AAE1;opacity:1;stroke-width:0.5;" x1="263" x2="3036" y1="1055.54" y2="1055.54"/>
  <g id="H-reference" style="fill:#27AAE1;stroke:none;" transform="matrix(1 0 0 1 339 1556)">
   <path d="M0.993347 0L3.6377 0L29.3282-67.1326L30.0301-67.1326L30.0301-70.459L28.1227-70.459ZM11.6882-24.4797L46.9818-24.4797L46.2311-26.7288L12.4382-26.7288ZM55.1193 0L57.7637 0L30.6381-70.459L29.4327-70.459L29.4327-67.1326Z"/>
  </g>
  <line id="Baseline-L" style="fill:none;stroke:#27AAE1;opacity:1;stroke-width:0.5;" x1="263" x2="3036" y1="1556" y2="1556"/>
  <line id="Capline-L" style="fill:none;stroke:#27AAE1;opacity:1;stroke-width:0.5;" x1="263" x2="3036" y1="1485.54" y2="1485.54"/>
  <line id="left-margin-Regular-M" style="fill:none;stroke:#00AEEF;stroke-width:0.5;opacity:1.0;" x1="1402.59" x2="1402.59" y1="1030.79" y2="1150.12"/>
  <line id="right-margin-Regular-M" style="fill:none;stroke:#00AEEF;stroke-width:0.5;opacity:1.0;" x1="1497.1" x2="1497.1" y1="1030.79" y2="1150.12"/>
 </g>
 <g id="Symbols">
  <g id="Black-L" transform="matrix(1 0 0 1 2865.44 1556)">
   <path d="M90.1987 45.4276Q93.6215 45.4276 96.0852 43.2111Q98.549 40.9946 98.549 37.4102Q98.549 35.1048 97.2623 32.4873L82.1776 2.07428Q81.0021-0.254614 79.9494-1.95062Q78.8968-3.64663 77.9341-4.95297L69.6945-16.7079L70.081-17.9855Q71.9051-24.0865 72.6801-28.4505Q73.4551-32.8146 73.8363-38.2707L75.3191-58.1256Q75.9184-66.1091 71.5198-71.8398Q67.1212-77.5705 58.3559-77.5705Q52.5625-77.5705 47.1974-74.6894Q41.8322-71.8083 36.2305-66.2482L25.1858-55.306Q22.38-52.5001 21.2773-49.9543Q20.1746-47.4085 19.875-43.8812L18.4934-27.3436Q18.1938-23.6071 20.1204-21.3484Q22.0471-19.0897 25.3439-18.8716Q28.6366-18.6512 30.8927-20.5486Q33.1488-22.4461 33.4693-26.4226L34.9157-44.2242L41.34-49.8651Q42.261-50.7057 43.3026-50.2964Q44.3443-49.8871 44.2055-48.4848L43.0212-32.2581Q42.5618-26.1454 44.9684-21.5759Q47.3749-17.0064 50.3624-13.1795L64.7319 4.87807Q65.7166 6.10399 66.0972 6.77715Q66.4779 7.4503 66.9968 8.50895L82.6013 40.194Q83.9221 42.9159 85.9505 44.1718Q87.979 45.4276 90.1987 45.4276ZM24.2578 45.4276Q28.0187 45.4276 30.9041 41.9649L52.7589 15.9239Q54.5593 13.7446 55.186 12.6172Q55.8128 11.4897 56.3953 9.54646Q56.6466 8.71743 56.8837 7.92022Q57.1208 7.12301 57.2696 6.37558L43.8289-10.3775L40.2749 5.57277L18.7871 30.9274Q17.4808 32.4542 16.7824 34.007Q16.084 35.5598 16.084 37.255Q16.084 40.6686 18.5141 43.0481Q20.9443 45.4276 24.2578 45.4276ZM94.324-34.0918L111.775-34.0918Q115.628-34.0918 117.73-36.1767Q119.831-38.2616 119.831-41.5595Q119.89-44.9159 117.73-47.021Q115.57-49.1261 111.658-49.1261L93.9078-49.1261L81.8911-61.6966L80.5316-42.1712L85.4275-37.2194Q87.2319-35.3577 89.2154-34.7248Q91.1988-34.0918 94.324-34.0918ZM67.6341-83.5712Q74.3645-83.5712 79.1509-88.3685Q83.9372-93.1659 83.9372-99.6563Q83.9372-106.445 79.1509-111.213Q74.3645-115.981 67.6341-115.981Q60.9245-115.981 56.2367-111.213Q51.549-106.445 51.549-99.6563Q51.549-93.1659 56.2367-88.3685Q60.9245-83.5712 67.6341-83.5712Z"/>
  </g>
  <g id="Heavy-L" transform="matrix(1 0 0 1 2570.43 1556)">
   <path d="M88.1639 43.6189Q91.3484 43.6189 93.684 41.5054Q96.0196 39.392 96.0196 35.8941Q96.0196 33.6203 94.7328 30.9753L80.1521 1.56134Q79.0499-0.60711 78.018-2.28244Q76.986-3.95777 76.0322-5.26907L67.7915-17.0068L68.2149-18.3721Q70.012-24.2575 70.7939-28.498Q71.5758-32.7385 71.9476-38.1219L73.3985-57.8229Q73.9702-65.55 69.7293-71.0814Q65.4883-76.6128 57.1163-76.6128Q51.4326-76.6128 46.368-73.7495Q41.3033-70.8863 35.8847-65.5281L25.0502-54.8098Q22.3038-52.0635 21.2193-49.5656Q20.1349-47.0678 19.849-43.6089L18.5088-27.2587Q18.2229-23.6685 20.0627-21.4919Q21.9026-19.3153 25.0764-19.1154Q28.2042-18.9044 30.355-20.7219Q32.5058-22.5393 32.8218-26.3653L34.2638-44.0842L40.6-49.6463Q41.4934-50.4593 42.5075-50.0707Q43.5215-49.6821 43.3965-48.3118L42.226-32.2328Q41.7848-26.2386 44.0814-21.7629Q46.3779-17.2872 49.3152-13.5425L63.3875 4.14953Q64.3771 5.3804 64.7462 6.04886Q65.1153 6.71731 65.6067 7.73023L80.8313 38.6047Q82.1156 41.2538 84.0687 42.4363Q86.0219 43.6189 88.1639 43.6189ZM23.8001 43.6189Q27.4375 43.6189 30.1117 40.4086L51.4498 14.9897Q53.1763 12.9025 53.762 11.8299Q54.3477 10.7573 54.9352 8.85977Q55.2504 7.88515 55.5192 6.95861Q55.788 6.03206 55.9871 5.14342L43.1413-10.8547L39.6242 5.07411L18.861 29.6078Q17.5497 31.1302 16.8168 32.6463Q16.084 34.1623 16.084 35.9084Q16.084 39.1713 18.363 41.3951Q20.6421 43.6189 23.8001 43.6189ZM91.9186-34.2507L108.653-34.2507Q112.333-34.2507 114.38-36.2255Q116.427-38.2004 116.427-41.3799Q116.471-44.6038 114.38-46.6061Q112.288-48.6083 108.564-48.6083L91.3966-48.6083L79.645-61.0014L78.3406-42.2254L83.214-37.3187Q84.9864-35.5072 86.9241-34.879Q88.8618-34.2507 91.9186-34.2507ZM65.9517-82.4457Q72.5364-82.4457 77.2064-87.1336Q81.8765-91.8215 81.8765-98.1707Q81.8765-104.8 77.2064-109.466Q72.5364-114.131 65.9517-114.131Q59.397-114.131 54.8118-109.466Q50.2267-104.8 50.2267-98.1707Q50.2267-91.8215 54.8118-87.1336Q59.397-82.4457 65.9517-82.4457Z"/>
  </g>
  <g id="Bold-L" transform="matrix(1 0 0 1 2275.73 1556)">
   <path d="M85.7404 41.4349Q88.6477 41.4349 90.8332 39.4408Q93.0187 37.4467 93.0187 34.0564Q93.0187 31.8285 91.732 29.1527L77.7365 0.893854Q76.7189-1.08975 75.7101-2.74195Q74.7013-4.39416 73.7627-5.70564L65.537-17.4055L65.999-18.8634Q67.7578-24.5023 68.5474-28.5966Q69.337-32.6909 69.701-37.9821L71.1135-57.4761Q71.6544-64.9031 67.6019-70.2035Q63.5494-75.5039 55.6467-75.5039Q50.0937-75.5039 45.3719-72.6674Q40.6501-69.8309 35.447-64.7037L24.8663-54.2547Q22.1891-51.5777 21.1277-49.1375Q20.0663-46.6973 19.7958-43.3231L18.5019-27.1959Q18.2314-23.7825 19.9674-21.7059Q21.7034-19.6293 24.7236-19.4524Q27.6589-19.2492 29.6866-20.9705Q31.7142-22.6918 32.0225-26.3333L33.457-43.9597L39.7079-49.4443Q40.5705-50.2265 41.5538-49.861Q42.537-49.4955 42.4274-48.1637L41.2723-32.2393Q40.8541-26.3911 43.0235-22.027Q45.1929-17.6628 48.0688-14.0181L61.7871 3.23553Q62.7769 4.46659 63.1345 5.13111Q63.492 5.79563 63.9525 6.75474L78.7307 36.6823Q79.969 39.2392 81.8298 40.3371Q83.6907 41.4349 85.7404 41.4349ZM23.2614 41.4349Q26.7525 41.4349 29.1879 38.5097L49.9104 13.8296Q51.5596 11.8426 52.0953 10.8354Q52.6311 9.82828 53.2188 7.98454Q53.611 6.82564 53.9219 5.73034Q54.2329 4.63504 54.4935 3.56968L42.348-11.5359L38.8696 4.41456L18.9383 28.0084Q17.6268 29.5233 16.8554 30.9969Q16.084 32.4706 16.084 34.2708Q16.084 37.3492 18.186 39.392Q20.288 41.4349 23.2614 41.4349ZM89.0566-34.4579L104.982-34.4579Q108.454-34.4579 110.432-36.3056Q112.41-38.1534 112.41-41.1869Q112.439-44.2494 110.432-46.1286Q108.425-48.0077 104.923-48.0077L88.4187-48.0077L76.9156-60.2451L75.6729-42.369L80.5827-37.4565Q82.3166-35.7065 84.2004-35.0822Q86.0842-34.4579 89.0566-34.4579ZM63.9438-81.1145Q70.3442-81.1145 74.872-85.6678Q79.3999-90.2211 79.3999-96.3938Q79.3999-102.824 74.872-107.362Q70.3442-111.901 63.9438-111.901Q57.5812-111.901 53.1228-107.362Q48.6645-102.824 48.6645-96.3938Q48.6645-90.2211 53.1228-85.6678Q57.5812-81.1145 63.9438-81.1145Z"/>
  </g>
  <g id="Semibold-L" transform="matrix(1 0 0 1 1980.4 1556)">
   <path d="M84.0696 39.9293Q86.7859 39.9293 88.8679 38.0174Q90.95 36.1056 90.95 32.7894Q90.95 30.5933 89.6633 27.8962L76.0711 0.433696Q75.112-1.42248 74.1191-3.05874Q73.1262-4.69499 72.1981-6.00661L63.9827-17.6803L64.4713-19.2021Q66.2038-24.6711 66.9988-28.6646Q67.7937-32.6581 68.1522-37.8858L69.5382-57.2371Q70.0579-64.4572 66.1353-69.5983Q62.2126-74.7395 54.6335-74.7395Q49.1706-74.7395 44.6852-71.9214Q40.1998-69.1033 35.1452-64.1354L24.7395-53.872Q22.1101-51.2429 21.0645-48.8424Q20.019-46.4419 19.7591-43.126L18.4971-27.1526Q18.2373-23.8612 19.9017-21.8535Q21.5662-19.8457 24.4804-19.6847Q27.283-19.4869 29.2257-21.1419Q31.1685-22.7969 31.4715-26.3113L32.9008-43.8738L39.0929-49.3051Q39.9343-50.066 40.8963-49.7164Q41.8582-49.3669 41.7592-48.0617L40.6148-32.2438Q40.2124-26.4962 42.2942-22.209Q44.376-17.9218 47.2095-14.346L60.6839 2.60542Q61.6738 3.83662 62.0234 4.49842Q62.373 5.16023 62.8122 6.08225L77.2826 35.357Q78.4891 37.8504 80.2864 38.8898Q82.0836 39.9293 84.0696 39.9293ZM22.89 39.9293Q26.2802 39.9293 28.551 37.2007L48.8491 13.0298Q50.4451 11.1119 50.9464 10.1498Q51.4477 9.1878 52.0355 7.38116Q52.4807 6.09523 52.8208 4.88359Q53.1609 3.67195 53.4638 2.48475L41.8011-12.0054L38.3494 3.95987L18.9916 26.9058Q17.6799 28.4155 16.882 29.8599Q16.084 31.3044 16.084 33.1419Q16.084 36.093 18.0639 38.0111Q20.0439 39.9293 22.89 39.9293ZM87.0835-34.6007L102.451-34.6007Q105.78-34.6007 107.71-36.3608Q109.64-38.121 109.64-41.0539Q109.659-44.005 107.71-45.7994Q105.761-47.5937 102.414-47.5937L86.3658-47.5937L75.0339-59.7237L73.8337-42.468L78.7687-37.5515Q80.476-35.8439 82.3227-35.2223Q84.1694-34.6007 87.0835-34.6007ZM62.5597-80.1967Q68.8329-80.1967 73.2627-84.6573Q77.6926-89.1179 77.6926-95.1688Q77.6926-101.461 73.2627-105.912Q68.8329-110.364 62.5597-110.364Q56.3293-110.364 51.9584-105.912Q47.5875-101.461 47.5875-95.1688Q47.5875-89.1179 51.9584-84.6573Q56.3293-80.1967 62.5597-80.1967Z"/>
  </g>
  <g id="Medium-L" transform="matrix(1 0 0 1 1684.74 1556)">
   <path d="M82.8028 38.7876Q85.3742 38.7876 87.3778 36.9382Q89.3814 35.0887 89.3814 31.8288Q89.3814 29.6567 88.0947 26.9435L74.8084 0.0847858Q73.8935-1.67477 72.9127-3.29893Q71.9319-4.9231 71.0117-6.23482L62.8042-17.8887L63.313-19.459Q65.0255-24.799 65.8245-28.7162Q66.6234-32.6333 66.9779-37.8128L68.3438-57.0559Q68.8473-64.119 65.0232-69.1394Q61.1991-74.1598 53.8652-74.1598Q48.4707-74.1598 44.1645-71.3557Q39.8584-68.5516 34.9164-63.7045L24.6434-53.5818Q22.0501-50.989 21.0166-48.6186Q19.9831-46.2483 19.7313-42.9766L18.4935-27.1198Q18.2417-23.9208 19.8519-21.9654Q21.4621-20.0099 24.2961-19.8608Q26.998-19.6672 28.8763-21.2719Q30.7547-22.8766 31.0537-26.2946L32.479-43.8088L38.6267-49.1995Q39.4519-49.9443 40.3977-49.6068Q41.3436-49.2694 41.2527-47.9843L40.1163-32.2473Q39.7259-26.5759 41.7413-22.3471Q43.7566-18.1182 46.558-14.5947L59.8474 2.12765Q60.8374 3.35894 61.1809 4.01869Q61.5244 4.67844 61.9475 5.57233L76.1846 34.3521Q77.367 36.7973 79.116 37.7925Q80.865 38.7876 82.8028 38.7876ZM22.6084 38.7876Q25.9222 38.7876 28.0681 36.2081L48.0444 12.4233Q49.6 10.5579 50.0752 9.63001Q50.5504 8.70217 51.1383 6.92366Q51.6237 5.5414 51.9859 4.24154Q52.348 2.94169 52.6831 1.66212L41.3864-12.3615L37.955 3.6151L19.032 26.0698Q17.7202 27.5755 16.9021 28.9978Q16.084 30.4201 16.084 32.2859Q16.084 35.1405 17.9714 36.9641Q19.8588 38.7876 22.6084 38.7876ZM85.5874-34.709L100.532-34.709Q103.752-34.709 105.646-36.4027Q107.54-38.0964 107.54-40.953Q107.551-43.8198 105.646-45.5497Q103.741-47.2797 100.511-47.2797L84.8092-47.2797L73.6072-59.3283L72.4392-42.5431L77.3932-37.6235Q79.0804-35.9481 80.8989-35.3286Q82.7175-34.709 85.5874-34.709ZM61.5101-79.5008Q67.687-79.5008 72.0425-83.8911Q76.398-88.2814 76.398-94.24Q76.398-100.428 72.0425-104.813Q67.687-109.198 61.5101-109.198Q55.3802-109.198 51.0756-104.813Q46.771-100.428 46.771-94.24Q46.771-88.2814 51.0756-83.8911Q55.3802-79.5008 61.5101-79.5008Z"/>
  </g>
  <g id="Regular-L" transform="matrix(1 0 0 1 1389.4 1556)">
   <path d="M81.1504 37.2986Q83.5328 37.2986 85.4341 35.5305Q87.3354 33.7624 87.3354 30.5758Q87.3354 28.4351 86.0486 25.7008L73.1614-0.370315Q72.3042-2.00384 71.3391-3.61224Q70.3741-5.22064 69.4644-6.53248L61.267-18.1604L61.8021-19.794Q63.4886-24.966 64.2928-28.7834Q65.097-32.6008 65.4461-37.7175L66.7858-56.8195Q67.2684-63.678 63.5727-68.5409Q59.8771-73.4038 52.8632-73.4038Q47.5578-73.4038 43.4854-70.6179Q39.413-67.832 34.618-63.1425L24.518-53.2033Q21.972-50.6578 20.9542-48.3268Q19.9363-45.9957 19.6951-42.7817L18.4888-27.077Q18.2475-23.9986 19.7869-22.1113Q21.3263-20.2239 24.0555-20.0905Q26.6262-19.9023 28.4206-21.4414Q30.215-22.9806 30.5088-26.2728L31.9289-43.7239L38.0184-49.0618Q38.8226-49.7855 39.7475-49.4639Q40.6723-49.1422 40.5919-47.8834L39.466-32.2517Q39.0913-26.6799 41.02-22.5271Q42.9487-18.3743 45.7081-14.919L58.7562 1.50447Q59.7464 2.73589 60.082 3.39296Q60.4176 4.05003 60.8197 4.90723L74.7525 33.0414Q75.9035 35.4238 77.5895 36.3612Q79.2756 37.2986 81.1504 37.2986ZM22.2411 37.2986Q25.4551 37.2986 27.4382 34.9134L46.9948 11.6323Q48.4977 9.83521 48.9389 8.95197Q49.38 8.06873 49.9681 6.32691Q50.5059 4.81901 50.8968 3.40409Q51.2877 1.98917 51.6647 0.58911L40.8455-12.8259L37.4405 3.16541L19.0846 24.9793Q17.7728 26.4798 16.9284 27.8733Q16.084 29.2667 16.084 31.1693Q16.084 33.8981 17.8507 35.5983Q19.6174 37.2986 22.2411 37.2986ZM83.636-34.8503L98.0285-34.8503Q101.107-34.8503 102.954-36.4573Q104.801-38.0643 104.801-40.8214Q104.801-43.5781 102.954-45.2242Q101.107-46.8702 98.0285-46.8702L82.7788-46.8702L71.7462-58.8127L70.6203-42.641L75.5991-37.7175Q77.26-36.084 79.0418-35.4671Q80.8236-34.8503 83.636-34.8503ZM60.1412-78.5931Q66.1923-78.5931 70.4508-82.8917Q74.7094-87.1902 74.7094-93.0284Q74.7094-99.08 70.4508-103.379Q66.1923-107.677 60.1412-107.677Q54.1421-107.677 49.924-103.379Q45.7058-99.08 45.7058-93.0284Q45.7058-87.1902 49.924-82.8917Q54.1421-78.5931 60.1412-78.5931Z"/>
  </g>
  <g id="Light-L" transform="matrix(1 0 0 1 1093.44 1556)">
   <path d="M80.1005 36.1535Q82.4066 36.1535 84.2603 34.4139Q86.114 32.6744 86.114 29.5641Q86.114 27.5 84.8273 24.7657L72.0926-1.03824Q71.2543-2.63361 70.2893-4.242Q69.3243-5.8504 68.4527-7.12409L60.3702-18.6183L60.886-20.2137Q62.5154-25.3475 63.3196-29.1077Q64.1238-32.8679 64.4918-37.9083L65.8126-56.7621Q66.2952-63.5254 62.6853-68.331Q59.0754-73.1367 52.2716-73.1367Q47.0232-73.1367 42.9986-70.3984Q38.974-67.6601 34.2553-63.0088L24.289-53.2033Q21.7619-50.677 20.7632-48.3745Q19.7645-46.072 19.5232-42.9154L18.3169-27.3059Q18.0756-24.3231 19.5674-22.493Q21.0592-20.6629 23.674-20.5484Q26.1872-20.3412 27.9435-21.8326Q29.6997-23.324 29.9742-26.5017L31.3754-43.9528L37.5605-49.367Q38.3647-50.0908 39.2896-49.7691Q40.2144-49.4475 40.134-48.2079L39.0081-32.4999Q38.6523-27.0233 40.5523-22.9183Q42.4523-18.8133 45.1736-15.4154L58.0691 0.798384Q59.0211 1.99165 59.3663 2.65818Q59.7115 3.3247 60.1136 4.16299L73.8937 32.0108Q75.0066 34.3169 76.6352 35.2352Q78.2639 36.1535 80.1005 36.1535ZM22.0503 36.1535Q25.207 36.1535 27.1711 33.7872L46.4603 10.8118Q48.0013 8.99542 48.4139 8.14087Q48.8266 7.28633 49.3765 5.56343Q49.9524 3.9029 50.3911 2.31627Q50.8298 0.729638 51.245-0.804139L40.6736-13.8757L37.2497 2.44008L19.0465 24.1013Q17.7728 25.583 16.9284 26.9668Q16.084 28.3506 16.084 30.2343Q16.084 32.8483 17.7935 34.5009Q19.5029 36.1535 22.0503 36.1535ZM82.4147-35.0603L96.7497-35.0603Q99.7332-35.0603 101.523-36.6386Q103.312-38.217 103.312-40.8788Q103.312-43.5399 101.523-45.1288Q99.7332-46.7176 96.7497-46.7176L81.5764-46.7176L70.2003-58.9653L69.0744-43.2326L74.4922-37.9083Q76.1339-36.3129 77.8966-35.6866Q79.6593-35.0603 82.4147-35.0603ZM59.2443-78.0778Q65.1424-78.0778 69.3152-82.2904Q73.4881-86.5031 73.4881-92.2079Q73.4881-98.1068 69.3152-102.319Q65.1424-106.532 59.2443-106.532Q53.3786-106.532 49.2464-102.319Q45.1142-98.1068 45.1142-92.2079Q45.1142-86.5031 49.2464-82.2904Q53.3786-78.0778 59.2443-78.0778Z"/>
  </g>
  <g id="Thin-L" transform="matrix(1 0 0 1 797.708 1556)">
   <path d="M78.7121 34.6391Q80.9172 34.6391 82.7079 32.9373Q84.4986 31.2354 84.4986 28.2261Q84.4986 26.2634 83.2119 23.5291L70.6791-1.92163Q69.8659-3.46652 68.9008-5.07492Q67.9358-6.68332 67.1147-7.90654L59.184-19.2239L59.6743-20.7688Q61.2283-25.8522 62.0325-29.5367Q62.8367-33.2212 63.2297-38.1606L64.5255-56.6862Q65.008-63.3235 61.5116-68.0535Q58.0152-72.7834 51.4891-72.7834Q46.3163-72.7834 42.3549-70.1081Q38.3934-67.4328 33.7757-62.8319L23.9862-53.2033Q21.4842-50.7025 20.5107-48.4377Q19.5372-46.173 19.2959-43.0922L18.0896-27.6087Q17.8483-24.7523 19.2771-22.9979Q20.7059-21.2435 23.1693-21.154Q25.6067-20.9218 27.3124-22.35Q29.0181-23.7782 29.2673-26.8045L30.6435-44.2556L36.9549-49.7708Q37.7591-50.4946 38.684-50.1729Q39.6088-49.8512 39.5284-48.637L38.4025-32.8282Q38.0718-27.4775 39.9338-23.4357Q41.7958-19.3938 44.4666-16.0719L57.1602-0.135469Q58.0618 1.00733 58.4197 1.68637Q58.7777 2.3654 59.1798 3.17867L72.758 30.6477Q73.8204 32.8529 75.3731 33.746Q76.9259 34.6391 78.7121 34.6391ZM21.798 34.6391Q24.8787 34.6391 26.8179 32.2978L45.7533 9.72652Q47.3448 7.88472 47.7197 7.06813Q48.0946 6.25154 48.594 4.55366Q49.2205 2.69126 49.7223 0.877531Q50.2242-0.936199 50.6898-2.64682L40.4463-15.2642L36.9973 1.48078L18.996 22.9402Q17.7728 24.3968 16.9284 25.7679Q16.084 27.1389 16.084 28.9976Q16.084 31.4598 17.7178 33.0494Q19.3515 34.6391 21.798 34.6391ZM80.7993-35.3381L95.0584-35.3381Q97.916-35.3381 99.6296-36.8785Q101.343-38.4188 101.343-40.9547Q101.343-43.4895 99.6296-45.0026Q97.916-46.5157 95.0584-46.5157L79.986-46.5157L68.1557-59.1672L67.0299-44.0151L73.0282-38.1606Q74.6445-36.6157 76.382-35.9769Q78.1195-35.3381 80.7993-35.3381ZM58.0581-77.3963Q63.754-77.3963 67.8133-81.4953Q71.8727-85.5942 71.8727-91.1226Q71.8727-96.8197 67.8133-100.919Q63.754-105.018 58.0581-105.018Q52.3689-105.018 48.3503-100.919Q44.3318-96.8197 44.3318-91.1226Q44.3318-85.5942 48.3503-81.4953Q52.3689-77.3963 58.0581-77.3963Z"/>
  </g>
  <g id="Ultralight-L" transform="matrix(1 0 0 1 501.501 1556)">
   <path d="M78.0009 33.8634Q80.1544 33.8634 81.9128 32.1809Q83.6712 30.4984 83.6712 27.5407Q83.6712 25.63 82.3845 22.8957L69.9551-2.37409Q69.1547-3.89314 68.1897-5.50154Q67.2246-7.10994 66.4293-8.30731L58.5764-19.5341L59.0537-21.0532Q60.569-26.1107 61.3732-29.7564Q62.1774-33.4021 62.5833-38.2899L63.8663-56.6473Q64.3488-63.2201 60.9105-67.9113Q57.4721-72.6025 51.0884-72.6025Q45.9542-72.6025 42.0251-69.9594Q38.0961-67.3164 33.53-62.7413L23.8311-53.2033Q21.3419-50.7155 20.3813-48.4701Q19.4207-46.2247 19.1795-43.1828L17.9732-27.7638Q17.7319-24.9721 19.1285-23.2565Q20.525-21.5409 22.9108-21.4642Q25.3093-21.2192 26.9892-22.615Q28.6691-24.0109 28.9052-26.9596L30.2685-44.4107L36.6448-49.9776Q37.449-50.7013 38.3738-50.3797Q39.2986-50.058 39.2182-48.8569L38.0923-32.9963Q37.7744-27.7102 39.617-23.7007Q41.4596-19.6912 44.1045-16.4081L56.6947-0.613784Q57.5704 0.503166 57.9349 1.18861Q58.2994 1.87406 58.7015 2.6745L72.1763 29.9496Q73.2128 32.1031 74.7267 32.9832Q76.2406 33.8634 78.0009 33.8634ZM21.6687 33.8634Q24.7106 33.8634 26.6369 31.535L45.3912 9.17066Q47.0086 7.31582 47.3641 6.51868Q47.7197 5.72153 48.1933 4.03646Q48.8455 2.07067 49.3798 0.140618Q49.914-1.78943 50.4055-3.59064L40.3299-15.9754L36.8681 0.989437L18.9702 22.3454Q17.7728 23.7892 16.9284 25.1538Q16.084 26.5183 16.084 28.3642Q16.084 30.7486 17.679 32.306Q19.274 33.8634 21.6687 33.8634ZM79.9719-35.4804L94.1921-35.4804Q96.9852-35.4804 98.6599-37.0013Q100.335-38.5222 100.335-40.9936Q100.335-43.4636 98.6599-44.938Q96.9852-46.4124 94.1921-46.4124L79.1715-46.4124L67.1085-59.2706L65.9827-44.4159L72.2784-38.2899Q73.8816-36.7708 75.6062-36.1256Q77.3307-35.4804 79.9719-35.4804ZM57.4505-77.0472Q63.0428-77.0472 67.044-81.088Q71.0453-85.1287 71.0453-90.5668Q71.0453-96.1604 67.044-100.201Q63.0428-104.242 57.4505-104.242Q51.8517-104.242 47.8913-100.201Q43.931-96.1604 43.931-90.5668Q43.931-85.1287 47.8913-81.088Q51.8517-77.0472 57.4505-77.0472Z"/>
  </g>
  <g id="Black-M" transform="matrix(1 0 0 1 2879.39 1126)">
   <path d="M71.4873 28.6584Q74.3334 28.6584 76.3459 26.8564Q78.3584 25.0545 78.3584 22.2133Q78.3584 20.4106 77.3615 18.4064L65.2623-5.97834Q64.2912-7.91537 63.4579-9.24711Q62.6246-10.5788 61.8764-11.5815L55.5092-20.6852L55.7743-21.5945Q57.203-26.5013 57.7975-29.9807Q58.392-33.4601 58.698-37.7394L59.8717-53.2205Q60.3597-59.613 56.828-64.2164Q53.2963-68.8198 46.196-68.8198Q41.6211-68.8198 37.2127-66.5787Q32.8042-64.3377 28.3174-59.8618L19.5981-51.2101Q17.3757-48.9876 16.5084-46.9779Q15.641-44.9682 15.397-42.1845L14.2912-29.2239Q14.0471-26.2164 15.608-24.4036Q17.1688-22.5909 19.8131-22.4089Q22.4981-22.2274 24.3314-23.7597Q26.1646-25.292 26.4141-28.4867L27.5359-42.3494L32.6018-46.7977Q33.339-47.4727 34.1697-47.1378Q35.0004-46.8029 34.881-45.6916L33.9516-32.9827Q33.5827-28.158 35.5379-24.5437Q37.493-20.9295 39.8455-17.9017L51.2129-3.62602Q51.9663-2.68567 52.2725-2.15883Q52.5786-1.63198 53.0044-0.775062L65.3996 24.4306Q66.449 26.5915 68.0775 27.6249Q69.706 28.6584 71.4873 28.6584ZM19.161 28.6584Q22.1731 28.6584 24.5875 25.7612L41.9272 5.09293Q43.3907 3.32284 43.9077 2.40607Q44.4247 1.48931 44.8666-0.0529669Q45.0115-0.590807 45.1743-1.12055Q45.3372-1.6503 45.4146-2.12611L34.5238-15.7076L31.736-3.28797L14.4865 17.0403Q13.4839 18.2243 12.9724 19.4576Q12.4609 20.6908 12.4609 21.958Q12.4609 24.7165 14.4658 26.6874Q16.4706 28.6584 19.161 28.6584ZM74.9785-34.24L89.1061-34.24Q92.2278-34.24 93.8953-35.9459Q95.5627-37.6518 95.5627-40.2959Q95.6198-42.997 93.8953-44.7085Q92.1707-46.4201 88.9919-46.4201L74.7497-46.4201L65.1654-56.3528L64.0648-40.6411L67.9366-36.7117Q69.3595-35.2314 70.9329-34.7357Q72.5063-34.24 74.9785-34.24ZM53.7234-73.5793Q59.0422-73.5793 62.8388-77.3784Q66.6353-81.1776 66.6353-86.3092Q66.6353-91.6851 62.8388-95.4557Q59.0422-99.2263 53.7234-99.2263Q48.4101-99.2263 44.7018-95.4557Q40.9935-91.6851 40.9935-86.3092Q40.9935-81.1776 44.7018-77.3784Q48.4101-73.5793 53.7234-73.5793Z"/>
  </g>
  <g id="Heavy-M" transform="matrix(1 0 0 1 2584.27 1126)">
   <path d="M69.595 26.9958Q72.2153 26.9958 74.1068 25.292Q75.9984 23.5882 75.9984 20.8247Q75.9984 19.0456 75.0015 17.0145L63.3809-6.41817Q62.4797-8.20186 61.6666-9.51338Q60.8535-10.8249 60.1104-11.8359L53.7317-20.9352L54.0346-21.9337Q55.4422-26.6332 56.0434-29.9972Q56.6446-33.3611 56.9397-37.5763L58.0839-52.9298Q58.545-59.0806 55.1595-63.4944Q51.774-67.9082 45.0388-67.9082Q40.5658-67.9082 36.4468-65.6802Q32.3277-63.4523 28.0128-59.1701L19.4866-50.725Q17.3206-48.559 16.4693-46.5936Q15.618-44.6281 15.3875-41.906L14.322-29.1198Q14.0915-26.2464 15.5718-24.5087Q17.0522-22.7709 19.5869-22.605Q22.1159-22.4345 23.8497-23.893Q25.5835-25.3515 25.8305-28.4096L26.9497-42.1914L31.9206-46.5556Q32.6309-47.2036 33.4346-46.889Q34.2384-46.5743 34.1325-45.4925L33.2166-32.9351Q32.8637-28.2175 34.7139-24.6905Q36.5641-21.1634 38.8711-18.2108L49.962-4.27308Q50.7238-3.32437 51.0178-2.80299Q51.3117-2.28162 51.7105-1.46766L63.7485 22.972Q64.7658 25.0688 66.3259 26.0323Q67.8861 26.9958 69.595 26.9958ZM18.7312 26.9958Q21.6279 26.9958 23.8375 24.3437L40.6968 4.25537Q42.0845 2.57702 42.564 1.71126Q43.0435 0.845498 43.4938-0.653816Q43.6976-1.3199 43.8871-1.96024Q44.0766-2.60057 44.1995-3.2021L33.8674-16.0774L31.1175-3.70854L14.5622 15.8312Q13.5512 17.0127 13.0061 18.211Q12.4609 19.4092 12.4609 20.7278Q12.4609 23.3497 14.3233 25.1727Q16.1857 26.9958 18.7312 26.9958ZM72.7398-34.376L86.1725-34.376Q89.1332-34.376 90.7525-35.9769Q92.3719-37.5779 92.3719-40.1149Q92.4155-42.6955 90.7525-44.3117Q89.0896-45.928 86.0853-45.928L72.4057-45.928L63.1123-55.6591L62.0655-40.6395L65.8749-36.7911Q67.2682-35.3564 68.7987-34.8662Q70.3291-34.376 72.7398-34.376ZM52.1614-72.5266Q57.352-72.5266 61.0427-76.2267Q64.7334-79.9267 64.7334-84.9327Q64.7334-90.1668 61.0427-93.8451Q57.352-97.5233 52.1614-97.5233Q46.9873-97.5233 43.3713-93.8451Q39.7554-90.1668 39.7554-84.9327Q39.7554-79.9267 43.3713-76.2267Q46.9873-72.5266 52.1614-72.5266Z"/>
  </g>
  <g id="Bold-M" transform="matrix(1 0 0 1 2289.35 1126)">
   <path d="M67.4781 25.136Q69.8458 25.136 71.6021 23.5419Q73.3584 21.9479 73.3584 19.2712Q73.3584 17.5188 72.3615 15.4575L61.2763-6.91018Q60.4533-8.52234 59.6628-9.81125Q58.8723-11.1002 58.1349-12.1205L51.7432-21.2148L52.0885-22.3131Q53.4724-26.7809 54.0812-30.0156Q54.69-33.2504 54.9728-37.3939L56.084-52.6047Q56.5149-58.4849 53.2931-62.6866Q50.0712-66.8884 43.7442-66.8884Q39.3853-66.8884 35.59-64.6751Q31.7946-62.4618 27.672-58.3964L19.3618-50.1823Q17.259-48.0796 16.4256-46.1636Q15.5922-44.2476 15.3768-41.5944L14.3566-29.0034Q14.1411-26.28 15.5314-24.6262Q16.9217-22.9724 19.3337-22.8243Q21.6884-22.6661 23.3109-24.0421Q24.9335-25.418 25.1776-28.3233L26.294-42.0147L31.1586-46.2849Q31.8387-46.9027 32.6123-46.6106Q33.3859-46.3186 33.2951-45.2698L32.3943-32.8819Q32.0593-28.284 33.7921-24.8546Q35.525-21.4252 37.781-18.5565L48.5627-4.9969Q49.3338-4.03884 49.6142-3.52359Q49.8945-3.00833 50.2632-2.24242L61.9014 21.3403Q62.8828 23.3654 64.3666 24.2507Q65.8503 25.136 67.4781 25.136ZM18.2504 25.136Q21.0179 25.136 22.9986 22.758L39.3203 3.31843Q40.6234 1.74271 41.0609 0.93401Q41.4984 0.125307 41.958-1.32595Q42.2279-2.1355 42.4472-2.89954Q42.6664-3.66359 42.8403-4.40574L33.1332-16.4909L30.4257-4.179L14.647 14.4787Q13.6266 15.6574 13.0438 16.8165Q12.4609 17.9756 12.4609 19.3516Q12.4609 21.8207 14.164 23.4783Q15.8671 25.136 18.2504 25.136ZM70.2354-34.528L82.8908-34.528Q85.6714-34.528 87.2369-36.0117Q88.8024-37.4953 88.8024-39.9125Q88.831-42.3581 87.2369-43.8678Q85.6429-45.3776 82.8337-45.3776L69.7836-45.3776L60.8156-54.8831L59.8291-40.6378L63.5686-36.88Q64.9289-35.4962 66.4113-35.0121Q67.8936-34.528 70.2354-34.528ZM50.4142-71.349Q55.4612-71.349 59.0336-74.9382Q62.6059-78.5274 62.6059-83.3928Q62.6059-88.4684 59.0336-92.0433Q55.4612-95.6183 50.4142-95.6183Q45.3957-95.6183 41.883-92.0433Q38.3704-88.4684 38.3704-83.3928Q38.3704-78.5274 41.883-74.9382Q45.3957-71.349 50.4142-71.349Z"/>
  </g>
  <g id="Semibold-M" transform="matrix(1 0 0 1 1993.87 1126)">
   <path d="M66.0187 23.8538Q68.2123 23.8538 69.8753 22.3355Q71.5384 20.8171 71.5384 18.2003Q71.5384 16.4661 70.5415 14.3841L59.8253-7.24936Q59.0563-8.74328 58.2814-10.0166Q57.5065-11.2899 56.773-12.3168L50.3724-21.4076L50.7469-22.5747Q52.1145-26.8826 52.7285-30.0284Q53.3424-33.1741 53.6169-37.2681L54.7053-52.3805Q55.1154-58.0742 52.0063-62.1298Q48.8972-66.1853 42.8518-66.1853Q38.5715-66.1853 34.9993-63.9822Q31.4272-61.779 27.4371-57.863L19.2758-49.8082Q17.2165-47.749 16.3955-45.8672Q15.5745-43.9853 15.3694-41.3796L14.3804-28.9232Q14.1753-26.3031 15.5035-24.7072Q16.8318-23.1113 19.1592-22.9755Q21.3936-22.8257 22.9395-24.1448Q24.4854-25.4639 24.7275-28.2638L25.8419-41.8929L30.6333-46.0982Q31.2926-46.6952 32.0455-46.4188Q32.7983-46.1423 32.7178-45.1163L31.8274-32.8452Q31.5048-28.3299 33.1567-24.9678Q34.8087-21.6056 37.0296-18.7948L47.598-5.49591Q48.3756-4.5314 48.6466-4.02036Q48.9175-3.50932 49.2654-2.77654L60.6281 20.2155Q61.5847 22.1911 63.0158 23.0225Q64.4468 23.8538 66.0187 23.8538ZM17.919 23.8538Q20.5974 23.8538 22.4203 21.6649L38.3714 2.67251Q39.6161 1.16755 40.0247 0.398179Q40.4333-0.371188 40.8993-1.78932Q41.2147-2.69777 41.4545-3.5471Q41.6943-4.39643 41.9032-5.23553L32.6271-16.7761L29.9488-4.50333L14.7054 13.5463Q13.6786 14.723 13.0697 15.8551Q12.4609 16.9873 12.4609 18.4029Q12.4609 20.7666 14.0542 22.3102Q15.6475 23.8538 17.919 23.8538ZM68.509-34.6328L80.6284-34.6328Q83.2849-34.6328 84.8133-36.0356Q86.3417-37.4383 86.3417-39.7729Q86.3599-42.1256 84.8133-43.5618Q83.2667-44.9981 80.5921-44.9981L67.9759-44.9981L59.2322-54.3481L58.2873-40.6365L61.9786-36.9413Q63.3162-35.5926 64.7654-35.1127Q66.2146-34.6328 68.509-34.6328ZM49.2096-70.5372Q54.1577-70.5372 57.6485-74.05Q61.1392-77.5628 61.1392-82.3312Q61.1392-87.2975 57.6485-90.8012Q54.1577-94.3049 49.2096-94.3049Q44.2984-94.3049 40.857-90.8012Q37.4156-87.2975 37.4156-82.3312Q37.4156-77.5628 40.857-74.05Q44.2984-70.5372 49.2096-70.5372Z"/>
  </g>
  <g id="Medium-M" transform="matrix(1 0 0 1 1698.09 1126)">
   <path d="M64.9122 22.8816Q66.9737 22.8816 68.566 21.4207Q70.1584 19.9597 70.1584 17.3883Q70.1584 15.668 69.1615 13.5702L58.7252-7.50655Q57.997-8.9108 57.2339-10.1723Q56.4708-11.4338 55.7404-12.4655L49.333-21.5538L49.7296-22.773Q51.0849-26.9598 51.7028-30.038Q52.3207-33.1162 52.5887-37.1727L53.6599-52.2106Q54.0543-57.7629 51.0307-61.7076Q48.0071-65.6522 42.1751-65.6522Q37.9545-65.6522 34.5515-63.4567Q31.1485-61.2613 27.259-57.4586L19.2106-49.5246Q17.1843-47.4984 16.3727-45.6424Q15.561-43.7865 15.3638-41.2167L14.3984-28.8623Q14.2012-26.3207 15.4824-24.7686Q16.7636-23.2166 19.0269-23.0902Q21.1701-22.9468 22.6579-24.2227Q24.1456-25.4987 24.3862-28.2187L25.4991-41.8005L30.235-45.9566Q30.8786-46.5379 31.6156-46.2733Q32.3527-46.0086 32.2801-44.9999L31.3976-32.8174Q31.0843-28.3647 32.6749-25.0536Q34.2655-21.7424 36.4598-18.9755L46.8666-5.87427Q47.649-4.90487 47.9129-4.39703Q48.1767-3.88919 48.5088-3.18153L59.6626 19.3626Q60.6005 21.3007 61.9916 22.0912Q63.3827 22.8816 64.9122 22.8816ZM17.6677 22.8816Q20.2785 22.8816 21.9817 20.836L37.6519 2.18275Q38.8523 0.731431 39.239-0.00811067Q39.6256-0.747652 40.0966-2.14066Q40.4465-3.1241 40.7018-4.0381Q40.9572-4.9521 41.1927-5.86471L32.2433-16.9922L29.5871-4.74926L14.7497 12.8393Q13.7179 14.0145 13.0894 15.1262Q12.4609 16.2379 12.4609 17.6836Q12.4609 19.9673 13.9709 21.4245Q15.4809 22.8816 17.6677 22.8816ZM67.1999-34.7123L78.913-34.7123Q81.4753-34.7123 82.9756-36.0537Q84.4759-37.3951 84.4759-39.6671Q84.4861-41.9492 82.9756-43.3298Q81.465-44.7104 78.8924-44.7104L66.6053-44.7104L58.0316-53.9425L57.1183-40.6356L60.773-36.9877Q62.0933-35.6657 63.5174-35.189Q64.9415-34.7123 67.1999-34.7123ZM48.2963-69.9216Q53.1693-69.9216 56.5982-73.3765Q60.0271-76.8313 60.0271-81.5263Q60.0271-86.4097 56.5982-89.8594Q53.1693-93.3091 48.2963-93.3091Q43.4664-93.3091 40.079-89.8594Q36.6917-86.4097 36.6917-81.5263Q36.6917-76.8313 40.079-73.3765Q43.4664-69.9216 48.2963-69.9216Z"/>
  </g>
  <g id="Regular-M" transform="matrix(1 0 0 1 1402.59 1126)">
   <path d="M63.4688 21.6136Q65.3581 21.6136 66.8582 20.2275Q68.3584 18.8414 68.3584 16.3291Q68.3584 14.6269 67.3615 12.5086L57.2902-7.84201Q56.6153-9.12931 55.8677-10.3754Q55.12-11.6215 54.3934-12.6596L47.9772-21.7445L48.4027-23.0318Q49.7419-27.0605 50.3649-30.0506Q50.988-33.0407 51.2476-37.0483L52.2964-51.9889Q52.6702-57.3567 49.7581-61.1568Q46.8461-64.9569 41.2925-64.9569Q37.1496-64.9569 33.9673-62.7714Q30.7851-60.5859 27.0267-56.9311L19.1256-49.1546Q17.1423-47.1715 16.3429-45.3493Q15.5435-43.5271 15.3565-41.0043L14.422-28.7829Q14.2351-26.3436 15.4548-24.8487Q16.6746-23.3539 18.8543-23.2398Q20.8786-23.1047 22.2905-24.3244Q23.7024-25.5441 23.941-28.1599L25.052-41.68L29.7154-45.772Q30.3385-46.3327 31.055-46.0835Q31.7715-45.8343 31.7092-44.848L30.8369-32.7811Q30.5358-28.4101 32.0464-25.1655Q33.557-21.9209 35.7166-19.2112L45.9125-6.36779Q46.7014-5.39201 46.9559-4.88834Q47.2104-4.38468 47.522-3.70978L58.4032 18.2501Q59.3167 20.1393 60.6556 20.8764Q61.9946 21.6136 63.4688 21.6136ZM17.3398 21.6136Q19.8626 21.6136 21.4098 19.7549L36.7135 1.54392Q37.8561 0.162585 38.2141-0.538053Q38.5722-1.23869 39.0495-2.59894Q39.4444-3.68019 39.7201-4.67854Q39.9957-5.67688 40.266-6.68538L31.7427-17.2742L29.1154-5.07003L14.8074 11.9171Q13.7693 13.0904 13.1151 14.1754Q12.4609 15.2604 12.4609 16.7453Q12.4609 18.9248 13.8623 20.2692Q15.2637 21.6136 17.3398 21.6136ZM65.4924-34.816L76.6755-34.816Q79.115-34.816 80.5786-36.0774Q82.0422-37.3388 82.0422-39.5291Q82.0422-41.7192 80.5786-43.0271Q79.115-44.3351 76.6755-44.3351L64.8175-44.3351L56.4657-53.4134L55.5934-40.6344L59.2006-37.0483Q60.4983-35.761 61.8896-35.2885Q63.2809-34.816 65.4924-34.816ZM47.105-69.1187Q51.8802-69.1187 55.2284-72.498Q58.5765-75.8772 58.5765-80.4763Q58.5765-85.2517 55.2284-88.631Q51.8802-92.0102 47.105-92.0102Q42.3812-92.0102 39.0643-88.631Q35.7474-85.2517 35.7474-80.4763Q35.7474-75.8772 39.0643-72.498Q42.3812-69.1187 47.105-69.1187Z"/>
  </g>
  <g id="Light-M" transform="matrix(1 0 0 1 1106.55 1126)">
   <path d="M62.5276 20.5869Q64.3484 20.5869 65.8059 19.2265Q67.2633 17.866 67.2633 15.4221Q67.2633 13.7886 66.2665 11.6703L56.332-8.44084Q55.6741-9.69393 54.9264-10.94Q54.1788-12.1861 53.4864-13.19L47.1731-22.155L47.5814-23.4081Q48.8694-27.4026 49.4924-30.3414Q50.1154-33.2802 50.3921-37.2194L51.4238-51.9374Q51.7977-57.2199 48.9625-60.9687Q46.1274-64.7174 40.7621-64.7174Q36.6704-64.7174 33.5309-62.5746Q30.3915-60.4318 26.7015-56.8112L18.9203-49.1546Q16.954-47.1887 16.1717-45.3921Q15.3894-43.5955 15.2025-41.1242L14.2679-28.9882Q14.081-26.6345 15.258-25.191Q16.4351-23.7475 18.5122-23.6503Q20.485-23.4983 21.8627-24.6751Q23.2404-25.852 23.4618-28.3651L24.5558-41.8853L29.3049-46.0457Q29.9279-46.6064 30.6444-46.3572Q31.3609-46.108 31.2986-45.139L30.4264-33.0036Q30.1423-28.718 31.6271-25.5162Q33.112-22.3145 35.2374-19.6563L45.2964-7.00083Q46.0511-6.05926 46.3142-5.54711Q46.5774-5.03497 46.8889-4.37704L57.6333 17.3261Q58.5126 19.1469 59.8001 19.8669Q61.0876 20.5869 62.5276 20.5869ZM17.1688 20.5869Q19.6401 20.5869 21.1703 18.7452L36.2342 0.808252Q37.411-0.590337 37.7435-1.26525Q38.076-1.94015 38.5191-3.28344Q38.9482-4.50153 39.2667-5.65383Q39.5852-6.80612 39.8897-7.9345L31.5886-18.2155L28.9444-5.72032L14.7732 11.1299Q13.7693 12.2863 13.1151 13.3627Q12.4609 14.4391 12.4609 15.907Q12.4609 17.9836 13.811 19.2853Q15.161 20.5869 17.1688 20.5869ZM64.3973-35.0043L75.529-35.0043Q77.8831-35.0043 79.2953-36.24Q80.7074-37.4756 80.7074-39.5806Q80.7074-41.685 79.2953-42.9416Q77.8831-44.1982 75.529-44.1982L63.7394-44.1982L55.0797-53.5502L54.2075-41.1648L58.2082-37.2194Q59.4887-35.9663 60.8629-35.4853Q62.2371-35.0043 64.3973-35.0043ZM46.3009-68.6568Q50.9389-68.6568 54.2102-71.959Q57.4815-75.2612 57.4815-79.7407Q57.4815-84.3792 54.2102-87.6814Q50.9389-90.9836 46.3009-90.9836Q41.6967-90.9836 38.4568-87.6814Q35.2169-84.3792 35.2169-79.7407Q35.2169-75.2612 38.4568-71.959Q41.6967-68.6568 46.3009-68.6568Z"/>
  </g>
  <g id="Thin-M" transform="matrix(1 0 0 1 810.721 1126)">
   <path d="M61.2828 19.2292Q63.0131 19.2292 64.4141 17.9025Q65.8151 16.5759 65.8151 14.2225Q65.8151 12.6799 64.8182 10.5615L55.0647-9.23284Q54.4293-10.4407 53.6816-11.6868Q52.9339-12.9329 52.2868-13.8915L46.1096-22.6979L46.4951-23.9058Q47.7154-27.855 48.3384-30.726Q48.9615-33.5969 49.2605-37.4456L50.2699-51.8694Q50.6437-57.0389 47.9103-60.7198Q45.1768-64.4007 40.0606-64.4007Q36.0365-64.4007 32.9538-62.3144Q29.871-60.228 26.2715-56.6526L18.6488-49.1546Q16.7049-47.2115 15.9453-45.4488Q15.1856-43.686 14.9987-41.2827L14.0641-29.2597Q13.8772-27.0193 14.9978-25.6436Q16.1184-24.268 18.0597-24.1932Q19.9645-24.0188 21.297-25.139Q22.6294-26.2592 22.8279-28.6366L23.8996-42.1567L28.7619-46.4076Q29.385-46.9684 30.1015-46.7192Q30.818-46.4699 30.7557-45.5238L29.8834-33.2979Q29.6217-29.1252 31.0726-25.9801Q32.5234-22.835 34.6035-20.2448L44.4816-7.83808Q45.191-6.94176 45.4656-6.41839Q45.7401-5.89503 46.0517-5.25953L56.6151 16.1041Q57.4491 17.8344 58.6686 18.5318Q59.888 19.2292 61.2828 19.2292ZM16.9426 19.2292Q19.3458 19.2292 20.8536 17.4099L35.6004-0.164735Q36.8224-1.58614 37.1211-2.22702Q37.4197-2.86789 37.8176-4.18874Q38.292-5.58783 38.6671-6.94373Q39.0422-8.29963 39.392-9.58656L31.3848-19.4603L28.7181-6.58038L14.728 10.0889Q13.7693 11.2228 13.1151 12.2878Q12.4609 13.3528 12.4609 14.7983Q12.4609 16.7387 13.7431 17.9839Q15.0253 19.2292 16.9426 19.2292ZM62.9491-35.2534L74.0127-35.2534Q76.2539-35.2534 77.5979-36.455Q78.942-37.6566 78.942-39.6486Q78.942-41.6398 77.5979-42.8285Q76.2539-44.0172 74.0127-44.0172L62.3136-44.0172L53.2467-53.7312L52.3744-41.8663L56.8956-37.4456Q58.1533-36.2378 59.5049-35.7456Q60.8565-35.2534 62.9491-35.2534ZM45.2374-68.0457Q49.6941-68.0457 52.8637-71.246Q56.0332-74.4463 56.0332-78.7677Q56.0332-83.2252 52.8637-86.4255Q49.6941-89.6259 45.2374-89.6259Q40.7914-89.6259 37.6534-86.4255Q34.5154-83.2252 34.5154-78.7677Q34.5154-74.4463 37.6534-71.246Q40.7914-68.0457 45.2374-68.0457Z"/>
  </g>
  <g id="Ultralight-M" transform="matrix(1 0 0 1 514.461 1126)">
   <path d="M60.6452 18.5337Q62.3292 18.5337 63.7012 17.2244Q65.0733 15.9151 65.0733 13.6081Q65.0733 12.112 64.0764 9.99365L54.4157-9.6385Q53.7916-10.8232 53.044-12.0693Q52.2963-13.3154 51.6724-14.2508L45.5649-22.976L45.9387-24.1607Q47.1243-28.0868 47.7474-30.923Q48.3704-33.7592 48.681-37.5615L49.6788-51.8345Q50.0526-56.9462 47.3713-60.5924Q44.6899-64.2385 39.7012-64.2385Q35.7119-64.2385 32.6581-62.1811Q29.6044-60.1237 26.0512-56.5714L18.5098-49.1546Q16.5774-47.2232 15.8293-45.4778Q15.0812-43.7323 14.8943-41.3639L13.9597-29.3987Q13.7728-27.2164 14.8645-25.8755Q15.9562-24.5346 17.828-24.4713Q19.6979-24.2854 21.0072-25.3766Q22.3165-26.4677 22.5033-28.7757L23.5634-42.2958L28.4838-46.593Q29.1069-47.1538 29.8234-46.9046Q30.5399-46.6553 30.4776-45.7209L29.6053-33.4486Q29.3551-29.3338 30.7885-26.2177Q32.222-23.1016 34.2789-20.5463L44.0643-8.26691Q44.7505-7.39376 45.0309-6.86466Q45.3113-6.33555 45.6228-5.71154L56.0936 15.4782Q56.9044 17.1621 58.089 17.8479Q59.2736 18.5337 60.6452 18.5337ZM16.8267 18.5337Q19.1951 18.5337 20.6913 16.7259L35.2758-0.663094Q36.521-2.09618 36.8023-2.71963Q37.0836-3.34308 37.4583-4.65244Q37.9558-6.14422 38.36-7.60441Q38.7641-9.0646 39.137-10.4327L31.2804-20.0979L28.6023-7.0209L14.7048 9.55568Q13.7693 10.6781 13.1151 11.7373Q12.4609 12.7964 12.4609 14.2304Q12.4609 16.1011 13.7084 17.3174Q14.9558 18.5337 16.8267 18.5337ZM62.2073-35.3809L73.236-35.3809Q75.4194-35.3809 76.7286-36.5651Q78.0378-37.7493 78.0378-39.6835Q78.0378-41.6166 76.7286-42.7706Q75.4194-43.9245 73.236-43.9245L61.5833-43.9245L52.3078-53.8239L51.4355-42.2256L56.2234-37.5615Q57.4694-36.3768 58.8094-35.8789Q60.1494-35.3809 62.2073-35.3809ZM44.6927-67.7328Q49.0565-67.7328 52.174-70.8809Q55.2915-74.029 55.2915-78.2693Q55.2915-82.6342 52.174-85.7823Q49.0565-88.9304 44.6927-88.9304Q40.3277-88.9304 37.2419-85.7823Q34.1561-82.6342 34.1561-78.2693Q34.1561-74.029 37.2419-70.8809Q40.3277-67.7328 44.6927-67.7328Z"/>
  </g>
  <g id="Black-S" transform="matrix(1 0 0 1 2890.63 696)">
   <path d="M56.543 15.2832Q58.8379 15.2832 60.4492 13.8428Q62.0605 12.4023 62.0605 10.1562Q62.0605 8.74023 61.2793 7.17773L51.6602-12.207Q50.8789-13.7695 50.2197-14.8193Q49.5605-15.8691 48.9746-16.6504L43.9941-23.7793L44.1895-24.4629Q45.3125-28.3691 45.7764-31.1279Q46.2402-33.8867 46.4844-37.2559L47.4121-49.4141Q47.8027-54.4922 44.9951-58.1543Q42.1875-61.8164 36.5234-61.8164Q32.9102-61.8164 29.3701-60.0586Q25.8301-58.3008 22.2656-54.7363L15.3809-47.9004Q13.623-46.1426 12.9395-44.5557Q12.2559-42.9688 12.0605-40.7715L11.1816-30.5664Q10.9863-28.1738 12.2314-26.7334Q13.4766-25.293 15.5762-25.1465Q17.7246-25 19.1895-26.2207Q20.6543-27.4414 20.8496-29.9805L21.7285-40.8691L25.7324-44.3848Q26.3184-44.9219 26.9775-44.6533Q27.6367-44.3848 27.5391-43.5059L26.8066-33.4961Q26.5137-29.6875 28.0762-26.8311Q29.6387-23.9746 31.4941-21.582L40.4785-10.3027Q41.0645-9.57031 41.3086-9.15527Q41.5527-8.74023 41.8945-8.05664L51.709 11.9141Q52.5391 13.623 53.833 14.4531Q55.127 15.2832 56.543 15.2832ZM15.1367 15.2832Q17.5293 15.2832 19.4824 12.9395L33.2031-3.41797Q34.375-4.83398 34.79-5.56641Q35.2051-6.29883 35.5469-7.51953Q35.6445-7.91016 35.7666-8.30078Q35.8887-8.69141 35.9375-9.0332L27.2461-19.873L25.0488-10.1074L11.3281 6.05469Q10.5469 6.98242 10.1562 7.95898Q9.76562 8.93555 9.76562 9.91211Q9.76562 12.1094 11.377 13.6963Q12.9883 15.2832 15.1367 15.2832ZM59.375-34.4238L70.6543-34.4238Q73.1445-34.4238 74.4629-35.791Q75.7812-37.1582 75.7812-39.2578Q75.8301-41.4062 74.4629-42.7734Q73.0957-44.1406 70.5566-44.1406L59.2285-44.1406L51.6113-52.002L50.7324-39.502L53.8086-36.377Q54.9316-35.2051 56.1768-34.8145Q57.4219-34.4238 59.375-34.4238ZM42.5293-65.5762Q46.7285-65.5762 49.7314-68.5791Q52.7344-71.582 52.7344-75.6348Q52.7344-79.8828 49.7314-82.8613Q46.7285-85.8398 42.5293-85.8398Q38.3301-85.8398 35.4004-82.8613Q32.4707-79.8828 32.4707-75.6348Q32.4707-71.582 35.4004-68.5791Q38.3301-65.5762 42.5293-65.5762Z"/>
  </g>
  <g id="Heavy-S" transform="matrix(1 0 0 1 2595.19 696)">
   <path d="M55.0448 13.9925Q57.1553 13.9925 58.6687 12.6327Q60.1821 11.2729 60.1821 9.08447Q60.1821 7.67998 59.4008 6.09443L50.1735-12.5067Q49.4499-13.9424 48.808-14.9749Q48.1661-16.0074 47.5801-16.8002L42.5766-23.9406L42.8065-24.7049Q43.918-28.4383 44.3877-31.1049Q44.8573-33.7715 45.0899-37.0945L45.9946-49.172Q46.3622-54.0543 43.6698-57.5608Q40.9774-61.0673 35.6015-61.0673Q32.0689-61.0673 28.7708-59.3153Q25.4728-57.5632 22.0467-54.1601L15.3117-47.4855Q13.6-45.7738 12.9279-44.2215Q12.2559-42.6691 12.0721-40.5179L11.2277-30.4512Q11.044-28.1623 12.2257-26.7795Q13.4074-25.3967 15.4264-25.2617Q17.448-25.1268 18.8322-26.2898Q20.2164-27.4529 20.4117-29.8883L21.2906-40.7078L25.2023-44.1428Q25.7652-44.6568 26.4013-44.4055Q27.0374-44.1543 26.9513-43.2984L26.2304-33.4269Q25.949-29.699 27.425-26.9117Q28.9011-24.1244 30.722-21.7895L39.4874-10.7752Q40.0849-10.0313 40.3175-9.62201Q40.5501-9.21274 40.8689-8.56372L50.3952 10.7847Q51.2022 12.4476 52.4443 13.22Q53.6864 13.9925 55.0448 13.9925ZM14.791 13.9925Q17.0914 13.9925 18.8716 11.8562L32.212-4.04029Q33.3147-5.37563 33.701-6.06772Q34.0872-6.75981 34.4405-7.94594Q34.5843-8.42876 34.7236-8.89429Q34.863-9.35983 34.9464-9.79382L26.7044-20.069L24.5418-10.384L11.3973 5.12121Q10.6045 6.04894 10.1851 6.99669Q9.76562 7.94444 9.76562 8.9671Q9.76562 11.0606 11.2617 12.5266Q12.7578 13.9925 14.791 13.9925ZM57.6002-34.516L68.2918-34.516Q70.6552-34.516 71.939-35.7968Q73.2228-37.0775 73.2228-39.0965Q73.2601-41.1527 71.939-42.445Q70.6179-43.7373 68.2172-43.7373L57.3616-43.7373L50.0325-51.3912L49.1997-39.4328L52.1721-36.4231Q53.2721-35.2857 54.4827-34.9009Q55.6932-34.516 57.6002-34.516ZM41.2962-64.7349Q45.4032-64.7349 48.3255-67.6629Q51.2477-70.5909 51.2477-74.5515Q51.2477-78.6958 48.3255-81.6052Q45.4032-84.5145 41.2962-84.5145Q37.2007-84.5145 34.3401-81.6052Q31.4796-78.6958 31.4796-74.5515Q31.4796-70.5909 34.3401-67.6629Q37.2007-64.7349 41.2962-64.7349Z"/>
  </g>
  <g id="Bold-S" transform="matrix(1 0 0 1 2299.91 696)">
   <path d="M53.3691 12.5488Q55.2734 12.5488 56.6772 11.2793Q58.0811 10.0098 58.0811 7.88574Q58.0811 6.49414 57.2998 4.88281L48.5107-12.8418Q47.8516-14.1357 47.229-15.1489Q46.6064-16.1621 46.0205-16.9678L40.9912-24.1211L41.2598-24.9756Q42.3584-28.5156 42.8345-31.0791Q43.3105-33.6426 43.5303-36.9141L44.4092-48.9014Q44.751-53.5645 42.1875-56.897Q39.624-60.2295 34.5703-60.2295Q31.1279-60.2295 28.1006-58.4839Q25.0732-56.7383 21.8018-53.5156L15.2344-47.0215Q13.5742-45.3613 12.915-43.8477Q12.2559-42.334 12.085-40.2344L11.2793-30.3223Q11.1084-28.1494 12.2192-26.8311Q13.3301-25.5127 15.2588-25.3906Q17.1387-25.2686 18.4326-26.3672Q19.7266-27.4658 19.9219-29.7852L20.8008-40.5273L24.6094-43.8721Q25.1465-44.3604 25.7568-44.1284Q26.3672-43.8965 26.2939-43.0664L25.5859-33.3496Q25.3174-29.7119 26.6968-27.002Q28.0762-24.292 29.8584-22.0215L38.3789-11.3037Q38.9893-10.5469 39.209-10.144Q39.4287-9.74121 39.7217-9.13086L48.9258 9.52148Q49.707 11.1328 50.8911 11.8408Q52.0752 12.5488 53.3691 12.5488ZM14.4043 12.5488Q16.6016 12.5488 18.1885 10.6445L31.1035-4.73633Q32.1289-5.98145 32.4829-6.62842Q32.8369-7.27539 33.2031-8.42285Q33.3984-9.00879 33.5571-9.55811Q33.7158-10.1074 33.8379-10.6445L26.0986-20.2881L23.9746-10.6934L11.4746 4.07715Q10.6689 5.00488 10.2173 5.92041Q9.76562 6.83594 9.76562 7.91016Q9.76562 9.8877 11.1328 11.2183Q12.5 12.5488 14.4043 12.5488ZM55.6152-34.6191L65.6494-34.6191Q67.8711-34.6191 69.1162-35.8032Q70.3613-36.9873 70.3613-38.916Q70.3857-40.8691 69.1162-42.0776Q67.8467-43.2861 65.6006-43.2861L55.2734-43.2861L48.2666-50.708L47.4854-39.3555L50.3418-36.4746Q51.416-35.376 52.5879-34.9976Q53.7598-34.6191 55.6152-34.6191ZM39.917-63.7939Q43.9209-63.7939 46.7529-66.6382Q49.585-69.4824 49.585-73.3398Q49.585-77.3682 46.7529-80.2002Q43.9209-83.0322 39.917-83.0322Q35.9375-83.0322 33.1543-80.2002Q30.3711-77.3682 30.3711-73.3398Q30.3711-69.4824 33.1543-66.6382Q35.9375-63.7939 39.917-63.7939Z"/>
  </g>
  <g id="Semibold-S" transform="matrix(1 0 0 1 2004.19 696)">
   <path d="M52.2139 11.5535Q53.976 11.5535 55.3042 10.3462Q56.6325 9.13887 56.6325 7.05928Q56.6325 5.67656 55.8513 4.04746L47.3644-13.0729Q46.7496-14.269 46.1404-15.2689Q45.5312-16.2688 44.9452-17.0833L39.8981-24.2455L40.1934-25.1622Q41.2831-28.5689 41.7636-31.0613Q42.2441-33.5537 42.455-36.7896L43.3161-48.7147Q43.6401-53.2268 41.1655-56.4393Q38.6909-59.6519 33.8594-59.6519Q30.4792-59.6519 27.6385-57.9107Q24.7978-56.1695 21.6329-53.0713L15.1811-46.7016Q13.5564-45.077 12.9062-43.5899Q12.2559-42.1029 12.0938-40.0389L11.3148-30.2334Q11.1528-28.1405 12.2148-26.8666Q13.2768-25.5927 15.1433-25.4795Q16.9254-25.3663 18.1571-26.4205Q19.3889-27.4747 19.5842-29.7141L20.4631-40.4029L24.2006-43.6854Q24.7199-44.156 25.3125-43.9374Q25.9051-43.7188 25.8407-42.9064L25.1416-33.2963Q24.8819-29.7208 26.1947-27.0642Q27.5074-24.4075 29.263-22.1814L37.6146-11.6681Q38.2339-10.9023 38.4447-10.504Q38.6556-10.1056 38.9308-9.52187L47.9127 8.65059Q48.6762 10.2264 49.8203 10.8899Q50.9644 11.5535 52.2139 11.5535ZM14.1377 11.5535Q16.2639 11.5535 17.7175 9.80918L30.3393-5.21621Q31.3113-6.39912 31.6431-7.01499Q31.9749-7.63086 32.35-8.75166Q32.5809-9.40869 32.7529-10.0158Q32.9249-10.6229 33.0736-11.2311L25.681-20.4392L23.5836-10.9066L11.5279 3.35732Q10.7134 4.28506 10.2395 5.17837Q9.76562 6.07168 9.76562 7.18145Q9.76562 9.079 11.0439 10.3163Q12.3223 11.5535 14.1377 11.5535ZM54.2467-34.6902L63.8276-34.6902Q65.9516-34.6902 67.17-35.8077Q68.3885-36.9251 68.3885-38.7916Q68.404-40.6736 67.17-41.8244Q65.936-42.9751 63.7966-42.9751L53.8338-42.9751L47.0491-50.237L46.3034-39.3021L49.0799-36.5102Q50.1363-35.4382 51.2815-35.0642Q52.4268-34.6902 54.2467-34.6902ZM38.9661-63.1452Q42.8989-63.1452 45.6688-65.9317Q48.4386-68.7182 48.4386-72.5045Q48.4386-76.4528 45.6688-79.2315Q42.8989-82.0103 38.9661-82.0103Q35.0666-82.0103 32.3367-79.2315Q29.6068-76.4528 29.6068-72.5045Q29.6068-68.7182 32.3367-65.9317Q35.0666-63.1452 38.9661-63.1452Z"/>
  </g>
  <g id="Medium-S" transform="matrix(1 0 0 1 1708.23 696)">
   <path d="M51.3379 10.7988Q52.9922 10.7988 54.2632 9.63867Q55.5342 8.47852 55.5342 6.43262Q55.5342 5.05664 54.7529 3.41406L46.4951-13.248Q45.9141-14.3701 45.3149-15.3599Q44.7158-16.3496 44.1299-17.1709L39.0693-24.3398L39.3848-25.3037Q40.4678-28.6094 40.9517-31.0479Q41.4355-33.4863 41.6396-36.6953L42.4873-48.5732Q42.7979-52.9707 40.3906-56.0923Q37.9834-59.2139 33.3203-59.2139Q29.9873-59.2139 27.2881-57.4761Q24.5889-55.7383 21.5049-52.7344L15.1406-46.459Q13.543-44.8613 12.8994-43.3945Q12.2559-41.9277 12.1006-39.8906L11.3418-30.166Q11.1865-28.1338 12.2114-26.8936Q13.2363-25.6533 15.0557-25.5469Q16.7637-25.4404 17.9482-26.4609Q19.1328-27.4814 19.3281-29.6602L20.207-40.3086L23.8906-43.5439Q24.3965-44.001 24.9756-43.7925Q25.5547-43.584 25.4971-42.7852L24.8047-33.2559Q24.5518-29.7275 25.814-27.1113Q27.0762-24.4951 28.8115-22.3027L37.0352-11.9443Q37.6611-11.1719 37.8652-10.7769Q38.0693-10.3818 38.3311-9.81836L47.1445 7.99023Q47.8945 9.53906 49.0083 10.1689Q50.1221 10.7988 51.3379 10.7988ZM13.9355 10.7988Q16.0078 10.7988 17.3604 9.17578L29.7598-5.58008Q30.6914-6.71582 31.0063-7.30811Q31.3213-7.90039 31.7031-9.00098Q31.9609-9.71191 32.1431-10.3628Q32.3252-11.0137 32.4941-11.6758L25.3643-20.5537L23.2871-11.0684L11.5684 2.81152Q10.7471 3.73926 10.2563 4.61572Q9.76562 5.49219 9.76562 6.62891Q9.76562 8.46582 10.9766 9.63232Q12.1875 10.7988 13.9355 10.7988ZM53.209-34.7441L62.4463-34.7441Q64.4961-34.7441 65.6943-35.811Q66.8926-36.8779 66.8926-38.6973Q66.9014-40.5254 65.6943-41.6323Q64.4873-42.7393 62.4287-42.7393L52.7422-42.7393L46.126-49.8799L45.4072-39.2617L48.123-36.5371Q49.166-35.4854 50.291-35.1147Q51.416-34.7441 53.209-34.7441ZM38.2451-62.6533Q42.124-62.6533 44.8467-65.396Q47.5693-68.1387 47.5693-71.8711Q47.5693-75.7588 44.8467-78.4971Q42.124-81.2354 38.2451-81.2354Q34.4062-81.2354 31.7168-78.4971Q29.0273-75.7588 29.0273-71.8711Q29.0273-68.1387 31.7168-65.396Q34.4062-62.6533 38.2451-62.6533Z"/>
  </g>
  <g id="Regular-S" transform="matrix(1 0 0 1 1412.49 696)">
   <path d="M50.1953 9.81445Q51.709 9.81445 52.9053 8.71582Q54.1016 7.61719 54.1016 5.61523Q54.1016 4.24805 53.3203 2.58789L45.3613-13.4766Q44.8242-14.502 44.2383-15.4785Q43.6523-16.4551 43.0664-17.2852L37.9883-24.4629L38.3301-25.4883Q39.4043-28.6621 39.8926-31.0303Q40.3809-33.3984 40.5762-36.5723L41.4062-48.3887Q41.6992-52.6367 39.3799-55.6396Q37.0605-58.6426 32.6172-58.6426Q29.3457-58.6426 26.8311-56.9092Q24.3164-55.1758 21.3379-52.2949L15.0879-46.1426Q13.5254-44.5801 12.8906-43.1396Q12.2559-41.6992 12.1094-39.6973L11.377-30.0781Q11.2305-28.125 12.207-26.9287Q13.1836-25.7324 14.9414-25.6348Q16.5527-25.5371 17.6758-26.5137Q18.7988-27.4902 18.9941-29.5898L19.873-40.1855L23.4863-43.3594Q23.9746-43.7988 24.5361-43.6035Q25.0977-43.4082 25.0488-42.627L24.3652-33.2031Q24.1211-29.7363 25.3174-27.1729Q26.5137-24.6094 28.2227-22.4609L36.2793-12.3047Q36.9141-11.5234 37.1094-11.1328Q37.3047-10.7422 37.5488-10.2051L46.1426 7.12891Q46.875 8.64258 47.9492 9.22852Q49.0234 9.81445 50.1953 9.81445ZM13.6719 9.81445Q15.6738 9.81445 16.8945 8.34961L29.0039-6.05469Q29.8828-7.12891 30.1758-7.69043Q30.4688-8.25195 30.8594-9.32617Q31.1523-10.1074 31.3477-10.8154Q31.543-11.5234 31.7383-12.2559L24.9512-20.7031L22.9004-11.2793L11.6211 2.09961Q10.791 3.02734 10.2783 3.88184Q9.76562 4.73633 9.76562 5.9082Q9.76562 7.66602 10.8887 8.74023Q12.0117 9.81445 13.6719 9.81445ZM51.8555-34.8145L60.6445-34.8145Q62.5977-34.8145 63.7695-35.8154Q64.9414-36.8164 64.9414-38.5742Q64.9414-40.332 63.7695-41.3818Q62.5977-42.4316 60.6445-42.4316L51.3184-42.4316L44.9219-49.4141L44.2383-39.209L46.875-36.5723Q47.9004-35.5469 48.999-35.1807Q50.0977-34.8145 51.8555-34.8145ZM37.3047-62.0117Q41.1133-62.0117 43.7744-64.6973Q46.4355-67.3828 46.4355-71.0449Q46.4355-74.8535 43.7744-77.5391Q41.1133-80.2246 37.3047-80.2246Q33.5449-80.2246 30.9082-77.5391Q28.2715-74.8535 28.2715-71.0449Q28.2715-67.3828 30.9082-64.6973Q33.5449-62.0117 37.3047-62.0117Z"/>
  </g>
  <g id="Light-S" transform="matrix(1 0 0 1 1116.37 696)">
   <path d="M49.3627 8.9063Q50.8158 8.9063 51.9744 7.8303Q53.1329 6.7543 53.1329 4.81288Q53.1329 3.50647 52.3516 1.84631L44.5137-14.0063Q43.9916-15.0014 43.4057-15.978Q42.8197-16.9545 42.264-17.7544L37.277-24.826L37.6035-25.8212Q38.6325-28.9647 39.1207-31.2875Q39.609-33.6103 39.8193-36.7236L40.6344-48.3431Q40.9274-52.5157 38.6761-55.4732Q36.4248-58.4307 32.148-58.4307Q28.9218-58.4307 26.445-56.7351Q23.9683-55.0395 21.0503-52.1889L14.9063-46.1426Q13.3588-44.5953 12.7392-43.1775Q12.1195-41.7597 11.9731-39.8033L11.2406-30.2597Q11.0942-28.3824 12.033-27.2315Q12.9718-26.0806 14.6388-25.9979Q16.2046-25.8853 17.2974-26.8239Q18.3901-27.7626 18.5702-29.7714L19.4341-40.3671L23.1232-43.6015Q23.6115-44.0409 24.173-43.8456Q24.7345-43.6503 24.6857-42.8843L24.0021-33.4Q23.7729-30.0087 24.9465-27.4831Q26.12-24.9575 27.7987-22.8546L35.7343-12.8647Q36.3388-12.1137 36.5417-11.7156Q36.7447-11.3174 36.9888-10.7953L45.4615 6.31154Q46.1637 7.76469 47.1924 8.33549Q48.2211 8.9063 49.3627 8.9063ZM13.5206 8.9063Q15.477 8.9063 16.6827 7.45646L28.58-6.70547Q29.4891-7.79495 29.7595-8.33371Q30.0298-8.87248 30.3902-9.93169Q30.7134-10.834 30.9466-11.6782Q31.1798-12.5224 31.4054-13.3609L24.8149-21.5357L22.7491-11.8546L11.5908 1.4033Q10.791 2.31603 10.2783 3.16289Q9.76562 4.00976 9.76562 5.16663Q9.76562 6.83339 10.8433 7.86985Q11.9209 8.9063 13.5206 8.9063ZM50.8868-34.981L59.6303-34.981Q61.5079-34.981 62.6343-35.9592Q63.7606-36.9375 63.7606-38.6197Q63.7606-40.3018 62.6343-41.3062Q61.5079-42.3106 59.6303-42.3106L50.3647-42.3106L43.6958-49.5351L43.0122-39.6782L45.9971-36.7236Q47.0072-35.7285 48.0907-35.3547Q49.1742-34.981 50.8868-34.981ZM36.5934-61.603Q40.2807-61.603 42.8738-64.2204Q45.4669-66.8378 45.4669-70.3941Q45.4669-74.0817 42.8738-76.6991Q40.2807-79.3165 36.5934-79.3165Q32.9394-79.3165 30.3708-76.6991Q27.8023-74.0817 27.8023-70.3941Q27.8023-66.8378 30.3708-64.2204Q32.9394-61.603 36.5934-61.603Z"/>
  </g>
  <g id="Thin-S" transform="matrix(1 0 0 1 820.44 696)">
   <path d="M48.2615 7.7052Q49.6346 7.7052 50.7432 6.65913Q51.8517 5.61307 51.8517 3.75169Q51.8517 2.52567 51.0705 0.865518L43.3926-14.7069Q42.8904-15.662 42.3045-16.6386Q41.7185-17.6151 41.2029-18.3749L36.3362-25.3064L36.6426-26.2615Q37.6116-29.365 38.0999-31.6277Q38.5882-33.8905 38.8184-36.9237L39.6136-48.2829Q39.9066-52.3556 37.7452-55.2531Q35.5839-58.1506 31.5274-58.1506Q28.3611-58.1506 25.9344-56.5049Q23.5078-54.8592 20.6699-52.0486L14.6662-46.1426Q13.1385-44.6155 12.5389-43.2277Q11.9393-41.8398 11.7928-39.9436L11.0604-30.4999Q10.9139-28.7228 11.8027-27.6319Q12.6916-26.541 14.2385-26.4782Q15.7441-26.3457 16.7969-27.2343Q17.8496-28.1228 18.0095-30.0116L18.8536-40.6073L22.6429-43.9217Q23.1311-44.3611 23.6927-44.1658Q24.2542-43.9705 24.2054-43.2247L23.5218-33.6603Q23.3125-30.3689 24.4559-27.8935Q25.5993-25.418 27.238-23.3753L35.0135-13.6053Q35.578-12.8944 35.791-12.4863Q36.004-12.0783 36.2482-11.576L44.5608 5.23052Q45.2229 6.60361 46.1914 7.1544Q47.1599 7.7052 48.2615 7.7052ZM13.3204 7.7052Q15.2167 7.7052 16.4025 6.2752L28.0193-7.56619Q28.9685-8.67585 29.2089-9.18451Q29.4493-9.69317 29.7696-10.7325Q30.1329-11.7949 30.4162-12.8193Q30.6995-13.8436 30.9651-14.8223L24.6346-22.637L22.5489-12.6154L11.5508 0.482375Q10.791 1.37526 10.2783 2.21203Q9.76562 3.0488 9.76562 4.18583Q9.76562 5.73219 10.7832 6.71869Q11.8009 7.7052 13.3204 7.7052ZM49.6056-35.2013L58.289-35.2013Q60.0667-35.2013 61.1328-36.1494Q62.199-37.0976 62.199-38.6799Q62.199-40.2617 61.1328-41.2061Q60.0667-42.1505 58.289-42.1505L49.1034-42.1505L42.0743-49.6952L41.3907-40.2988L44.836-36.9237Q45.826-35.9686 46.8895-35.585Q47.953-35.2013 49.6056-35.2013ZM35.6526-61.0625Q39.1795-61.0625 41.6826-63.5898Q44.1857-66.117 44.1857-69.5334Q44.1857-73.0609 41.6826-75.5881Q39.1795-78.1154 35.6526-78.1154Q32.1386-78.1154 29.6601-75.5881Q27.1817-73.0609 27.1817-69.5334Q27.1817-66.117 29.6601-63.5898Q32.1386-61.0625 35.6526-61.0625Z"/>
  </g>
  <g id="Ultralight-S" transform="matrix(1 0 0 1 524.129 696)">
   <path d="M47.6974 7.09Q49.0295 7.09 50.1125 6.05927Q51.1955 5.02853 51.1955 3.20816Q51.1955 2.02332 50.4143 0.363159L42.8185-15.0658Q42.3264-16.0004 41.7404-16.9769Q41.1545-17.9535 40.6593-18.6928L35.8543-25.5524L36.1504-26.487Q37.0888-29.57 37.5771-31.802Q38.0653-34.034 38.3057-37.0262L39.0907-48.2521Q39.3837-52.2736 37.2684-55.1403Q35.1532-58.007 31.2096-58.007Q28.0739-58.007 25.6729-56.3869Q23.2719-54.7668 20.475-51.9768L14.5432-46.1426Q13.0257-44.6259 12.4363-43.2533Q11.8469-41.8808 11.7004-40.0154L10.968-30.6229Q10.8215-28.8971 11.6848-27.837Q12.5481-26.7769 14.0335-26.7242Q15.5083-26.5816 16.5405-27.4445Q17.5728-28.3073 17.7223-30.1346L18.5562-40.7303L22.3969-44.0857Q22.8851-44.5251 23.4467-44.3298Q24.0082-44.1345 23.9594-43.399L23.2758-33.7936Q23.0766-30.5534 24.2046-28.1036Q25.3326-25.6538 26.9508-23.642L34.6443-13.9847Q35.1883-13.2942 35.4065-12.8811Q35.6247-12.468 35.8688-11.9759L44.0994 4.67682Q44.7411 6.00891 45.6787 6.54945Q46.6164 7.09 47.6974 7.09ZM13.2179 7.09Q15.0833 7.09 16.259 5.67017L27.7321-8.00705Q28.7018-9.12704 28.9268-9.62029Q29.1519-10.1135 29.4518-11.1427Q29.8355-12.2871 30.1445-13.4037Q30.4535-14.5203 30.7396-15.5708L24.5422-23.201L22.4464-13.0051L11.5303 0.0106812Q10.791 0.893402 10.2783 1.72501Q9.76562 2.55661 9.76562 3.68347Q9.76562 5.16815 10.7525 6.12907Q11.7393 7.09 13.2179 7.09ZM48.9494-35.3142L57.6019-35.3142Q59.3285-35.3142 60.3638-36.2469Q61.3991-37.1796 61.3991-38.7108Q61.3991-40.2412 60.3638-41.1549Q59.3285-42.0685 57.6019-42.0685L48.4573-42.0685L41.2437-49.7772L40.5602-40.6166L44.2413-37.0262Q45.2209-36.0916 46.2742-35.7029Q47.3274-35.3142 48.9494-35.3142ZM35.1707-60.7857Q38.6154-60.7857 41.0725-63.2668Q43.5295-65.7478 43.5295-69.0926Q43.5295-72.538 41.0725-75.0191Q38.6154-77.5002 35.1707-77.5002Q31.7284-77.5002 29.2961-75.0191Q26.8639-72.538 26.8639-69.0926Q26.8639-65.7478 29.2961-63.2668Q31.7284-60.7857 35.1707-60.7857Z"/>
  </g>
 </g>
</svg>
