<?xml version="1.0" encoding="UTF-8"?>
<!-- Generator: CustomSymbols v2.6.1.40 by @serious_bret https://bretlester.com/app_content/CustomSymbols/ -->
<!-- Guides: Left/Right 0.0/0.0 Cap/Base 0.0/0.0 -->
<!-- Settings: RefScale 1.0 Min/Max Stroke Scales 0.5/2.21 -->
<!DOCTYPE svg
PUBLIC "-//W3C//DTD SVG 1.1//EN"
       "http://www.w3.org/Graphics/SVG/1.1/DTD/svg11.dtd">
<svg version="1.1" xmlns="http://www.w3.org/2000/svg" xmlns:xlink="http://www.w3.org/1999/xlink" width="3300" height="2200">
<![CDATA[<?xml version="1.0" encoding="UTF-8" standalone="no"?>
<!DOCTYPE svg PUBLIC "-//W3C//DTD SVG 1.1//EN" "http://www.w3.org/Graphics/SVG/1.1/DTD/svg11.dtd">
<!-- Created with Vectornator (http://vectornator.io/) -->
<svg height="100%" stroke-miterlimit="10" style="fill-rule:nonzero;clip-rule:evenodd;stroke-linecap:round;stroke-linejoin:round;" version="1.1" viewBox="0 0 1024 1024" width="100%" xml:space="preserve" xmlns="http://www.w3.org/2000/svg" xmlns:vectornator="http://vectornator.io" xmlns:xlink="http://www.w3.org/1999/xlink">
<defs/>
<g id="レイヤー-1" vectornator:layerName="レイヤー 1">
<path d="M512.049 8.84336C483.583 8.84336 459.529 18.8684 439.69 38.8797C419.946 58.8812 410.075 83.1288 410.075 111.507C410.075 138.783 419.851 162.551 439.69 182.735C459.529 202.918 483.679 213.116 512.049 213.116C540.033 213.116 564.089 202.918 583.929 182.735C603.766 162.551 613.637 138.783 613.637 111.507C613.637 83.1382 603.766 58.8812 583.929 38.8797C564.089 18.8684 540.033 8.84336 512.049 8.84336ZM512.049 255.716C463.266 255.716 422.726 260.058 390.139 269.325C357.555 278.603 333.211 295.259 316.823 319.258C300.435 343.266 292 377.221 292 420.867L292 642.246C292 656.794 295.931 668.113 303.503 676.116C311.168 684.118 321.231 688.335 333.595 688.335C345.959 688.335 356.118 684.118 363.975 676.116C371.739 668.113 375.478 656.794 375.478 642.246L375.478 418.777C375.478 406.769 380.651 400.616 390.523 400.616C400.683 400.616 405.475 406.769 405.475 418.777L405.475 965.225C405.475 981.23 410.171 993.699 419.083 1002.24C427.998 1010.79 438.827 1015.16 451.958 1015.16C465.374 1015.16 476.587 1010.79 485.501 1002.24C494.414 993.699 499.11 981.23 499.11 965.225L499.11 638.403C499.11 623.49 512.049 620.941 512.049 620.941C512.049 620.941 525.274 623.49 525.274 638.403L525.274 965.225C525.274 981.23 529.586 993.699 538.501 1002.24C547.413 1010.79 558.626 1015.16 572.045 1015.16C585.173 1015.16 596.29 1010.79 605.205 1002.24C614.117 993.699 618.525 981.23 618.525 965.225L618.525 418.777C618.525 406.769 623.701 400.616 633.861 400.616C643.636 400.616 648.524 406.769 648.524 418.777L648.524 642.246C648.524 656.794 652.261 668.113 660.025 676.116C667.884 684.118 678.041 688.335 690.405 688.335C702.769 688.335 712.832 684.118 720.5 676.116C728.069 668.113 732 656.794 732 642.246L732 420.867C732 377.221 723.565 343.266 707.177 319.258C690.789 295.259 666.445 278.603 633.861 269.325C601.274 260.058 560.734 255.716 512.049 255.716Z" fill="#000000" fill-rule="nonzero" opacity="1" stroke="none"/>
</g>
</svg>
]]>
 <g id="Notes">
  <rect height="2200" id="artboard" style="fill:white;opacity:1" width="3300" x="0" y="0"/>
  <line id="" style="fill:none;stroke:black;opacity:1;stroke-width:0.5;" x1="263" x2="3036" y1="292" y2="292"/>
  <text id="reftext1" style="stroke:none;fill:black;font-family:-apple-system,&quot;SF Pro Display&quot;,&quot;SF Pro Text&quot;,Helvetica,sans-serif;font-weight:bold;" transform="matrix(1 0 0 1 263 322)">Weight/Scale Variations</text>
  <text id="reftext2" style="stroke:none;fill:black;font-family:-apple-system,&quot;SF Pro Display&quot;,&quot;SF Pro Text&quot;,Helvetica,sans-serif;text-anchor:middle;" transform="matrix(1 0 0 1 559.711 322)">Ultralight</text>
  <text style="stroke:none;fill:black;font-family:-apple-system,&quot;SF Pro Display&quot;,&quot;SF Pro Text&quot;,Helvetica,sans-serif;text-anchor:middle;" transform="matrix(1 0 0 1 856.422 322)">Thin</text>
  <text style="stroke:none;fill:black;font-family:-apple-system,&quot;SF Pro Display&quot;,&quot;SF Pro Text&quot;,Helvetica,sans-serif;text-anchor:middle;" transform="matrix(1 0 0 1 1153.13 322)">Light</text>
  <text style="stroke:none;fill:black;font-family:-apple-system,&quot;SF Pro Display&quot;,&quot;SF Pro Text&quot;,Helvetica,sans-serif;text-anchor:middle;" transform="matrix(1 0 0 1 1449.84 322)">Regular</text>
  <text style="stroke:none;fill:black;font-family:-apple-system,&quot;SF Pro Display&quot;,&quot;SF Pro Text&quot;,Helvetica,sans-serif;text-anchor:middle;" transform="matrix(1 0 0 1 1746.56 322)">Medium</text>
  <text style="stroke:none;fill:black;font-family:-apple-system,&quot;SF Pro Display&quot;,&quot;SF Pro Text&quot;,Helvetica,sans-serif;text-anchor:middle;" transform="matrix(1 0 0 1 2043.27 322)">Semibold</text>
  <text style="stroke:none;fill:black;font-family:-apple-system,&quot;SF Pro Display&quot;,&quot;SF Pro Text&quot;,Helvetica,sans-serif;text-anchor:middle;" transform="matrix(1 0 0 1 2339.98 322)">Bold</text>
  <text style="stroke:none;fill:black;font-family:-apple-system,&quot;SF Pro Display&quot;,&quot;SF Pro Text&quot;,Helvetica,sans-serif;text-anchor:middle;" transform="matrix(1 0 0 1 2636.69 322)">Heavy</text>
  <text style="stroke:none;fill:black;font-family:-apple-system,&quot;SF Pro Display&quot;,&quot;SF Pro Text&quot;,Helvetica,sans-serif;text-anchor:middle;" transform="matrix(1 0 0 1 2933.4 322)">Black</text>
  <line id="" style="fill:none;stroke:black;opacity:1;stroke-width:0.5;" x1="263" x2="3036" y1="1903" y2="1903"/>
  <g id="" transform="matrix(1 0 0 1 263 1933)">
   <path d="M9.24805 0.830078C13.5547 0.830078 17.1387-2.74414 17.1387-7.05078C17.1387-11.3574 13.5449-14.9316 9.23828-14.9316C4.94141-14.9316 1.36719-11.3574 1.36719-7.05078C1.36719-2.74414 4.95117 0.830078 9.24805 0.830078ZM9.24805-0.654297C5.70312-0.654297 2.87109-3.49609 2.87109-7.05078C2.87109-10.6055 5.69336-13.4473 9.23828-13.4473C12.793-13.4473 15.6348-10.6055 15.6445-7.05078C15.6543-3.49609 12.8027-0.654297 9.24805-0.654297ZM6.39648-6.31836L8.50586-6.31836L8.50586-4.19922C8.50586-3.75977 8.79883-3.45703 9.22852-3.45703C9.67773-3.45703 9.9707-3.75977 9.9707-4.19922L9.9707-6.31836L12.0996-6.31836C12.5391-6.31836 12.8418-6.61133 12.8418-7.04102C12.8418-7.48047 12.5391-7.7832 12.0996-7.7832L9.9707-7.7832L9.9707-9.89258C9.9707-10.3418 9.67773-10.6445 9.22852-10.6445C8.79883-10.6445 8.50586-10.3418 8.50586-9.89258L8.50586-7.7832L6.39648-7.7832C5.94727-7.7832 5.64453-7.48047 5.64453-7.04102C5.64453-6.61133 5.94727-6.31836 6.39648-6.31836Z"/>
  </g>
  <g id="" transform="matrix(1 0 0 1 281.506 1933)">
   <path d="M11.709 2.91016C17.1582 2.91016 21.6699-1.61133 21.6699-7.05078C21.6699-12.5 17.1484-17.0117 11.6992-17.0117C6.25977-17.0117 1.74805-12.5 1.74805-7.05078C1.74805-1.61133 6.26953 2.91016 11.709 2.91016ZM11.709 1.25C7.09961 1.25 3.41797-2.44141 3.41797-7.05078C3.41797-11.6602 7.08984-15.3516 11.6992-15.3516C16.3086-15.3516 20-11.6602 20.0098-7.05078C20.0195-2.44141 16.3184 1.25 11.709 1.25ZM7.98828-6.23047L10.8789-6.23047L10.8789-3.32031C10.8789-2.83203 11.2109-2.5 11.6895-2.5C12.1777-2.5 12.5195-2.83203 12.5195-3.32031L12.5195-6.23047L15.4297-6.23047C15.918-6.23047 16.25-6.5625 16.25-7.04102C16.25-7.5293 15.918-7.87109 15.4297-7.87109L12.5195-7.87109L12.5195-10.7617C12.5195-11.2695 12.1777-11.6016 11.6895-11.6016C11.2109-11.6016 10.8789-11.2598 10.8789-10.7617L10.8789-7.87109L7.98828-7.87109C7.48047-7.87109 7.14844-7.5293 7.14844-7.04102C7.14844-6.5625 7.49023-6.23047 7.98828-6.23047Z"/>
  </g>
  <g id="" transform="matrix(1 0 0 1 304.924 1933)">
   <path d="M14.9707 5.66406C21.9336 5.66406 27.6953-0.0976562 27.6953-7.05078C27.6953-14.0137 21.9238-19.7754 14.9609-19.7754C8.00781-19.7754 2.25586-14.0137 2.25586-7.05078C2.25586-0.0976562 8.01758 5.66406 14.9707 5.66406ZM14.9707 3.84766C8.93555 3.84766 4.08203-1.01562 4.08203-7.05078C4.08203-13.0957 8.92578-17.9492 14.9609-17.9492C21.0059-17.9492 25.8594-13.0957 25.8691-7.05078C25.8789-1.01562 21.0156 3.84766 14.9707 3.84766ZM10.0586-6.14258L14.0625-6.14258L14.0625-2.12891C14.0625-1.5918 14.4336-1.2207 14.9512-1.2207C15.4883-1.2207 15.8594-1.5918 15.8594-2.12891L15.8594-6.14258L19.8828-6.14258C20.4102-6.14258 20.791-6.51367 20.791-7.03125C20.791-7.56836 20.4199-7.94922 19.8828-7.94922L15.8594-7.94922L15.8594-11.9531C15.8594-12.5098 15.4883-12.8809 14.9512-12.8809C14.4336-12.8809 14.0625-12.5 14.0625-11.9531L14.0625-7.94922L10.0586-7.94922C9.50195-7.94922 9.13086-7.56836 9.13086-7.03125C9.13086-6.51367 9.51172-6.14258 10.0586-6.14258Z"/>
  </g>
  <text style="stroke:none;fill:black;font-family:-apple-system,&quot;SF Pro Display&quot;,&quot;SF Pro Text&quot;,Helvetica,sans-serif;font-weight:bold;" transform="matrix(1 0 0 1 263 1953)">Design Variations</text>
  <text style="stroke:none;fill:black;font-family:-apple-system,&quot;SF Pro Display&quot;,&quot;SF Pro Text&quot;,Helvetica,sans-serif;" transform="matrix(1 0 0 1 263 1971)">Symbols are supported in up to nine weights and three scales.</text>
  <text style="stroke:none;fill:black;font-family:-apple-system,&quot;SF Pro Display&quot;,&quot;SF Pro Text&quot;,Helvetica,sans-serif;" transform="matrix(1 0 0 1 263 1989)">For optimal layout with text and other symbols, vertically align</text>
  <text style="stroke:none;fill:black;font-family:-apple-system,&quot;SF Pro Display&quot;,&quot;SF Pro Text&quot;,Helvetica,sans-serif;" transform="matrix(1 0 0 1 263 2007)">symbols with the adjacent text.</text>
  <line id="" style="fill:none;stroke:#00AEEF;stroke-width:0.5;opacity:1.0;" x1="776" x2="776" y1="1919" y2="1933"/>
  <g id="" transform="matrix(1 0 0 1 776 1933)">
   <path d="M3.31055 0.126953C3.82812 0.126953 4.08203-0.0683594 4.26758-0.605469L5.52734-4.0625L11.2891-4.0625L12.5488-0.605469C12.7344-0.0683594 12.9883 0.126953 13.4961 0.126953C14.0137 0.126953 14.3457-0.185547 14.3457-0.673828C14.3457-0.839844 14.3164-0.986328 14.2383-1.20117L9.6582-13.3887C9.43359-13.9941 9.0332-14.2871 8.4082-14.2871C7.80273-14.2871 7.39258-13.9941 7.17773-13.3984L2.59766-1.19141C2.51953-0.976562 2.49023-0.830078 2.49023-0.664062C2.49023-0.175781 2.80273 0.126953 3.31055 0.126953ZM6.00586-5.53711L8.37891-12.1094L8.42773-12.1094L10.8008-5.53711Z"/>
  </g>
  <line id="" style="fill:none;stroke:#00AEEF;stroke-width:0.5;opacity:1.0;" x1="792.836" x2="792.836" y1="1919" y2="1933"/>
  <text style="stroke:none;fill:black;font-family:-apple-system,&quot;SF Pro Display&quot;,&quot;SF Pro Text&quot;,Helvetica,sans-serif;font-weight:bold;" transform="matrix(1 0 0 1 776 1953)">Margins</text>
  <text style="stroke:none;fill:black;font-family:-apple-system,&quot;SF Pro Display&quot;,&quot;SF Pro Text&quot;,Helvetica,sans-serif;" transform="matrix(1 0 0 1 776 1971)">Leading and trailing margins on the left and right side of each symbol</text>
  <text style="stroke:none;fill:black;font-family:-apple-system,&quot;SF Pro Display&quot;,&quot;SF Pro Text&quot;,Helvetica,sans-serif;" transform="matrix(1 0 0 1 776 1989)">can be adjusted by modifying the x-location of the margin guidelines.</text>
  <text style="stroke:none;fill:black;font-family:-apple-system,&quot;SF Pro Display&quot;,&quot;SF Pro Text&quot;,Helvetica,sans-serif;" transform="matrix(1 0 0 1 776 2007)">Modifications are automatically applied proportionally to all</text>
  <text style="stroke:none;fill:black;font-family:-apple-system,&quot;SF Pro Display&quot;,&quot;SF Pro Text&quot;,Helvetica,sans-serif;" transform="matrix(1 0 0 1 776 2025)">scales and weights.</text>
  <g id="" transform="matrix(1 0 0 1 1289 1933)">
   <path d="M2.8418 1.86523L4.54102 3.57422C5.40039 4.44336 6.38672 4.38477 7.31445 3.35938L17.4902-7.85156C17.7539-7.76367 18.0273-7.7832 18.3398-7.8418L19.4043-8.03711L20.0684-7.36328L20.0293-6.80664C19.9902-6.30859 20.1172-5.92773 20.6055-5.44922L21.3672-4.70703C21.8457-4.22852 22.4609-4.19922 22.9297-4.66797L25.8398-7.58789C26.3086-8.05664 26.2891-8.65234 25.8105-9.13086L25.0391-9.89258C24.5605-10.3711 24.1895-10.5273 23.7109-10.4883L23.1348-10.4395L22.4902-11.0742L22.7344-12.1973C22.8613-12.7637 22.7051-13.2031 22.1191-13.7891L19.9219-15.9766C16.582-19.2969 12.1484-19.2188 9.25781-16.3281C8.83789-15.918 8.80859-15.3418 9.04297-14.9512C9.27734-14.5898 9.73633-14.3555 10.3809-14.5215C11.8457-14.8633 13.3691-14.9219 14.7949-13.9844L14.209-12.5293C14.0137-12.0508 13.9844-11.6504 14.1113-11.2891L3.04688-0.898438C2.06055 0.0195312 1.98242 0.996094 2.8418 1.86523ZM10.752-15.957C13.1836-17.7344 16.4746-17.4316 18.7012-15.2051L21.1328-12.793C21.3672-12.5586 21.4062-12.373 21.3379-12.0312L21.0156-10.5469L22.5195-9.0625L23.5059-9.12109C23.7598-9.13086 23.8379-9.11133 24.0332-8.91602L24.6094-8.33984L22.168-5.89844L21.5918-6.47461C21.3965-6.66992 21.3672-6.74805 21.377-7.01172L21.4453-7.98828L19.9512-9.47266L18.4277-9.21875C18.1055-9.15039 17.959-9.17969 17.7148-9.41406L15.7129-11.416C15.459-11.6504 15.4297-11.8164 15.5859-12.1875L16.4648-14.2773C14.9023-15.7324 12.8711-16.3574 10.8398-15.7617C10.6836-15.7227 10.625-15.8496 10.752-15.957ZM5.27344 2.30469L4.10156 1.14258C3.63281 0.683594 3.74023 0.341797 4.14062-0.0195312L14.9512-10.1953L16.416-8.71094L6.42578 2.27539C6.07422 2.67578 5.74219 2.77344 5.27344 2.30469Z"/>
  </g>
  <text style="stroke:none;fill:black;font-family:-apple-system,&quot;SF Pro Display&quot;,&quot;SF Pro Text&quot;,Helvetica,sans-serif;font-weight:bold;" transform="matrix(1 0 0 1 1289 1953)">Exporting</text>
  <text style="stroke:none;fill:black;font-family:-apple-system,&quot;SF Pro Display&quot;,&quot;SF Pro Text&quot;,Helvetica,sans-serif;" transform="matrix(1 0 0 1 1289 1971)">Symbols should be outlined when exporting to ensure the</text>
  <text style="stroke:none;fill:black;font-family:-apple-system,&quot;SF Pro Display&quot;,&quot;SF Pro Text&quot;,Helvetica,sans-serif;" transform="matrix(1 0 0 1 1289 1989)">design is preserved when submitting to Xcode.</text>
  <text id="template-version" style="stroke:none;fill:black;font-family:-apple-system,&quot;SF Pro Display&quot;,&quot;SF Pro Text&quot;,Helvetica,sans-serif;text-anchor:end;" transform="matrix(1 0 0 1 3036 1933)">Template v.2.0</text>
  <text style="stroke:none;fill:black;font-family:-apple-system,&quot;SF Pro Display&quot;,&quot;SF Pro Text&quot;,Helvetica,sans-serif;text-anchor:end;" transform="matrix(1 0 0 1 3036 1951)">Requires Xcode 12 or greater</text>
  <text style="stroke:none;fill:black;font-family:-apple-system,&quot;SF Pro Display&quot;,&quot;SF Pro Text&quot;,Helvetica,sans-serif;" transform="matrix(1 0 0 1 263 726)">Small</text>
  <text style="stroke:none;fill:black;font-family:-apple-system,&quot;SF Pro Display&quot;,&quot;SF Pro Text&quot;,Helvetica,sans-serif;" transform="matrix(1 0 0 1 263 1156)">Medium</text>
  <text style="stroke:none;fill:black;font-family:-apple-system,&quot;SF Pro Display&quot;,&quot;SF Pro Text&quot;,Helvetica,sans-serif;" transform="matrix(1 0 0 1 263 1586)">Large</text>
 </g>
 <g id="Guides">
  <g id="H-reference" style="fill:#27AAE1;stroke:none;" transform="matrix(1 0 0 1 339 696)">
   <path d="M0.976562 0L3.66211 0L12.9883-24.4629L45.752-24.4629L55.127 0L57.7637 0L30.6152-70.459L28.125-70.459ZM29.3457-67.1387L29.4434-67.1387L44.873-26.709L13.8672-26.709Z"/>
  </g>
  <line id="Baseline-S" style="fill:none;stroke:#27AAE1;opacity:1;stroke-width:0.5;" x1="263" x2="3036" y1="696" y2="696"/>
  <line id="Capline-S" style="fill:none;stroke:#27AAE1;opacity:1;stroke-width:0.5;" x1="263" x2="3036" y1="625.541" y2="625.541"/>
  <g id="H-reference" style="fill:#27AAE1;stroke:none;" transform="matrix(1 0 0 1 339 1126)">
   <path d="M0.976562 0L3.66211 0L12.9883-24.4629L45.752-24.4629L55.127 0L57.7637 0L30.6152-70.459L28.125-70.459ZM29.3457-67.1387L29.4434-67.1387L44.873-26.709L13.8672-26.709Z"/>
  </g>
  <line id="Baseline-M" style="fill:none;stroke:#27AAE1;opacity:1;stroke-width:0.5;" x1="263" x2="3036" y1="1126" y2="1126"/>
  <line id="Capline-M" style="fill:none;stroke:#27AAE1;opacity:1;stroke-width:0.5;" x1="263" x2="3036" y1="1055.54" y2="1055.54"/>
  <g id="H-reference" style="fill:#27AAE1;stroke:none;" transform="matrix(1 0 0 1 339 1556)">
   <path d="M0.976562 0L3.66211 0L12.9883-24.4629L45.752-24.4629L55.127 0L57.7637 0L30.6152-70.459L28.125-70.459ZM29.3457-67.1387L29.4434-67.1387L44.873-26.709L13.8672-26.709Z"/>
  </g>
  <line id="Baseline-L" style="fill:none;stroke:#27AAE1;opacity:1;stroke-width:0.5;" x1="263" x2="3036" y1="1556" y2="1556"/>
  <line id="Capline-L" style="fill:none;stroke:#27AAE1;opacity:1;stroke-width:0.5;" x1="263" x2="3036" y1="1485.54" y2="1485.54"/>
  <line id="left-margin" x1="1415.9000195312499" x2="1415.9000195312499" y1="1030.79" y2="1150.12" style="fill:none;stroke:#00AEEF;stroke-width:0.5;opacity:1.0;"/>
  <line id="right-margin" x1="1486.3599804687499" x2="1486.3599804687499" y1="1030.79" y2="1150.12" style="fill:none;stroke:#00AEEF;stroke-width:0.5;opacity:1.0;"/>
 </g>
 <g id="Symbols">
  <g id="Black-L" transform="matrix(1.0,0.0,0.0,1.0,2889.2333251953123,1475.3233447265625)">  <path stroke-linejoin="round" opacity="1" stroke-miterlimit="10" stroke-linecap="round" xml:space="preserve" xmlns:xlink="http://www.w3.org/1999/xlink" fill="#000000" stroke="none" xmlns:vectornator="http://vectornator.io" vectornator:layerName="レイヤー 1" version="1.1" stroke-opacity="1" stroke-width="1px" fill-opacity="1" clip-rule="evenodd" stroke-dasharray="none" fill-rule="nonzero" d="M45.451,0.785C42.924,0.785,40.789,1.675,39.028,3.451C37.276,5.226,36.4,7.379,36.4,9.898C36.4,12.319,37.267,14.429,39.028,16.22C40.789,18.012,42.933,18.917,45.451,18.917C47.935,18.917,50.07,18.012,51.831,16.22C53.592,14.429,54.468,12.319,54.468,9.898C54.468,7.38,53.592,5.226,51.831,3.451C50.07,1.675,47.935,0.785,45.451,0.785ZM45.451,22.698C41.121,22.698,37.522,23.084,34.63,23.906C31.738,24.73,29.577,26.208,28.122,28.338C26.668,30.469,25.919,33.483,25.919,37.357L25.919,57.008C25.919,58.299,26.268,59.304,26.94,60.014C27.62,60.724,28.513,61.099,29.611,61.099C30.708,61.099,31.61,60.724,32.308,60.014C32.997,59.304,33.329,58.299,33.329,57.008L33.329,37.172C33.329,36.106,33.788,35.56,34.664,35.56C35.566,35.56,35.991,36.106,35.991,37.172L35.991,85.676C35.991,87.097,36.408,88.204,37.199,88.962C37.99,89.721,38.952,90.109,40.117,90.109C41.308,90.109,42.303,89.721,43.095,88.962C43.886,88.204,44.303,87.097,44.303,85.676L44.303,56.667C44.303,55.343,45.451,55.117,45.451,55.117C45.451,55.117,46.625,55.343,46.625,56.667L46.625,85.676C46.625,87.097,47.008,88.204,47.799,88.962C48.59,89.721,49.585,90.109,50.776,90.109C51.942,90.109,52.929,89.721,53.72,88.962C54.511,88.204,54.902,87.097,54.902,85.676L54.902,37.172C54.902,36.106,55.362,35.56,56.263,35.56C57.131,35.56,57.565,36.106,57.565,37.172L57.565,57.008C57.565,58.299,57.897,59.304,58.586,60.014C59.283,60.724,60.185,61.099,61.282,61.099C62.38,61.099,63.273,60.724,63.954,60.014C64.626,59.304,64.975,58.299,64.975,57.008L64.975,37.357C64.975,33.483,64.226,30.469,62.771,28.338C61.317,26.208,59.156,24.73,56.263,23.906C53.371,23.084,49.772,22.698,45.451,22.698ZM45.451,22.698"/>
</g>
  <g id="Heavy-L" transform="matrix(1.0,0.0,0.0,1.0,2592.5233251953123,1475.3233447265625)">  <path xmlns:xlink="http://www.w3.org/1999/xlink" fill-rule="nonzero" stroke-opacity="1" clip-rule="evenodd" stroke-dasharray="none" stroke-miterlimit="10" opacity="1" version="1.1" stroke-width="1px" fill="#000000" xmlns:vectornator="http://vectornator.io" stroke-linejoin="round" stroke-linecap="round" xml:space="preserve" vectornator:layerName="レイヤー 1" fill-opacity="1" stroke="none" d="M45.451,0.785C42.924,0.785,40.789,1.675,39.028,3.451C37.276,5.226,36.4,7.379,36.4,9.898C36.4,12.319,37.267,14.429,39.028,16.22C40.789,18.012,42.933,18.917,45.451,18.917C47.935,18.917,50.07,18.012,51.831,16.22C53.592,14.429,54.468,12.319,54.468,9.898C54.468,7.38,53.592,5.226,51.831,3.451C50.07,1.675,47.935,0.785,45.451,0.785ZM45.451,22.698C41.121,22.698,37.522,23.084,34.63,23.906C31.738,24.73,29.577,26.208,28.122,28.338C26.668,30.469,25.919,33.483,25.919,37.357L25.919,57.008C25.919,58.299,26.268,59.304,26.94,60.014C27.62,60.724,28.513,61.099,29.611,61.099C30.708,61.099,31.61,60.724,32.308,60.014C32.997,59.304,33.329,58.299,33.329,57.008L33.329,37.172C33.329,36.106,33.788,35.56,34.664,35.56C35.566,35.56,35.991,36.106,35.991,37.172L35.991,85.676C35.991,87.097,36.408,88.204,37.199,88.962C37.99,89.721,38.952,90.109,40.117,90.109C41.308,90.109,42.303,89.721,43.095,88.962C43.886,88.204,44.303,87.097,44.303,85.676L44.303,56.667C44.303,55.343,45.451,55.117,45.451,55.117C45.451,55.117,46.625,55.343,46.625,56.667L46.625,85.676C46.625,87.097,47.008,88.204,47.799,88.962C48.59,89.721,49.585,90.109,50.776,90.109C51.942,90.109,52.929,89.721,53.72,88.962C54.511,88.204,54.902,87.097,54.902,85.676L54.902,37.172C54.902,36.106,55.362,35.56,56.263,35.56C57.131,35.56,57.565,36.106,57.565,37.172L57.565,57.008C57.565,58.299,57.897,59.304,58.586,60.014C59.283,60.724,60.185,61.099,61.282,61.099C62.38,61.099,63.273,60.724,63.954,60.014C64.626,59.304,64.975,58.299,64.975,57.008L64.975,37.357C64.975,33.483,64.226,30.469,62.771,28.338C61.317,26.208,59.156,24.73,56.263,23.906C53.371,23.084,49.772,22.698,45.451,22.698ZM45.451,22.698"/>
</g>
  <g id="Bold-L" transform="matrix(1.0,0.0,0.0,1.0,2295.8133251953122,1475.3233447265625)">  <path fill-opacity="1" stroke-linecap="round" stroke-opacity="1" clip-rule="evenodd" stroke-dasharray="none" vectornator:layerName="レイヤー 1" fill="#000000" stroke-linejoin="round" opacity="1" xmlns:xlink="http://www.w3.org/1999/xlink" stroke-width="1px" xml:space="preserve" stroke="none" fill-rule="nonzero" xmlns:vectornator="http://vectornator.io" stroke-miterlimit="10" version="1.1" d="M45.451,0.785C42.924,0.785,40.789,1.675,39.028,3.451C37.276,5.226,36.4,7.379,36.4,9.898C36.4,12.319,37.267,14.429,39.028,16.22C40.789,18.012,42.933,18.917,45.451,18.917C47.935,18.917,50.07,18.012,51.831,16.22C53.592,14.429,54.468,12.319,54.468,9.898C54.468,7.38,53.592,5.226,51.831,3.451C50.07,1.675,47.935,0.785,45.451,0.785ZM45.451,22.698C41.121,22.698,37.522,23.084,34.63,23.906C31.738,24.73,29.577,26.208,28.122,28.338C26.668,30.469,25.919,33.483,25.919,37.357L25.919,57.008C25.919,58.299,26.268,59.304,26.94,60.014C27.62,60.724,28.513,61.099,29.611,61.099C30.708,61.099,31.61,60.724,32.308,60.014C32.997,59.304,33.329,58.299,33.329,57.008L33.329,37.172C33.329,36.106,33.788,35.56,34.664,35.56C35.566,35.56,35.991,36.106,35.991,37.172L35.991,85.676C35.991,87.097,36.408,88.204,37.199,88.962C37.99,89.721,38.952,90.109,40.117,90.109C41.308,90.109,42.303,89.721,43.095,88.962C43.886,88.204,44.303,87.097,44.303,85.676L44.303,56.667C44.303,55.343,45.451,55.117,45.451,55.117C45.451,55.117,46.625,55.343,46.625,56.667L46.625,85.676C46.625,87.097,47.008,88.204,47.799,88.962C48.59,89.721,49.585,90.109,50.776,90.109C51.942,90.109,52.929,89.721,53.72,88.962C54.511,88.204,54.902,87.097,54.902,85.676L54.902,37.172C54.902,36.106,55.362,35.56,56.263,35.56C57.131,35.56,57.565,36.106,57.565,37.172L57.565,57.008C57.565,58.299,57.897,59.304,58.586,60.014C59.283,60.724,60.185,61.099,61.282,61.099C62.38,61.099,63.273,60.724,63.954,60.014C64.626,59.304,64.975,58.299,64.975,57.008L64.975,37.357C64.975,33.483,64.226,30.469,62.771,28.338C61.317,26.208,59.156,24.73,56.263,23.906C53.371,23.084,49.772,22.698,45.451,22.698ZM45.451,22.698"/>
</g>
  <g id="Semibold-L" transform="matrix(1.0,0.0,0.0,1.0,1999.1033251953124,1475.3233447265625)">  <path fill-opacity="1" stroke-width="1px" stroke-opacity="1" fill="#000000" vectornator:layerName="レイヤー 1" opacity="1" version="1.1" stroke-dasharray="none" stroke-linecap="round" xmlns:xlink="http://www.w3.org/1999/xlink" fill-rule="nonzero" stroke-miterlimit="10" stroke-linejoin="round" xmlns:vectornator="http://vectornator.io" xml:space="preserve" clip-rule="evenodd" stroke="none" d="M45.451,0.785C42.924,0.785,40.789,1.675,39.028,3.451C37.276,5.226,36.4,7.379,36.4,9.898C36.4,12.319,37.267,14.429,39.028,16.22C40.789,18.012,42.933,18.917,45.451,18.917C47.935,18.917,50.07,18.012,51.831,16.22C53.592,14.429,54.468,12.319,54.468,9.898C54.468,7.38,53.592,5.226,51.831,3.451C50.07,1.675,47.935,0.785,45.451,0.785ZM45.451,22.698C41.121,22.698,37.522,23.084,34.63,23.906C31.738,24.73,29.577,26.208,28.122,28.338C26.668,30.469,25.919,33.483,25.919,37.357L25.919,57.008C25.919,58.299,26.268,59.304,26.94,60.014C27.62,60.724,28.513,61.099,29.611,61.099C30.708,61.099,31.61,60.724,32.308,60.014C32.997,59.304,33.329,58.299,33.329,57.008L33.329,37.172C33.329,36.106,33.788,35.56,34.664,35.56C35.566,35.56,35.991,36.106,35.991,37.172L35.991,85.676C35.991,87.097,36.408,88.204,37.199,88.962C37.99,89.721,38.952,90.109,40.117,90.109C41.308,90.109,42.303,89.721,43.095,88.962C43.886,88.204,44.303,87.097,44.303,85.676L44.303,56.667C44.303,55.343,45.451,55.117,45.451,55.117C45.451,55.117,46.625,55.343,46.625,56.667L46.625,85.676C46.625,87.097,47.008,88.204,47.799,88.962C48.59,89.721,49.585,90.109,50.776,90.109C51.942,90.109,52.929,89.721,53.72,88.962C54.511,88.204,54.902,87.097,54.902,85.676L54.902,37.172C54.902,36.106,55.362,35.56,56.263,35.56C57.131,35.56,57.565,36.106,57.565,37.172L57.565,57.008C57.565,58.299,57.897,59.304,58.586,60.014C59.283,60.724,60.185,61.099,61.282,61.099C62.38,61.099,63.273,60.724,63.954,60.014C64.626,59.304,64.975,58.299,64.975,57.008L64.975,37.357C64.975,33.483,64.226,30.469,62.771,28.338C61.317,26.208,59.156,24.73,56.263,23.906C53.371,23.084,49.772,22.698,45.451,22.698ZM45.451,22.698"/>
</g>
  <g id="Medium-L" transform="matrix(1.0,0.0,0.0,1.0,1702.3933251953124,1475.3233447265625)">  <path version="1.1" stroke-linecap="round" stroke-width="1px" stroke-linejoin="round" clip-rule="evenodd" xmlns:vectornator="http://vectornator.io" opacity="1" stroke="none" stroke-miterlimit="10" xml:space="preserve" xmlns:xlink="http://www.w3.org/1999/xlink" stroke-dasharray="none" stroke-opacity="1" fill-opacity="1" vectornator:layerName="レイヤー 1" fill="#000000" fill-rule="nonzero" d="M45.451,0.785C42.924,0.785,40.789,1.675,39.028,3.451C37.276,5.226,36.4,7.379,36.4,9.898C36.4,12.319,37.267,14.429,39.028,16.22C40.789,18.012,42.933,18.917,45.451,18.917C47.935,18.917,50.07,18.012,51.831,16.22C53.592,14.429,54.468,12.319,54.468,9.898C54.468,7.38,53.592,5.226,51.831,3.451C50.07,1.675,47.935,0.785,45.451,0.785ZM45.451,22.698C41.121,22.698,37.522,23.084,34.63,23.906C31.738,24.73,29.577,26.208,28.122,28.338C26.668,30.469,25.919,33.483,25.919,37.357L25.919,57.008C25.919,58.299,26.268,59.304,26.94,60.014C27.62,60.724,28.513,61.099,29.611,61.099C30.708,61.099,31.61,60.724,32.308,60.014C32.997,59.304,33.329,58.299,33.329,57.008L33.329,37.172C33.329,36.106,33.788,35.56,34.664,35.56C35.566,35.56,35.991,36.106,35.991,37.172L35.991,85.676C35.991,87.097,36.408,88.204,37.199,88.962C37.99,89.721,38.952,90.109,40.117,90.109C41.308,90.109,42.303,89.721,43.095,88.962C43.886,88.204,44.303,87.097,44.303,85.676L44.303,56.667C44.303,55.343,45.451,55.117,45.451,55.117C45.451,55.117,46.625,55.343,46.625,56.667L46.625,85.676C46.625,87.097,47.008,88.204,47.799,88.962C48.59,89.721,49.585,90.109,50.776,90.109C51.942,90.109,52.929,89.721,53.72,88.962C54.511,88.204,54.902,87.097,54.902,85.676L54.902,37.172C54.902,36.106,55.362,35.56,56.263,35.56C57.131,35.56,57.565,36.106,57.565,37.172L57.565,57.008C57.565,58.299,57.897,59.304,58.586,60.014C59.283,60.724,60.185,61.099,61.282,61.099C62.38,61.099,63.273,60.724,63.954,60.014C64.626,59.304,64.975,58.299,64.975,57.008L64.975,37.357C64.975,33.483,64.226,30.469,62.771,28.338C61.317,26.208,59.156,24.73,56.263,23.906C53.371,23.084,49.772,22.698,45.451,22.698ZM45.451,22.698"/>
</g>
  <g id="Regular-L" transform="matrix(1.0,0.0,0.0,1.0,1405.6833251953124,1475.3233447265625)">  <path xmlns:xlink="http://www.w3.org/1999/xlink" xmlns:vectornator="http://vectornator.io" stroke-miterlimit="10" fill="#000000" stroke-width="1px" stroke="none" stroke-opacity="1" vectornator:layerName="レイヤー 1" clip-rule="evenodd" opacity="1" stroke-linejoin="round" stroke-linecap="round" version="1.1" fill-opacity="1" xml:space="preserve" fill-rule="nonzero" stroke-dasharray="none" d="M45.451,0.785C42.924,0.785,40.789,1.675,39.028,3.451C37.276,5.226,36.4,7.379,36.4,9.898C36.4,12.319,37.267,14.429,39.028,16.22C40.789,18.012,42.933,18.917,45.451,18.917C47.935,18.917,50.07,18.012,51.831,16.22C53.592,14.429,54.468,12.319,54.468,9.898C54.468,7.38,53.592,5.226,51.831,3.451C50.07,1.675,47.935,0.785,45.451,0.785ZM45.451,22.698C41.121,22.698,37.522,23.084,34.63,23.906C31.738,24.73,29.577,26.208,28.122,28.338C26.668,30.469,25.919,33.483,25.919,37.357L25.919,57.008C25.919,58.299,26.268,59.304,26.94,60.014C27.62,60.724,28.513,61.099,29.611,61.099C30.708,61.099,31.61,60.724,32.308,60.014C32.997,59.304,33.329,58.299,33.329,57.008L33.329,37.172C33.329,36.106,33.788,35.56,34.664,35.56C35.566,35.56,35.991,36.106,35.991,37.172L35.991,85.676C35.991,87.097,36.408,88.204,37.199,88.962C37.99,89.721,38.952,90.109,40.117,90.109C41.308,90.109,42.303,89.721,43.095,88.962C43.886,88.204,44.303,87.097,44.303,85.676L44.303,56.667C44.303,55.343,45.451,55.117,45.451,55.117C45.451,55.117,46.625,55.343,46.625,56.667L46.625,85.676C46.625,87.097,47.008,88.204,47.799,88.962C48.59,89.721,49.585,90.109,50.776,90.109C51.942,90.109,52.929,89.721,53.72,88.962C54.511,88.204,54.902,87.097,54.902,85.676L54.902,37.172C54.902,36.106,55.362,35.56,56.263,35.56C57.131,35.56,57.565,36.106,57.565,37.172L57.565,57.008C57.565,58.299,57.897,59.304,58.586,60.014C59.283,60.724,60.185,61.099,61.282,61.099C62.38,61.099,63.273,60.724,63.954,60.014C64.626,59.304,64.975,58.299,64.975,57.008L64.975,37.357C64.975,33.483,64.226,30.469,62.771,28.338C61.317,26.208,59.156,24.73,56.263,23.906C53.371,23.084,49.772,22.698,45.451,22.698ZM45.451,22.698"/>
</g>
  <g id="Light-L" transform="matrix(1.0,0.0,0.0,1.0,1108.9733251953126,1475.3233447265625)">  <path opacity="1" stroke-linejoin="round" stroke="none" stroke-opacity="1" stroke-linecap="round" fill-rule="nonzero" version="1.1" fill-opacity="1" stroke-width="1px" stroke-miterlimit="10" stroke-dasharray="none" xmlns:xlink="http://www.w3.org/1999/xlink" fill="#000000" xmlns:vectornator="http://vectornator.io" clip-rule="evenodd" vectornator:layerName="レイヤー 1" xml:space="preserve" d="M45.451,0.785C42.924,0.785,40.789,1.675,39.028,3.451C37.276,5.226,36.4,7.379,36.4,9.898C36.4,12.319,37.267,14.429,39.028,16.22C40.789,18.012,42.933,18.917,45.451,18.917C47.935,18.917,50.07,18.012,51.831,16.22C53.592,14.429,54.468,12.319,54.468,9.898C54.468,7.38,53.592,5.226,51.831,3.451C50.07,1.675,47.935,0.785,45.451,0.785ZM45.451,22.698C41.121,22.698,37.522,23.084,34.63,23.906C31.738,24.73,29.577,26.208,28.122,28.338C26.668,30.469,25.919,33.483,25.919,37.357L25.919,57.008C25.919,58.299,26.268,59.304,26.94,60.014C27.62,60.724,28.513,61.099,29.611,61.099C30.708,61.099,31.61,60.724,32.308,60.014C32.997,59.304,33.329,58.299,33.329,57.008L33.329,37.172C33.329,36.106,33.788,35.56,34.664,35.56C35.566,35.56,35.991,36.106,35.991,37.172L35.991,85.676C35.991,87.097,36.408,88.204,37.199,88.962C37.99,89.721,38.952,90.109,40.117,90.109C41.308,90.109,42.303,89.721,43.095,88.962C43.886,88.204,44.303,87.097,44.303,85.676L44.303,56.667C44.303,55.343,45.451,55.117,45.451,55.117C45.451,55.117,46.625,55.343,46.625,56.667L46.625,85.676C46.625,87.097,47.008,88.204,47.799,88.962C48.59,89.721,49.585,90.109,50.776,90.109C51.942,90.109,52.929,89.721,53.72,88.962C54.511,88.204,54.902,87.097,54.902,85.676L54.902,37.172C54.902,36.106,55.362,35.56,56.263,35.56C57.131,35.56,57.565,36.106,57.565,37.172L57.565,57.008C57.565,58.299,57.897,59.304,58.586,60.014C59.283,60.724,60.185,61.099,61.282,61.099C62.38,61.099,63.273,60.724,63.954,60.014C64.626,59.304,64.975,58.299,64.975,57.008L64.975,37.357C64.975,33.483,64.226,30.469,62.771,28.338C61.317,26.208,59.156,24.73,56.263,23.906C53.371,23.084,49.772,22.698,45.451,22.698ZM45.451,22.698"/>
</g>
  <g id="Thin-L" transform="matrix(1.0,0.0,0.0,1.0,812.2633251953125,1475.3233447265625)">  <path stroke-miterlimit="10" version="1.1" xml:space="preserve" stroke-opacity="1" stroke="none" fill-opacity="1" vectornator:layerName="レイヤー 1" opacity="1" clip-rule="evenodd" stroke-linejoin="round" fill-rule="nonzero" stroke-dasharray="none" xmlns:xlink="http://www.w3.org/1999/xlink" xmlns:vectornator="http://vectornator.io" stroke-linecap="round" fill="#000000" stroke-width="1px" d="M45.451,0.785C42.924,0.785,40.789,1.675,39.028,3.451C37.276,5.226,36.4,7.379,36.4,9.898C36.4,12.319,37.267,14.429,39.028,16.22C40.789,18.012,42.933,18.917,45.451,18.917C47.935,18.917,50.07,18.012,51.831,16.22C53.592,14.429,54.468,12.319,54.468,9.898C54.468,7.38,53.592,5.226,51.831,3.451C50.07,1.675,47.935,0.785,45.451,0.785ZM45.451,22.698C41.121,22.698,37.522,23.084,34.63,23.906C31.738,24.73,29.577,26.208,28.122,28.338C26.668,30.469,25.919,33.483,25.919,37.357L25.919,57.008C25.919,58.299,26.268,59.304,26.94,60.014C27.62,60.724,28.513,61.099,29.611,61.099C30.708,61.099,31.61,60.724,32.308,60.014C32.997,59.304,33.329,58.299,33.329,57.008L33.329,37.172C33.329,36.106,33.788,35.56,34.664,35.56C35.566,35.56,35.991,36.106,35.991,37.172L35.991,85.676C35.991,87.097,36.408,88.204,37.199,88.962C37.99,89.721,38.952,90.109,40.117,90.109C41.308,90.109,42.303,89.721,43.095,88.962C43.886,88.204,44.303,87.097,44.303,85.676L44.303,56.667C44.303,55.343,45.451,55.117,45.451,55.117C45.451,55.117,46.625,55.343,46.625,56.667L46.625,85.676C46.625,87.097,47.008,88.204,47.799,88.962C48.59,89.721,49.585,90.109,50.776,90.109C51.942,90.109,52.929,89.721,53.72,88.962C54.511,88.204,54.902,87.097,54.902,85.676L54.902,37.172C54.902,36.106,55.362,35.56,56.263,35.56C57.131,35.56,57.565,36.106,57.565,37.172L57.565,57.008C57.565,58.299,57.897,59.304,58.586,60.014C59.283,60.724,60.185,61.099,61.282,61.099C62.38,61.099,63.273,60.724,63.954,60.014C64.626,59.304,64.975,58.299,64.975,57.008L64.975,37.357C64.975,33.483,64.226,30.469,62.771,28.338C61.317,26.208,59.156,24.73,56.263,23.906C53.371,23.084,49.772,22.698,45.451,22.698ZM45.451,22.698"/>
</g>
  <g id="Ultralight-L" transform="matrix(1.0,0.0,0.0,1.0,515.5533251953125,1475.3233447265625)">  <path fill-opacity="1" stroke-miterlimit="10" stroke="none" stroke-dasharray="none" stroke-width="1px" opacity="1" fill-rule="nonzero" vectornator:layerName="レイヤー 1" stroke-opacity="1" version="1.1" xmlns:xlink="http://www.w3.org/1999/xlink" stroke-linecap="round" clip-rule="evenodd" fill="#000000" xmlns:vectornator="http://vectornator.io" xml:space="preserve" stroke-linejoin="round" d="M45.451,0.785C42.924,0.785,40.789,1.675,39.028,3.451C37.276,5.226,36.4,7.379,36.4,9.898C36.4,12.319,37.267,14.429,39.028,16.22C40.789,18.012,42.933,18.917,45.451,18.917C47.935,18.917,50.07,18.012,51.831,16.22C53.592,14.429,54.468,12.319,54.468,9.898C54.468,7.38,53.592,5.226,51.831,3.451C50.07,1.675,47.935,0.785,45.451,0.785ZM45.451,22.698C41.121,22.698,37.522,23.084,34.63,23.906C31.738,24.73,29.577,26.208,28.122,28.338C26.668,30.469,25.919,33.483,25.919,37.357L25.919,57.008C25.919,58.299,26.268,59.304,26.94,60.014C27.62,60.724,28.513,61.099,29.611,61.099C30.708,61.099,31.61,60.724,32.308,60.014C32.997,59.304,33.329,58.299,33.329,57.008L33.329,37.172C33.329,36.106,33.788,35.56,34.664,35.56C35.566,35.56,35.991,36.106,35.991,37.172L35.991,85.676C35.991,87.097,36.408,88.204,37.199,88.962C37.99,89.721,38.952,90.109,40.117,90.109C41.308,90.109,42.303,89.721,43.095,88.962C43.886,88.204,44.303,87.097,44.303,85.676L44.303,56.667C44.303,55.343,45.451,55.117,45.451,55.117C45.451,55.117,46.625,55.343,46.625,56.667L46.625,85.676C46.625,87.097,47.008,88.204,47.799,88.962C48.59,89.721,49.585,90.109,50.776,90.109C51.942,90.109,52.929,89.721,53.72,88.962C54.511,88.204,54.902,87.097,54.902,85.676L54.902,37.172C54.902,36.106,55.362,35.56,56.263,35.56C57.131,35.56,57.565,36.106,57.565,37.172L57.565,57.008C57.565,58.299,57.897,59.304,58.586,60.014C59.283,60.724,60.185,61.099,61.282,61.099C62.38,61.099,63.273,60.724,63.954,60.014C64.626,59.304,64.975,58.299,64.975,57.008L64.975,37.357C64.975,33.483,64.226,30.469,62.771,28.338C61.317,26.208,59.156,24.73,56.263,23.906C53.371,23.084,49.772,22.698,45.451,22.698ZM45.451,22.698"/>
</g>
  <g id="Black-M" transform="matrix(1.0,0.0,0.0,1.0,2899.45001953125,1055.5400390625)">  <path stroke-linejoin="round" opacity="1" stroke-miterlimit="10" stroke-linecap="round" xml:space="preserve" xmlns:xlink="http://www.w3.org/1999/xlink" fill="#000000" stroke="none" xmlns:vectornator="http://vectornator.io" vectornator:layerName="レイヤー 1" version="1.1" stroke-opacity="1" stroke-width="1px" fill-opacity="1" clip-rule="evenodd" stroke-dasharray="none" fill-rule="nonzero" d="M35.233,0.608C33.275,0.608,31.62,1.298,30.254,2.675C28.896,4.052,28.217,5.72,28.217,7.673C28.217,9.549,28.889,11.185,30.254,12.574C31.62,13.962,33.281,14.664,35.233,14.664C37.159,14.664,38.814,13.962,40.179,12.574C41.544,11.185,42.223,9.549,42.223,7.673C42.223,5.721,41.544,4.052,40.179,2.675C38.814,1.298,37.159,0.608,35.233,0.608ZM35.233,17.595C31.877,17.595,29.087,17.894,26.845,18.532C24.603,19.17,22.928,20.316,21.8,21.968C20.672,23.62,20.092,25.956,20.092,28.959L20.092,44.192C20.092,45.193,20.363,45.972,20.884,46.523C21.411,47.073,22.103,47.363,22.954,47.363C23.805,47.363,24.504,47.073,25.045,46.523C25.579,45.972,25.836,45.193,25.836,44.192L25.836,28.815C25.836,27.989,26.192,27.566,26.871,27.566C27.57,27.566,27.9,27.989,27.9,28.815L27.9,66.416C27.9,67.517,28.223,68.375,28.836,68.963C29.45,69.551,30.195,69.852,31.099,69.852C32.022,69.852,32.793,69.551,33.407,68.963C34.02,68.375,34.343,67.517,34.343,66.416L34.343,43.928C34.343,42.901,35.233,42.726,35.233,42.726C35.233,42.726,36.143,42.901,36.143,43.928L36.143,66.416C36.143,67.517,36.44,68.375,37.053,68.963C37.667,69.551,38.438,69.852,39.362,69.852C40.265,69.852,41.03,69.551,41.643,68.963C42.257,68.375,42.56,67.517,42.56,66.416L42.56,28.815C42.56,27.989,42.916,27.566,43.615,27.566C44.288,27.566,44.624,27.989,44.624,28.815L44.624,44.192C44.624,45.193,44.881,45.972,45.415,46.523C45.956,47.073,46.655,47.363,47.506,47.363C48.357,47.363,49.049,47.073,49.577,46.523C50.097,45.972,50.368,45.193,50.368,44.192L50.368,28.959C50.368,25.956,49.787,23.62,48.66,21.968C47.532,20.316,45.857,19.17,43.615,18.532C41.373,17.894,38.583,17.595,35.233,17.595ZM35.233,17.595"/>
</g>
  <g id="Heavy-M" transform="matrix(1.0,0.0,0.0,1.0,2602.74001953125,1055.5400390625)">  <path xmlns:xlink="http://www.w3.org/1999/xlink" fill-rule="nonzero" stroke-opacity="1" clip-rule="evenodd" stroke-dasharray="none" stroke-miterlimit="10" opacity="1" version="1.1" stroke-width="1px" fill="#000000" xmlns:vectornator="http://vectornator.io" stroke-linejoin="round" stroke-linecap="round" xml:space="preserve" vectornator:layerName="レイヤー 1" fill-opacity="1" stroke="none" d="M35.233,0.608C33.275,0.608,31.62,1.298,30.254,2.675C28.896,4.052,28.217,5.72,28.217,7.673C28.217,9.549,28.889,11.185,30.254,12.574C31.62,13.962,33.281,14.664,35.233,14.664C37.159,14.664,38.814,13.962,40.179,12.574C41.544,11.185,42.223,9.549,42.223,7.673C42.223,5.721,41.544,4.052,40.179,2.675C38.814,1.298,37.159,0.608,35.233,0.608ZM35.233,17.595C31.877,17.595,29.087,17.894,26.845,18.532C24.603,19.17,22.928,20.316,21.8,21.968C20.672,23.62,20.092,25.956,20.092,28.959L20.092,44.192C20.092,45.193,20.363,45.972,20.884,46.523C21.411,47.073,22.103,47.363,22.954,47.363C23.805,47.363,24.504,47.073,25.045,46.523C25.579,45.972,25.836,45.193,25.836,44.192L25.836,28.815C25.836,27.989,26.192,27.566,26.871,27.566C27.57,27.566,27.9,27.989,27.9,28.815L27.9,66.416C27.9,67.517,28.223,68.375,28.836,68.963C29.45,69.551,30.195,69.852,31.099,69.852C32.022,69.852,32.793,69.551,33.407,68.963C34.02,68.375,34.343,67.517,34.343,66.416L34.343,43.928C34.343,42.901,35.233,42.726,35.233,42.726C35.233,42.726,36.143,42.901,36.143,43.928L36.143,66.416C36.143,67.517,36.44,68.375,37.053,68.963C37.667,69.551,38.438,69.852,39.362,69.852C40.265,69.852,41.03,69.551,41.643,68.963C42.257,68.375,42.56,67.517,42.56,66.416L42.56,28.815C42.56,27.989,42.916,27.566,43.615,27.566C44.288,27.566,44.624,27.989,44.624,28.815L44.624,44.192C44.624,45.193,44.881,45.972,45.415,46.523C45.956,47.073,46.655,47.363,47.506,47.363C48.357,47.363,49.049,47.073,49.577,46.523C50.097,45.972,50.368,45.193,50.368,44.192L50.368,28.959C50.368,25.956,49.787,23.62,48.66,21.968C47.532,20.316,45.857,19.17,43.615,18.532C41.373,17.894,38.583,17.595,35.233,17.595ZM35.233,17.595"/>
</g>
  <g id="Bold-M" transform="matrix(1.0,0.0,0.0,1.0,2306.0300195312498,1055.5400390625)">  <path fill-opacity="1" stroke-linecap="round" stroke-opacity="1" clip-rule="evenodd" stroke-dasharray="none" vectornator:layerName="レイヤー 1" fill="#000000" stroke-linejoin="round" opacity="1" xmlns:xlink="http://www.w3.org/1999/xlink" stroke-width="1px" xml:space="preserve" stroke="none" fill-rule="nonzero" xmlns:vectornator="http://vectornator.io" stroke-miterlimit="10" version="1.1" d="M35.233,0.608C33.275,0.608,31.62,1.298,30.254,2.675C28.896,4.052,28.217,5.72,28.217,7.673C28.217,9.549,28.889,11.185,30.254,12.574C31.62,13.962,33.281,14.664,35.233,14.664C37.159,14.664,38.814,13.962,40.179,12.574C41.544,11.185,42.223,9.549,42.223,7.673C42.223,5.721,41.544,4.052,40.179,2.675C38.814,1.298,37.159,0.608,35.233,0.608ZM35.233,17.595C31.877,17.595,29.087,17.894,26.845,18.532C24.603,19.17,22.928,20.316,21.8,21.968C20.672,23.62,20.092,25.956,20.092,28.959L20.092,44.192C20.092,45.193,20.363,45.972,20.884,46.523C21.411,47.073,22.103,47.363,22.954,47.363C23.805,47.363,24.504,47.073,25.045,46.523C25.579,45.972,25.836,45.193,25.836,44.192L25.836,28.815C25.836,27.989,26.192,27.566,26.871,27.566C27.57,27.566,27.9,27.989,27.9,28.815L27.9,66.416C27.9,67.517,28.223,68.375,28.836,68.963C29.45,69.551,30.195,69.852,31.099,69.852C32.022,69.852,32.793,69.551,33.407,68.963C34.02,68.375,34.343,67.517,34.343,66.416L34.343,43.928C34.343,42.901,35.233,42.726,35.233,42.726C35.233,42.726,36.143,42.901,36.143,43.928L36.143,66.416C36.143,67.517,36.44,68.375,37.053,68.963C37.667,69.551,38.438,69.852,39.362,69.852C40.265,69.852,41.03,69.551,41.643,68.963C42.257,68.375,42.56,67.517,42.56,66.416L42.56,28.815C42.56,27.989,42.916,27.566,43.615,27.566C44.288,27.566,44.624,27.989,44.624,28.815L44.624,44.192C44.624,45.193,44.881,45.972,45.415,46.523C45.956,47.073,46.655,47.363,47.506,47.363C48.357,47.363,49.049,47.073,49.577,46.523C50.097,45.972,50.368,45.193,50.368,44.192L50.368,28.959C50.368,25.956,49.787,23.62,48.66,21.968C47.532,20.316,45.857,19.17,43.615,18.532C41.373,17.894,38.583,17.595,35.233,17.595ZM35.233,17.595"/>
</g>
  <g id="Semibold-M" transform="matrix(1.0,0.0,0.0,1.0,2009.32001953125,1055.5400390625)">  <path fill-opacity="1" stroke-width="1px" stroke-opacity="1" fill="#000000" vectornator:layerName="レイヤー 1" opacity="1" version="1.1" stroke-dasharray="none" stroke-linecap="round" xmlns:xlink="http://www.w3.org/1999/xlink" fill-rule="nonzero" stroke-miterlimit="10" stroke-linejoin="round" xmlns:vectornator="http://vectornator.io" xml:space="preserve" clip-rule="evenodd" stroke="none" d="M35.233,0.608C33.275,0.608,31.62,1.298,30.254,2.675C28.896,4.052,28.217,5.72,28.217,7.673C28.217,9.549,28.889,11.185,30.254,12.574C31.62,13.962,33.281,14.664,35.233,14.664C37.159,14.664,38.814,13.962,40.179,12.574C41.544,11.185,42.223,9.549,42.223,7.673C42.223,5.721,41.544,4.052,40.179,2.675C38.814,1.298,37.159,0.608,35.233,0.608ZM35.233,17.595C31.877,17.595,29.087,17.894,26.845,18.532C24.603,19.17,22.928,20.316,21.8,21.968C20.672,23.62,20.092,25.956,20.092,28.959L20.092,44.192C20.092,45.193,20.363,45.972,20.884,46.523C21.411,47.073,22.103,47.363,22.954,47.363C23.805,47.363,24.504,47.073,25.045,46.523C25.579,45.972,25.836,45.193,25.836,44.192L25.836,28.815C25.836,27.989,26.192,27.566,26.871,27.566C27.57,27.566,27.9,27.989,27.9,28.815L27.9,66.416C27.9,67.517,28.223,68.375,28.836,68.963C29.45,69.551,30.195,69.852,31.099,69.852C32.022,69.852,32.793,69.551,33.407,68.963C34.02,68.375,34.343,67.517,34.343,66.416L34.343,43.928C34.343,42.901,35.233,42.726,35.233,42.726C35.233,42.726,36.143,42.901,36.143,43.928L36.143,66.416C36.143,67.517,36.44,68.375,37.053,68.963C37.667,69.551,38.438,69.852,39.362,69.852C40.265,69.852,41.03,69.551,41.643,68.963C42.257,68.375,42.56,67.517,42.56,66.416L42.56,28.815C42.56,27.989,42.916,27.566,43.615,27.566C44.288,27.566,44.624,27.989,44.624,28.815L44.624,44.192C44.624,45.193,44.881,45.972,45.415,46.523C45.956,47.073,46.655,47.363,47.506,47.363C48.357,47.363,49.049,47.073,49.577,46.523C50.097,45.972,50.368,45.193,50.368,44.192L50.368,28.959C50.368,25.956,49.787,23.62,48.66,21.968C47.532,20.316,45.857,19.17,43.615,18.532C41.373,17.894,38.583,17.595,35.233,17.595ZM35.233,17.595"/>
</g>
  <g id="Medium-M" transform="matrix(1.0,0.0,0.0,1.0,1712.61001953125,1055.5400390625)">  <path version="1.1" stroke-linecap="round" stroke-width="1px" stroke-linejoin="round" clip-rule="evenodd" xmlns:vectornator="http://vectornator.io" opacity="1" stroke="none" stroke-miterlimit="10" xml:space="preserve" xmlns:xlink="http://www.w3.org/1999/xlink" stroke-dasharray="none" stroke-opacity="1" fill-opacity="1" vectornator:layerName="レイヤー 1" fill="#000000" fill-rule="nonzero" d="M35.233,0.608C33.275,0.608,31.62,1.298,30.254,2.675C28.896,4.052,28.217,5.72,28.217,7.673C28.217,9.549,28.889,11.185,30.254,12.574C31.62,13.962,33.281,14.664,35.233,14.664C37.159,14.664,38.814,13.962,40.179,12.574C41.544,11.185,42.223,9.549,42.223,7.673C42.223,5.721,41.544,4.052,40.179,2.675C38.814,1.298,37.159,0.608,35.233,0.608ZM35.233,17.595C31.877,17.595,29.087,17.894,26.845,18.532C24.603,19.17,22.928,20.316,21.8,21.968C20.672,23.62,20.092,25.956,20.092,28.959L20.092,44.192C20.092,45.193,20.363,45.972,20.884,46.523C21.411,47.073,22.103,47.363,22.954,47.363C23.805,47.363,24.504,47.073,25.045,46.523C25.579,45.972,25.836,45.193,25.836,44.192L25.836,28.815C25.836,27.989,26.192,27.566,26.871,27.566C27.57,27.566,27.9,27.989,27.9,28.815L27.9,66.416C27.9,67.517,28.223,68.375,28.836,68.963C29.45,69.551,30.195,69.852,31.099,69.852C32.022,69.852,32.793,69.551,33.407,68.963C34.02,68.375,34.343,67.517,34.343,66.416L34.343,43.928C34.343,42.901,35.233,42.726,35.233,42.726C35.233,42.726,36.143,42.901,36.143,43.928L36.143,66.416C36.143,67.517,36.44,68.375,37.053,68.963C37.667,69.551,38.438,69.852,39.362,69.852C40.265,69.852,41.03,69.551,41.643,68.963C42.257,68.375,42.56,67.517,42.56,66.416L42.56,28.815C42.56,27.989,42.916,27.566,43.615,27.566C44.288,27.566,44.624,27.989,44.624,28.815L44.624,44.192C44.624,45.193,44.881,45.972,45.415,46.523C45.956,47.073,46.655,47.363,47.506,47.363C48.357,47.363,49.049,47.073,49.577,46.523C50.097,45.972,50.368,45.193,50.368,44.192L50.368,28.959C50.368,25.956,49.787,23.62,48.66,21.968C47.532,20.316,45.857,19.17,43.615,18.532C41.373,17.894,38.583,17.595,35.233,17.595ZM35.233,17.595"/>
</g>
  <g id="Regular-M" transform="matrix(1.0,0.0,0.0,1.0,1415.9000195312499,1055.5400390625)">  <path xmlns:xlink="http://www.w3.org/1999/xlink" xmlns:vectornator="http://vectornator.io" stroke-miterlimit="10" fill="#000000" stroke-width="1px" stroke="none" stroke-opacity="1" vectornator:layerName="レイヤー 1" clip-rule="evenodd" opacity="1" stroke-linejoin="round" stroke-linecap="round" version="1.1" fill-opacity="1" xml:space="preserve" fill-rule="nonzero" stroke-dasharray="none" d="M35.233,0.608C33.275,0.608,31.62,1.298,30.254,2.675C28.896,4.052,28.217,5.72,28.217,7.673C28.217,9.549,28.889,11.185,30.254,12.574C31.62,13.962,33.281,14.664,35.233,14.664C37.159,14.664,38.814,13.962,40.179,12.574C41.544,11.185,42.223,9.549,42.223,7.673C42.223,5.721,41.544,4.052,40.179,2.675C38.814,1.298,37.159,0.608,35.233,0.608ZM35.233,17.595C31.877,17.595,29.087,17.894,26.845,18.532C24.603,19.17,22.928,20.316,21.8,21.968C20.672,23.62,20.092,25.956,20.092,28.959L20.092,44.192C20.092,45.193,20.363,45.972,20.884,46.523C21.411,47.073,22.103,47.363,22.954,47.363C23.805,47.363,24.504,47.073,25.045,46.523C25.579,45.972,25.836,45.193,25.836,44.192L25.836,28.815C25.836,27.989,26.192,27.566,26.871,27.566C27.57,27.566,27.9,27.989,27.9,28.815L27.9,66.416C27.9,67.517,28.223,68.375,28.836,68.963C29.45,69.551,30.195,69.852,31.099,69.852C32.022,69.852,32.793,69.551,33.407,68.963C34.02,68.375,34.343,67.517,34.343,66.416L34.343,43.928C34.343,42.901,35.233,42.726,35.233,42.726C35.233,42.726,36.143,42.901,36.143,43.928L36.143,66.416C36.143,67.517,36.44,68.375,37.053,68.963C37.667,69.551,38.438,69.852,39.362,69.852C40.265,69.852,41.03,69.551,41.643,68.963C42.257,68.375,42.56,67.517,42.56,66.416L42.56,28.815C42.56,27.989,42.916,27.566,43.615,27.566C44.288,27.566,44.624,27.989,44.624,28.815L44.624,44.192C44.624,45.193,44.881,45.972,45.415,46.523C45.956,47.073,46.655,47.363,47.506,47.363C48.357,47.363,49.049,47.073,49.577,46.523C50.097,45.972,50.368,45.193,50.368,44.192L50.368,28.959C50.368,25.956,49.787,23.62,48.66,21.968C47.532,20.316,45.857,19.17,43.615,18.532C41.373,17.894,38.583,17.595,35.233,17.595ZM35.233,17.595"/>
</g>
  <g id="Light-M" transform="matrix(1.0,0.0,0.0,1.0,1119.19001953125,1055.5400390625)">  <path opacity="1" stroke-linejoin="round" stroke="none" stroke-opacity="1" stroke-linecap="round" fill-rule="nonzero" version="1.1" fill-opacity="1" stroke-width="1px" stroke-miterlimit="10" stroke-dasharray="none" xmlns:xlink="http://www.w3.org/1999/xlink" fill="#000000" xmlns:vectornator="http://vectornator.io" clip-rule="evenodd" vectornator:layerName="レイヤー 1" xml:space="preserve" d="M35.233,0.608C33.275,0.608,31.62,1.298,30.254,2.675C28.896,4.052,28.217,5.72,28.217,7.673C28.217,9.549,28.889,11.185,30.254,12.574C31.62,13.962,33.281,14.664,35.233,14.664C37.159,14.664,38.814,13.962,40.179,12.574C41.544,11.185,42.223,9.549,42.223,7.673C42.223,5.721,41.544,4.052,40.179,2.675C38.814,1.298,37.159,0.608,35.233,0.608ZM35.233,17.595C31.877,17.595,29.087,17.894,26.845,18.532C24.603,19.17,22.928,20.316,21.8,21.968C20.672,23.62,20.092,25.956,20.092,28.959L20.092,44.192C20.092,45.193,20.363,45.972,20.884,46.523C21.411,47.073,22.103,47.363,22.954,47.363C23.805,47.363,24.504,47.073,25.045,46.523C25.579,45.972,25.836,45.193,25.836,44.192L25.836,28.815C25.836,27.989,26.192,27.566,26.871,27.566C27.57,27.566,27.9,27.989,27.9,28.815L27.9,66.416C27.9,67.517,28.223,68.375,28.836,68.963C29.45,69.551,30.195,69.852,31.099,69.852C32.022,69.852,32.793,69.551,33.407,68.963C34.02,68.375,34.343,67.517,34.343,66.416L34.343,43.928C34.343,42.901,35.233,42.726,35.233,42.726C35.233,42.726,36.143,42.901,36.143,43.928L36.143,66.416C36.143,67.517,36.44,68.375,37.053,68.963C37.667,69.551,38.438,69.852,39.362,69.852C40.265,69.852,41.03,69.551,41.643,68.963C42.257,68.375,42.56,67.517,42.56,66.416L42.56,28.815C42.56,27.989,42.916,27.566,43.615,27.566C44.288,27.566,44.624,27.989,44.624,28.815L44.624,44.192C44.624,45.193,44.881,45.972,45.415,46.523C45.956,47.073,46.655,47.363,47.506,47.363C48.357,47.363,49.049,47.073,49.577,46.523C50.097,45.972,50.368,45.193,50.368,44.192L50.368,28.959C50.368,25.956,49.787,23.62,48.66,21.968C47.532,20.316,45.857,19.17,43.615,18.532C41.373,17.894,38.583,17.595,35.233,17.595ZM35.233,17.595"/>
</g>
  <g id="Thin-M" transform="matrix(1.0,0.0,0.0,1.0,822.48001953125,1055.5400390625)">  <path stroke-miterlimit="10" version="1.1" xml:space="preserve" stroke-opacity="1" stroke="none" fill-opacity="1" vectornator:layerName="レイヤー 1" opacity="1" clip-rule="evenodd" stroke-linejoin="round" fill-rule="nonzero" stroke-dasharray="none" xmlns:xlink="http://www.w3.org/1999/xlink" xmlns:vectornator="http://vectornator.io" stroke-linecap="round" fill="#000000" stroke-width="1px" d="M35.233,0.608C33.275,0.608,31.62,1.298,30.254,2.675C28.896,4.052,28.217,5.72,28.217,7.673C28.217,9.549,28.889,11.185,30.254,12.574C31.62,13.962,33.281,14.664,35.233,14.664C37.159,14.664,38.814,13.962,40.179,12.574C41.544,11.185,42.223,9.549,42.223,7.673C42.223,5.721,41.544,4.052,40.179,2.675C38.814,1.298,37.159,0.608,35.233,0.608ZM35.233,17.595C31.877,17.595,29.087,17.894,26.845,18.532C24.603,19.17,22.928,20.316,21.8,21.968C20.672,23.62,20.092,25.956,20.092,28.959L20.092,44.192C20.092,45.193,20.363,45.972,20.884,46.523C21.411,47.073,22.103,47.363,22.954,47.363C23.805,47.363,24.504,47.073,25.045,46.523C25.579,45.972,25.836,45.193,25.836,44.192L25.836,28.815C25.836,27.989,26.192,27.566,26.871,27.566C27.57,27.566,27.9,27.989,27.9,28.815L27.9,66.416C27.9,67.517,28.223,68.375,28.836,68.963C29.45,69.551,30.195,69.852,31.099,69.852C32.022,69.852,32.793,69.551,33.407,68.963C34.02,68.375,34.343,67.517,34.343,66.416L34.343,43.928C34.343,42.901,35.233,42.726,35.233,42.726C35.233,42.726,36.143,42.901,36.143,43.928L36.143,66.416C36.143,67.517,36.44,68.375,37.053,68.963C37.667,69.551,38.438,69.852,39.362,69.852C40.265,69.852,41.03,69.551,41.643,68.963C42.257,68.375,42.56,67.517,42.56,66.416L42.56,28.815C42.56,27.989,42.916,27.566,43.615,27.566C44.288,27.566,44.624,27.989,44.624,28.815L44.624,44.192C44.624,45.193,44.881,45.972,45.415,46.523C45.956,47.073,46.655,47.363,47.506,47.363C48.357,47.363,49.049,47.073,49.577,46.523C50.097,45.972,50.368,45.193,50.368,44.192L50.368,28.959C50.368,25.956,49.787,23.62,48.66,21.968C47.532,20.316,45.857,19.17,43.615,18.532C41.373,17.894,38.583,17.595,35.233,17.595ZM35.233,17.595"/>
</g>
  <g id="Ultralight-M" transform="matrix(1.0,0.0,0.0,1.0,525.77001953125,1055.5400390625)">  <path fill-opacity="1" stroke-miterlimit="10" stroke="none" stroke-dasharray="none" stroke-width="1px" opacity="1" fill-rule="nonzero" vectornator:layerName="レイヤー 1" stroke-opacity="1" version="1.1" xmlns:xlink="http://www.w3.org/1999/xlink" stroke-linecap="round" clip-rule="evenodd" fill="#000000" xmlns:vectornator="http://vectornator.io" xml:space="preserve" stroke-linejoin="round" d="M35.233,0.608C33.275,0.608,31.62,1.298,30.254,2.675C28.896,4.052,28.217,5.72,28.217,7.673C28.217,9.549,28.889,11.185,30.254,12.574C31.62,13.962,33.281,14.664,35.233,14.664C37.159,14.664,38.814,13.962,40.179,12.574C41.544,11.185,42.223,9.549,42.223,7.673C42.223,5.721,41.544,4.052,40.179,2.675C38.814,1.298,37.159,0.608,35.233,0.608ZM35.233,17.595C31.877,17.595,29.087,17.894,26.845,18.532C24.603,19.17,22.928,20.316,21.8,21.968C20.672,23.62,20.092,25.956,20.092,28.959L20.092,44.192C20.092,45.193,20.363,45.972,20.884,46.523C21.411,47.073,22.103,47.363,22.954,47.363C23.805,47.363,24.504,47.073,25.045,46.523C25.579,45.972,25.836,45.193,25.836,44.192L25.836,28.815C25.836,27.989,26.192,27.566,26.871,27.566C27.57,27.566,27.9,27.989,27.9,28.815L27.9,66.416C27.9,67.517,28.223,68.375,28.836,68.963C29.45,69.551,30.195,69.852,31.099,69.852C32.022,69.852,32.793,69.551,33.407,68.963C34.02,68.375,34.343,67.517,34.343,66.416L34.343,43.928C34.343,42.901,35.233,42.726,35.233,42.726C35.233,42.726,36.143,42.901,36.143,43.928L36.143,66.416C36.143,67.517,36.44,68.375,37.053,68.963C37.667,69.551,38.438,69.852,39.362,69.852C40.265,69.852,41.03,69.551,41.643,68.963C42.257,68.375,42.56,67.517,42.56,66.416L42.56,28.815C42.56,27.989,42.916,27.566,43.615,27.566C44.288,27.566,44.624,27.989,44.624,28.815L44.624,44.192C44.624,45.193,44.881,45.972,45.415,46.523C45.956,47.073,46.655,47.363,47.506,47.363C48.357,47.363,49.049,47.073,49.577,46.523C50.097,45.972,50.368,45.193,50.368,44.192L50.368,28.959C50.368,25.956,49.787,23.62,48.66,21.968C47.532,20.316,45.857,19.17,43.615,18.532C41.373,17.894,38.583,17.595,35.233,17.595ZM35.233,17.595"/>
</g>
  <g id="Black-S" transform="matrix(1.0,0.0,0.0,1.0,2907.0949252929686,633.1849448242187)">  <path stroke-linejoin="round" opacity="1" stroke-miterlimit="10" stroke-linecap="round" xml:space="preserve" xmlns:xlink="http://www.w3.org/1999/xlink" fill="#000000" stroke="none" xmlns:vectornator="http://vectornator.io" vectornator:layerName="レイヤー 1" version="1.1" stroke-opacity="1" stroke-width="1px" fill-opacity="1" clip-rule="evenodd" stroke-dasharray="none" fill-rule="nonzero" d="M27.588,0.476C26.054,0.476,24.758,1.017,23.689,2.095C22.625,3.172,22.094,4.479,22.094,6.008C22.094,7.477,22.62,8.758,23.689,9.845C24.758,10.933,26.059,11.482,27.588,11.482C29.095,11.482,30.391,10.933,31.46,9.845C32.529,8.758,33.061,7.477,33.061,6.008C33.061,4.479,32.529,3.172,31.46,2.095C30.391,1.017,29.095,0.476,27.588,0.476ZM27.588,13.777C24.959,13.777,22.775,14.011,21.02,14.51C19.264,15.01,17.952,15.908,17.07,17.201C16.187,18.494,15.732,20.324,15.732,22.675L15.732,34.602C15.732,35.386,15.944,35.996,16.352,36.427C16.765,36.858,17.307,37.085,17.973,37.085C18.639,37.085,19.187,36.858,19.61,36.427C20.028,35.996,20.23,35.386,20.23,34.602L20.23,22.562C20.23,21.916,20.508,21.584,21.04,21.584C21.588,21.584,21.846,21.916,21.846,22.562L21.846,52.004C21.846,52.866,22.099,53.538,22.579,53.998C23.059,54.458,23.643,54.694,24.35,54.694C25.073,54.694,25.677,54.458,26.157,53.998C26.638,53.538,26.891,52.866,26.891,52.004L26.891,34.395C26.891,33.592,27.588,33.454,27.588,33.454C27.588,33.454,28.3,33.592,28.3,34.395L28.3,52.004C28.3,52.866,28.533,53.538,29.013,53.998C29.493,54.458,30.097,54.694,30.82,54.694C31.527,54.694,32.126,54.458,32.607,53.998C33.087,53.538,33.324,52.866,33.324,52.004L33.324,22.562C33.324,21.916,33.603,21.584,34.151,21.584C34.677,21.584,34.941,21.916,34.941,22.562L34.941,34.602C34.941,35.386,35.142,35.996,35.56,36.427C35.984,36.858,36.531,37.085,37.197,37.085C37.863,37.085,38.405,36.858,38.818,36.427C39.226,35.996,39.438,35.386,39.438,34.602L39.438,22.675C39.438,20.324,38.984,18.494,38.101,17.201C37.218,15.908,35.906,15.01,34.151,14.51C32.395,14.011,30.211,13.777,27.588,13.777ZM27.588,13.777"/>
</g>
  <g id="Heavy-S" transform="matrix(1.0,0.0,0.0,1.0,2610.3849252929685,633.1849448242187)">  <path xmlns:xlink="http://www.w3.org/1999/xlink" fill-rule="nonzero" stroke-opacity="1" clip-rule="evenodd" stroke-dasharray="none" stroke-miterlimit="10" opacity="1" version="1.1" stroke-width="1px" fill="#000000" xmlns:vectornator="http://vectornator.io" stroke-linejoin="round" stroke-linecap="round" xml:space="preserve" vectornator:layerName="レイヤー 1" fill-opacity="1" stroke="none" d="M27.588,0.476C26.054,0.476,24.758,1.017,23.689,2.095C22.625,3.172,22.094,4.479,22.094,6.008C22.094,7.477,22.62,8.758,23.689,9.845C24.758,10.933,26.059,11.482,27.588,11.482C29.095,11.482,30.391,10.933,31.46,9.845C32.529,8.758,33.061,7.477,33.061,6.008C33.061,4.479,32.529,3.172,31.46,2.095C30.391,1.017,29.095,0.476,27.588,0.476ZM27.588,13.777C24.959,13.777,22.775,14.011,21.02,14.51C19.264,15.01,17.952,15.908,17.07,17.201C16.187,18.494,15.732,20.324,15.732,22.675L15.732,34.602C15.732,35.386,15.944,35.996,16.352,36.427C16.765,36.858,17.307,37.085,17.973,37.085C18.639,37.085,19.187,36.858,19.61,36.427C20.028,35.996,20.23,35.386,20.23,34.602L20.23,22.562C20.23,21.916,20.508,21.584,21.04,21.584C21.588,21.584,21.846,21.916,21.846,22.562L21.846,52.004C21.846,52.866,22.099,53.538,22.579,53.998C23.059,54.458,23.643,54.694,24.35,54.694C25.073,54.694,25.677,54.458,26.157,53.998C26.638,53.538,26.891,52.866,26.891,52.004L26.891,34.395C26.891,33.592,27.588,33.454,27.588,33.454C27.588,33.454,28.3,33.592,28.3,34.395L28.3,52.004C28.3,52.866,28.533,53.538,29.013,53.998C29.493,54.458,30.097,54.694,30.82,54.694C31.527,54.694,32.126,54.458,32.607,53.998C33.087,53.538,33.324,52.866,33.324,52.004L33.324,22.562C33.324,21.916,33.603,21.584,34.151,21.584C34.677,21.584,34.941,21.916,34.941,22.562L34.941,34.602C34.941,35.386,35.142,35.996,35.56,36.427C35.984,36.858,36.531,37.085,37.197,37.085C37.863,37.085,38.405,36.858,38.818,36.427C39.226,35.996,39.438,35.386,39.438,34.602L39.438,22.675C39.438,20.324,38.984,18.494,38.101,17.201C37.218,15.908,35.906,15.01,34.151,14.51C32.395,14.011,30.211,13.777,27.588,13.777ZM27.588,13.777"/>
</g>
  <g id="Bold-S" transform="matrix(1.0,0.0,0.0,1.0,2313.6749252929685,633.1849448242187)">  <path fill-opacity="1" stroke-linecap="round" stroke-opacity="1" clip-rule="evenodd" stroke-dasharray="none" vectornator:layerName="レイヤー 1" fill="#000000" stroke-linejoin="round" opacity="1" xmlns:xlink="http://www.w3.org/1999/xlink" stroke-width="1px" xml:space="preserve" stroke="none" fill-rule="nonzero" xmlns:vectornator="http://vectornator.io" stroke-miterlimit="10" version="1.1" d="M27.588,0.476C26.054,0.476,24.758,1.017,23.689,2.095C22.625,3.172,22.094,4.479,22.094,6.008C22.094,7.477,22.62,8.758,23.689,9.845C24.758,10.933,26.059,11.482,27.588,11.482C29.095,11.482,30.391,10.933,31.46,9.845C32.529,8.758,33.061,7.477,33.061,6.008C33.061,4.479,32.529,3.172,31.46,2.095C30.391,1.017,29.095,0.476,27.588,0.476ZM27.588,13.777C24.959,13.777,22.775,14.011,21.02,14.51C19.264,15.01,17.952,15.908,17.07,17.201C16.187,18.494,15.732,20.324,15.732,22.675L15.732,34.602C15.732,35.386,15.944,35.996,16.352,36.427C16.765,36.858,17.307,37.085,17.973,37.085C18.639,37.085,19.187,36.858,19.61,36.427C20.028,35.996,20.23,35.386,20.23,34.602L20.23,22.562C20.23,21.916,20.508,21.584,21.04,21.584C21.588,21.584,21.846,21.916,21.846,22.562L21.846,52.004C21.846,52.866,22.099,53.538,22.579,53.998C23.059,54.458,23.643,54.694,24.35,54.694C25.073,54.694,25.677,54.458,26.157,53.998C26.638,53.538,26.891,52.866,26.891,52.004L26.891,34.395C26.891,33.592,27.588,33.454,27.588,33.454C27.588,33.454,28.3,33.592,28.3,34.395L28.3,52.004C28.3,52.866,28.533,53.538,29.013,53.998C29.493,54.458,30.097,54.694,30.82,54.694C31.527,54.694,32.126,54.458,32.607,53.998C33.087,53.538,33.324,52.866,33.324,52.004L33.324,22.562C33.324,21.916,33.603,21.584,34.151,21.584C34.677,21.584,34.941,21.916,34.941,22.562L34.941,34.602C34.941,35.386,35.142,35.996,35.56,36.427C35.984,36.858,36.531,37.085,37.197,37.085C37.863,37.085,38.405,36.858,38.818,36.427C39.226,35.996,39.438,35.386,39.438,34.602L39.438,22.675C39.438,20.324,38.984,18.494,38.101,17.201C37.218,15.908,35.906,15.01,34.151,14.51C32.395,14.011,30.211,13.777,27.588,13.777ZM27.588,13.777"/>
</g>
  <g id="Semibold-S" transform="matrix(1.0,0.0,0.0,1.0,2016.9649252929687,633.1849448242187)">  <path fill-opacity="1" stroke-width="1px" stroke-opacity="1" fill="#000000" vectornator:layerName="レイヤー 1" opacity="1" version="1.1" stroke-dasharray="none" stroke-linecap="round" xmlns:xlink="http://www.w3.org/1999/xlink" fill-rule="nonzero" stroke-miterlimit="10" stroke-linejoin="round" xmlns:vectornator="http://vectornator.io" xml:space="preserve" clip-rule="evenodd" stroke="none" d="M27.588,0.476C26.054,0.476,24.758,1.017,23.689,2.095C22.625,3.172,22.094,4.479,22.094,6.008C22.094,7.477,22.62,8.758,23.689,9.845C24.758,10.933,26.059,11.482,27.588,11.482C29.095,11.482,30.391,10.933,31.46,9.845C32.529,8.758,33.061,7.477,33.061,6.008C33.061,4.479,32.529,3.172,31.46,2.095C30.391,1.017,29.095,0.476,27.588,0.476ZM27.588,13.777C24.959,13.777,22.775,14.011,21.02,14.51C19.264,15.01,17.952,15.908,17.07,17.201C16.187,18.494,15.732,20.324,15.732,22.675L15.732,34.602C15.732,35.386,15.944,35.996,16.352,36.427C16.765,36.858,17.307,37.085,17.973,37.085C18.639,37.085,19.187,36.858,19.61,36.427C20.028,35.996,20.23,35.386,20.23,34.602L20.23,22.562C20.23,21.916,20.508,21.584,21.04,21.584C21.588,21.584,21.846,21.916,21.846,22.562L21.846,52.004C21.846,52.866,22.099,53.538,22.579,53.998C23.059,54.458,23.643,54.694,24.35,54.694C25.073,54.694,25.677,54.458,26.157,53.998C26.638,53.538,26.891,52.866,26.891,52.004L26.891,34.395C26.891,33.592,27.588,33.454,27.588,33.454C27.588,33.454,28.3,33.592,28.3,34.395L28.3,52.004C28.3,52.866,28.533,53.538,29.013,53.998C29.493,54.458,30.097,54.694,30.82,54.694C31.527,54.694,32.126,54.458,32.607,53.998C33.087,53.538,33.324,52.866,33.324,52.004L33.324,22.562C33.324,21.916,33.603,21.584,34.151,21.584C34.677,21.584,34.941,21.916,34.941,22.562L34.941,34.602C34.941,35.386,35.142,35.996,35.56,36.427C35.984,36.858,36.531,37.085,37.197,37.085C37.863,37.085,38.405,36.858,38.818,36.427C39.226,35.996,39.438,35.386,39.438,34.602L39.438,22.675C39.438,20.324,38.984,18.494,38.101,17.201C37.218,15.908,35.906,15.01,34.151,14.51C32.395,14.011,30.211,13.777,27.588,13.777ZM27.588,13.777"/>
</g>
  <g id="Medium-S" transform="matrix(1.0,0.0,0.0,1.0,1720.2549252929687,633.1849448242187)">  <path version="1.1" stroke-linecap="round" stroke-width="1px" stroke-linejoin="round" clip-rule="evenodd" xmlns:vectornator="http://vectornator.io" opacity="1" stroke="none" stroke-miterlimit="10" xml:space="preserve" xmlns:xlink="http://www.w3.org/1999/xlink" stroke-dasharray="none" stroke-opacity="1" fill-opacity="1" vectornator:layerName="レイヤー 1" fill="#000000" fill-rule="nonzero" d="M27.588,0.476C26.054,0.476,24.758,1.017,23.689,2.095C22.625,3.172,22.094,4.479,22.094,6.008C22.094,7.477,22.62,8.758,23.689,9.845C24.758,10.933,26.059,11.482,27.588,11.482C29.095,11.482,30.391,10.933,31.46,9.845C32.529,8.758,33.061,7.477,33.061,6.008C33.061,4.479,32.529,3.172,31.46,2.095C30.391,1.017,29.095,0.476,27.588,0.476ZM27.588,13.777C24.959,13.777,22.775,14.011,21.02,14.51C19.264,15.01,17.952,15.908,17.07,17.201C16.187,18.494,15.732,20.324,15.732,22.675L15.732,34.602C15.732,35.386,15.944,35.996,16.352,36.427C16.765,36.858,17.307,37.085,17.973,37.085C18.639,37.085,19.187,36.858,19.61,36.427C20.028,35.996,20.23,35.386,20.23,34.602L20.23,22.562C20.23,21.916,20.508,21.584,21.04,21.584C21.588,21.584,21.846,21.916,21.846,22.562L21.846,52.004C21.846,52.866,22.099,53.538,22.579,53.998C23.059,54.458,23.643,54.694,24.35,54.694C25.073,54.694,25.677,54.458,26.157,53.998C26.638,53.538,26.891,52.866,26.891,52.004L26.891,34.395C26.891,33.592,27.588,33.454,27.588,33.454C27.588,33.454,28.3,33.592,28.3,34.395L28.3,52.004C28.3,52.866,28.533,53.538,29.013,53.998C29.493,54.458,30.097,54.694,30.82,54.694C31.527,54.694,32.126,54.458,32.607,53.998C33.087,53.538,33.324,52.866,33.324,52.004L33.324,22.562C33.324,21.916,33.603,21.584,34.151,21.584C34.677,21.584,34.941,21.916,34.941,22.562L34.941,34.602C34.941,35.386,35.142,35.996,35.56,36.427C35.984,36.858,36.531,37.085,37.197,37.085C37.863,37.085,38.405,36.858,38.818,36.427C39.226,35.996,39.438,35.386,39.438,34.602L39.438,22.675C39.438,20.324,38.984,18.494,38.101,17.201C37.218,15.908,35.906,15.01,34.151,14.51C32.395,14.011,30.211,13.777,27.588,13.777ZM27.588,13.777"/>
</g>
  <g id="Regular-S" transform="matrix(1.0,0.0,0.0,1.0,1423.5449252929686,633.1849448242187)">  <path xmlns:xlink="http://www.w3.org/1999/xlink" xmlns:vectornator="http://vectornator.io" stroke-miterlimit="10" fill="#000000" stroke-width="1px" stroke="none" stroke-opacity="1" vectornator:layerName="レイヤー 1" clip-rule="evenodd" opacity="1" stroke-linejoin="round" stroke-linecap="round" version="1.1" fill-opacity="1" xml:space="preserve" fill-rule="nonzero" stroke-dasharray="none" d="M27.588,0.476C26.054,0.476,24.758,1.017,23.689,2.095C22.625,3.172,22.094,4.479,22.094,6.008C22.094,7.477,22.62,8.758,23.689,9.845C24.758,10.933,26.059,11.482,27.588,11.482C29.095,11.482,30.391,10.933,31.46,9.845C32.529,8.758,33.061,7.477,33.061,6.008C33.061,4.479,32.529,3.172,31.46,2.095C30.391,1.017,29.095,0.476,27.588,0.476ZM27.588,13.777C24.959,13.777,22.775,14.011,21.02,14.51C19.264,15.01,17.952,15.908,17.07,17.201C16.187,18.494,15.732,20.324,15.732,22.675L15.732,34.602C15.732,35.386,15.944,35.996,16.352,36.427C16.765,36.858,17.307,37.085,17.973,37.085C18.639,37.085,19.187,36.858,19.61,36.427C20.028,35.996,20.23,35.386,20.23,34.602L20.23,22.562C20.23,21.916,20.508,21.584,21.04,21.584C21.588,21.584,21.846,21.916,21.846,22.562L21.846,52.004C21.846,52.866,22.099,53.538,22.579,53.998C23.059,54.458,23.643,54.694,24.35,54.694C25.073,54.694,25.677,54.458,26.157,53.998C26.638,53.538,26.891,52.866,26.891,52.004L26.891,34.395C26.891,33.592,27.588,33.454,27.588,33.454C27.588,33.454,28.3,33.592,28.3,34.395L28.3,52.004C28.3,52.866,28.533,53.538,29.013,53.998C29.493,54.458,30.097,54.694,30.82,54.694C31.527,54.694,32.126,54.458,32.607,53.998C33.087,53.538,33.324,52.866,33.324,52.004L33.324,22.562C33.324,21.916,33.603,21.584,34.151,21.584C34.677,21.584,34.941,21.916,34.941,22.562L34.941,34.602C34.941,35.386,35.142,35.996,35.56,36.427C35.984,36.858,36.531,37.085,37.197,37.085C37.863,37.085,38.405,36.858,38.818,36.427C39.226,35.996,39.438,35.386,39.438,34.602L39.438,22.675C39.438,20.324,38.984,18.494,38.101,17.201C37.218,15.908,35.906,15.01,34.151,14.51C32.395,14.011,30.211,13.777,27.588,13.777ZM27.588,13.777"/>
</g>
  <g id="Light-S" transform="matrix(1.0,0.0,0.0,1.0,1126.8349252929688,633.1849448242187)">  <path opacity="1" stroke-linejoin="round" stroke="none" stroke-opacity="1" stroke-linecap="round" fill-rule="nonzero" version="1.1" fill-opacity="1" stroke-width="1px" stroke-miterlimit="10" stroke-dasharray="none" xmlns:xlink="http://www.w3.org/1999/xlink" fill="#000000" xmlns:vectornator="http://vectornator.io" clip-rule="evenodd" vectornator:layerName="レイヤー 1" xml:space="preserve" d="M27.588,0.476C26.054,0.476,24.758,1.017,23.689,2.095C22.625,3.172,22.094,4.479,22.094,6.008C22.094,7.477,22.62,8.758,23.689,9.845C24.758,10.933,26.059,11.482,27.588,11.482C29.095,11.482,30.391,10.933,31.46,9.845C32.529,8.758,33.061,7.477,33.061,6.008C33.061,4.479,32.529,3.172,31.46,2.095C30.391,1.017,29.095,0.476,27.588,0.476ZM27.588,13.777C24.959,13.777,22.775,14.011,21.02,14.51C19.264,15.01,17.952,15.908,17.07,17.201C16.187,18.494,15.732,20.324,15.732,22.675L15.732,34.602C15.732,35.386,15.944,35.996,16.352,36.427C16.765,36.858,17.307,37.085,17.973,37.085C18.639,37.085,19.187,36.858,19.61,36.427C20.028,35.996,20.23,35.386,20.23,34.602L20.23,22.562C20.23,21.916,20.508,21.584,21.04,21.584C21.588,21.584,21.846,21.916,21.846,22.562L21.846,52.004C21.846,52.866,22.099,53.538,22.579,53.998C23.059,54.458,23.643,54.694,24.35,54.694C25.073,54.694,25.677,54.458,26.157,53.998C26.638,53.538,26.891,52.866,26.891,52.004L26.891,34.395C26.891,33.592,27.588,33.454,27.588,33.454C27.588,33.454,28.3,33.592,28.3,34.395L28.3,52.004C28.3,52.866,28.533,53.538,29.013,53.998C29.493,54.458,30.097,54.694,30.82,54.694C31.527,54.694,32.126,54.458,32.607,53.998C33.087,53.538,33.324,52.866,33.324,52.004L33.324,22.562C33.324,21.916,33.603,21.584,34.151,21.584C34.677,21.584,34.941,21.916,34.941,22.562L34.941,34.602C34.941,35.386,35.142,35.996,35.56,36.427C35.984,36.858,36.531,37.085,37.197,37.085C37.863,37.085,38.405,36.858,38.818,36.427C39.226,35.996,39.438,35.386,39.438,34.602L39.438,22.675C39.438,20.324,38.984,18.494,38.101,17.201C37.218,15.908,35.906,15.01,34.151,14.51C32.395,14.011,30.211,13.777,27.588,13.777ZM27.588,13.777"/>
</g>
  <g id="Thin-S" transform="matrix(1.0,0.0,0.0,1.0,830.1249252929688,633.1849448242187)">  <path stroke-miterlimit="10" version="1.1" xml:space="preserve" stroke-opacity="1" stroke="none" fill-opacity="1" vectornator:layerName="レイヤー 1" opacity="1" clip-rule="evenodd" stroke-linejoin="round" fill-rule="nonzero" stroke-dasharray="none" xmlns:xlink="http://www.w3.org/1999/xlink" xmlns:vectornator="http://vectornator.io" stroke-linecap="round" fill="#000000" stroke-width="1px" d="M27.588,0.476C26.054,0.476,24.758,1.017,23.689,2.095C22.625,3.172,22.094,4.479,22.094,6.008C22.094,7.477,22.62,8.758,23.689,9.845C24.758,10.933,26.059,11.482,27.588,11.482C29.095,11.482,30.391,10.933,31.46,9.845C32.529,8.758,33.061,7.477,33.061,6.008C33.061,4.479,32.529,3.172,31.46,2.095C30.391,1.017,29.095,0.476,27.588,0.476ZM27.588,13.777C24.959,13.777,22.775,14.011,21.02,14.51C19.264,15.01,17.952,15.908,17.07,17.201C16.187,18.494,15.732,20.324,15.732,22.675L15.732,34.602C15.732,35.386,15.944,35.996,16.352,36.427C16.765,36.858,17.307,37.085,17.973,37.085C18.639,37.085,19.187,36.858,19.61,36.427C20.028,35.996,20.23,35.386,20.23,34.602L20.23,22.562C20.23,21.916,20.508,21.584,21.04,21.584C21.588,21.584,21.846,21.916,21.846,22.562L21.846,52.004C21.846,52.866,22.099,53.538,22.579,53.998C23.059,54.458,23.643,54.694,24.35,54.694C25.073,54.694,25.677,54.458,26.157,53.998C26.638,53.538,26.891,52.866,26.891,52.004L26.891,34.395C26.891,33.592,27.588,33.454,27.588,33.454C27.588,33.454,28.3,33.592,28.3,34.395L28.3,52.004C28.3,52.866,28.533,53.538,29.013,53.998C29.493,54.458,30.097,54.694,30.82,54.694C31.527,54.694,32.126,54.458,32.607,53.998C33.087,53.538,33.324,52.866,33.324,52.004L33.324,22.562C33.324,21.916,33.603,21.584,34.151,21.584C34.677,21.584,34.941,21.916,34.941,22.562L34.941,34.602C34.941,35.386,35.142,35.996,35.56,36.427C35.984,36.858,36.531,37.085,37.197,37.085C37.863,37.085,38.405,36.858,38.818,36.427C39.226,35.996,39.438,35.386,39.438,34.602L39.438,22.675C39.438,20.324,38.984,18.494,38.101,17.201C37.218,15.908,35.906,15.01,34.151,14.51C32.395,14.011,30.211,13.777,27.588,13.777ZM27.588,13.777"/>
</g>
  <g id="Ultralight-S" transform="matrix(1.0,0.0,0.0,1.0,533.4149252929687,633.1849448242187)">  <path fill-opacity="1" stroke-miterlimit="10" stroke="none" stroke-dasharray="none" stroke-width="1px" opacity="1" fill-rule="nonzero" vectornator:layerName="レイヤー 1" stroke-opacity="1" version="1.1" xmlns:xlink="http://www.w3.org/1999/xlink" stroke-linecap="round" clip-rule="evenodd" fill="#000000" xmlns:vectornator="http://vectornator.io" xml:space="preserve" stroke-linejoin="round" d="M27.588,0.476C26.054,0.476,24.758,1.017,23.689,2.095C22.625,3.172,22.094,4.479,22.094,6.008C22.094,7.477,22.62,8.758,23.689,9.845C24.758,10.933,26.059,11.482,27.588,11.482C29.095,11.482,30.391,10.933,31.46,9.845C32.529,8.758,33.061,7.477,33.061,6.008C33.061,4.479,32.529,3.172,31.46,2.095C30.391,1.017,29.095,0.476,27.588,0.476ZM27.588,13.777C24.959,13.777,22.775,14.011,21.02,14.51C19.264,15.01,17.952,15.908,17.07,17.201C16.187,18.494,15.732,20.324,15.732,22.675L15.732,34.602C15.732,35.386,15.944,35.996,16.352,36.427C16.765,36.858,17.307,37.085,17.973,37.085C18.639,37.085,19.187,36.858,19.61,36.427C20.028,35.996,20.23,35.386,20.23,34.602L20.23,22.562C20.23,21.916,20.508,21.584,21.04,21.584C21.588,21.584,21.846,21.916,21.846,22.562L21.846,52.004C21.846,52.866,22.099,53.538,22.579,53.998C23.059,54.458,23.643,54.694,24.35,54.694C25.073,54.694,25.677,54.458,26.157,53.998C26.638,53.538,26.891,52.866,26.891,52.004L26.891,34.395C26.891,33.592,27.588,33.454,27.588,33.454C27.588,33.454,28.3,33.592,28.3,34.395L28.3,52.004C28.3,52.866,28.533,53.538,29.013,53.998C29.493,54.458,30.097,54.694,30.82,54.694C31.527,54.694,32.126,54.458,32.607,53.998C33.087,53.538,33.324,52.866,33.324,52.004L33.324,22.562C33.324,21.916,33.603,21.584,34.151,21.584C34.677,21.584,34.941,21.916,34.941,22.562L34.941,34.602C34.941,35.386,35.142,35.996,35.56,36.427C35.984,36.858,36.531,37.085,37.197,37.085C37.863,37.085,38.405,36.858,38.818,36.427C39.226,35.996,39.438,35.386,39.438,34.602L39.438,22.675C39.438,20.324,38.984,18.494,38.101,17.201C37.218,15.908,35.906,15.01,34.151,14.51C32.395,14.011,30.211,13.777,27.588,13.777ZM27.588,13.777"/>
</g>
 </g>
</svg>
